<svg width="101" height="39" viewBox="0 0 101 39" fill="none" xmlns="http://www.w3.org/2000/svg">
<path fill-rule="evenodd" clip-rule="evenodd" d="M53.7071 8.36267C53.3322 8.36524 52.9734 8.51276 52.7083 8.77329C52.4433 9.03381 52.2931 9.38645 52.2904 9.75488V10.1372L51.9614 9.94122C51.6347 9.7566 51.2467 9.70706 50.8828 9.80359C50.519 9.90011 50.2091 10.1347 50.0212 10.4558C49.8334 10.7769 49.783 11.1583 49.8812 11.5159C49.9794 11.8735 50.2181 12.1781 50.5448 12.3628L50.8741 12.549L50.5448 12.7353C50.2747 12.8885 50.0637 13.125 49.9443 13.4081C49.8249 13.6913 49.8039 14.0053 49.8846 14.3014C49.9653 14.5975 50.1432 14.8592 50.3907 15.0458C50.6381 15.2324 50.9411 15.3335 51.253 15.3334C51.5016 15.333 51.7459 15.2687 51.9614 15.147L52.2904 14.9608V15.3334C52.2904 15.7026 52.4398 16.0566 52.7054 16.3177C52.9711 16.5788 53.3314 16.7255 53.7071 16.7255C54.0827 16.7255 54.4428 16.5788 54.7085 16.3177C54.9741 16.0566 55.1235 15.7026 55.1235 15.3334V14.9608L55.4527 15.147C55.6138 15.2391 55.7918 15.2991 55.9765 15.3236C56.1612 15.348 56.349 15.3365 56.5291 15.2896C56.7093 15.2427 56.8782 15.1613 57.0264 15.0502C57.1746 14.9392 57.299 14.8005 57.3927 14.6421C57.4863 14.4838 57.5475 14.3088 57.5724 14.1273C57.5973 13.9457 57.5855 13.7613 57.5378 13.5842C57.4901 13.4071 57.4073 13.241 57.2943 13.0953C57.1813 12.9497 57.0402 12.8274 56.8791 12.7353L56.5498 12.549L56.8791 12.3628C57.1804 12.1648 57.3939 11.8616 57.476 11.5146C57.558 11.1676 57.5024 10.803 57.3208 10.4947C57.1392 10.1864 56.8452 9.95761 56.4982 9.85481C56.1512 9.752 55.7774 9.78292 55.4527 9.94122L55.1235 10.1372V9.75488C55.1235 9.38565 54.9741 9.03162 54.7085 8.77053C54.4428 8.50945 54.0827 8.36267 53.7071 8.36267ZM20.0113 8.36267C19.6364 8.36524 19.2776 8.51276 19.0126 8.77329C18.7475 9.03381 18.5973 9.38645 18.5947 9.75488V10.1372L18.2656 9.94122C17.9389 9.7566 17.5509 9.70706 17.187 9.80359C16.8232 9.90011 16.5133 10.1347 16.3254 10.4558C16.1376 10.7769 16.0872 11.1583 16.1854 11.5159C16.2836 11.8735 16.5223 12.1781 16.849 12.3628L17.1783 12.549L16.849 12.7353C16.5236 12.9199 16.2863 13.224 16.189 13.5807C16.0918 13.9374 16.1427 14.3174 16.3305 14.6372C16.5184 14.957 16.8278 15.1905 17.1907 15.2861C17.5536 15.3817 17.9402 15.3317 18.2656 15.147L18.5947 14.9608V15.3334C18.5782 15.5267 18.6028 15.7212 18.6667 15.9047C18.7307 16.0882 18.8327 16.2567 18.9663 16.3995C19.0999 16.5422 19.2622 16.6562 19.4429 16.7342C19.6236 16.8122 19.8188 16.8524 20.0162 16.8524C20.2135 16.8524 20.4087 16.8122 20.5894 16.7342C20.7701 16.6562 20.9327 16.5422 21.0663 16.3995C21.1999 16.2567 21.3019 16.0882 21.3658 15.9047C21.4298 15.7212 21.4541 15.5267 21.4376 15.3334V14.9608L21.7669 15.147C21.9815 15.2709 22.2262 15.3354 22.4751 15.3334C22.724 15.3344 22.9687 15.2705 23.1843 15.1482C23.3998 15.026 23.5784 14.8496 23.702 14.6372C23.795 14.4789 23.8555 14.3041 23.8798 14.1229C23.9041 13.9416 23.8917 13.7573 23.8435 13.5807C23.7953 13.4041 23.7123 13.2384 23.599 13.0934C23.4857 12.9483 23.3444 12.8267 23.1833 12.7353L22.854 12.549L23.1833 12.3628C23.51 12.1781 23.7487 11.8735 23.8469 11.5159C23.9451 11.1583 23.8947 10.7769 23.7069 10.4558C23.519 10.1347 23.2091 9.90011 22.8453 9.80359C22.4814 9.70706 22.0936 9.7566 21.7669 9.94122L21.4376 10.1372V9.75488C21.435 9.38476 21.2836 9.03074 21.0163 8.76994C20.7491 8.50913 20.3879 8.36267 20.0113 8.36267ZM31.1833 8.36267C30.8084 8.36524 30.4497 8.51276 30.1846 8.77329C29.9195 9.03381 29.7695 9.38645 29.7669 9.75488V10.1372L29.4377 9.94122C29.1109 9.7566 28.7229 9.70706 28.3591 9.80359C27.9952 9.90011 27.6853 10.1347 27.4974 10.4558C27.3096 10.7769 27.2592 11.1583 27.3574 11.5159C27.4556 11.8735 27.6946 12.1781 28.0213 12.3628L28.3503 12.549L28.0213 12.7353C27.6959 12.9199 27.4583 13.224 27.3611 13.5807C27.2638 13.9374 27.3147 14.3174 27.5026 14.6372C27.6904 14.957 27.9998 15.1905 28.3627 15.2861C28.7256 15.3817 29.1123 15.3317 29.4377 15.147L29.7669 14.9608V15.3334C29.7504 15.5267 29.7748 15.7212 29.8388 15.9047C29.9027 16.0882 30.0047 16.2567 30.1383 16.3995C30.2719 16.5422 30.4342 16.6562 30.6149 16.7342C30.7956 16.8122 30.9908 16.8524 31.1882 16.8524C31.3855 16.8524 31.581 16.8122 31.7617 16.7342C31.9424 16.6562 32.1047 16.5422 32.2383 16.3995C32.3719 16.2567 32.4739 16.0882 32.5378 15.9047C32.6018 15.7212 32.6262 15.5267 32.6097 15.3334V14.9608L32.9389 15.147C33.1535 15.2709 33.3982 15.3354 33.6471 15.3334C33.896 15.3344 34.1407 15.2705 34.3563 15.1482C34.5718 15.026 34.7505 14.8496 34.874 14.6372C34.9671 14.4789 35.0275 14.3041 35.0518 14.1229C35.0761 13.9416 35.0637 13.7573 35.0155 13.5807C34.9674 13.4041 34.8843 13.2384 34.771 13.0934C34.6577 12.9483 34.5164 12.8267 34.3553 12.7353L34.0263 12.549L34.3553 12.3628C34.682 12.1781 34.9207 11.8735 35.0189 11.5159C35.1171 11.1583 35.067 10.7769 34.8791 10.4558C34.6913 10.1347 34.3814 9.90011 34.0175 9.80359C33.6537 9.70706 33.2656 9.7566 32.9389 9.94122L32.6097 10.1372V9.75488C32.607 9.38476 32.4556 9.03074 32.1884 8.76994C31.9211 8.50913 31.5599 8.36267 31.1833 8.36267ZM8.83926 8.36267C8.4644 8.36524 8.10561 8.51276 7.84054 8.77329C7.57546 9.03381 7.42525 9.38645 7.42264 9.75488V10.1372L7.09362 9.94122C6.93185 9.8498 6.75314 9.79057 6.56808 9.76696C6.38303 9.74336 6.19518 9.75579 6.01502 9.80359C5.65117 9.90011 5.34124 10.1347 5.15341 10.4558C4.96557 10.7769 4.91516 11.1583 5.01337 11.5159C5.11159 11.8735 5.35027 12.1781 5.677 12.3628L6.00625 12.549L5.677 12.7353C5.3516 12.9199 5.1143 13.224 5.01703 13.5807C4.91975 13.9374 4.97044 14.3174 5.15828 14.6372C5.34611 14.957 5.65552 15.1905 6.01843 15.2861C6.38134 15.3817 6.76822 15.3317 7.09362 15.147L7.42264 14.9608V15.3334C7.40614 15.5267 7.43077 15.7212 7.49472 15.9047C7.55867 16.0882 7.66066 16.2567 7.79426 16.3995C7.92787 16.5422 8.09013 16.6562 8.27086 16.7342C8.45158 16.8122 8.64676 16.8524 8.84413 16.8524C9.0415 16.8524 9.23668 16.8122 9.4174 16.7342C9.59813 16.6562 9.76039 16.5422 9.894 16.3995C10.0276 16.2567 10.1296 16.0882 10.1935 15.9047C10.2575 15.7212 10.2821 15.5267 10.2656 15.3334V14.9608L10.5949 15.147C10.8095 15.2709 11.0542 15.3354 11.3031 15.3334C11.552 15.3344 11.7967 15.2705 12.0122 15.1482C12.2278 15.026 12.4064 14.8496 12.53 14.6372C12.623 14.4789 12.6832 14.3041 12.7075 14.1229C12.7318 13.9416 12.7196 13.7573 12.6715 13.5807C12.6233 13.4041 12.5403 13.2384 12.427 13.0934C12.3137 12.9483 12.1724 12.8267 12.0113 12.7353L11.682 12.549L12.0113 12.3628C12.338 12.1781 12.5767 11.8735 12.6749 11.5159C12.7731 11.1583 12.7227 10.7769 12.5349 10.4558C12.347 10.1347 12.0371 9.90011 11.6732 9.80359C11.3094 9.70706 10.9216 9.7566 10.5949 9.94122L10.2656 10.1372V9.75488C10.263 9.38476 10.1115 9.03074 9.84432 8.76994C9.57709 8.50913 9.21585 8.36267 8.83926 8.36267ZM65.0586 8.36267C64.8726 8.36267 64.6883 8.39875 64.5165 8.46871C64.3446 8.53867 64.1885 8.64126 64.0569 8.77053C63.9254 8.89981 63.8213 9.05317 63.7501 9.22208C63.6789 9.39098 63.6422 9.57206 63.6422 9.75488V10.1372L63.3129 9.94122C62.9883 9.78292 62.6145 9.752 62.2675 9.85481C61.9204 9.95761 61.6262 10.1864 61.4446 10.4947C61.263 10.803 61.2076 11.1676 61.2897 11.5146C61.3718 11.8616 61.5852 12.1648 61.8866 12.3628L62.2158 12.549L61.8866 12.7353C61.5612 12.9212 61.3242 13.2266 61.2278 13.5842C61.1315 13.9418 61.1836 14.3223 61.3727 14.6421C61.5619 14.962 61.8727 15.1949 62.2365 15.2896C62.6004 15.3843 62.9875 15.333 63.3129 15.147L63.6422 14.9608V15.3334C63.6422 15.7026 63.7913 16.0566 64.0569 16.3177C64.3226 16.5788 64.6829 16.7255 65.0586 16.7255C65.4342 16.7255 65.7946 16.5788 66.0602 16.3177C66.3259 16.0566 66.475 15.7026 66.475 15.3334V14.9608L66.8042 15.147C67.0197 15.2687 67.2638 15.333 67.5124 15.3334C67.8243 15.3335 68.1275 15.2324 68.375 15.0458C68.6225 14.8592 68.8003 14.5975 68.8811 14.3014C68.9618 14.0053 68.9408 13.6913 68.8214 13.4081C68.702 13.125 68.4908 12.8885 68.2206 12.7353L67.8916 12.549L68.2206 12.3628C68.5473 12.1781 68.7862 11.8735 68.8845 11.5159C68.9827 11.1583 68.9323 10.7769 68.7444 10.4558C68.5566 10.1347 68.2467 9.90011 67.8828 9.80359C67.519 9.70706 67.1309 9.7566 66.8042 9.94122L66.475 10.1372V9.75488C66.475 9.38565 66.3259 9.03162 66.0602 8.77053C65.7946 8.50945 65.4342 8.36267 65.0586 8.36267ZM42.3553 8.36267C41.9805 8.36524 41.6217 8.51276 41.3566 8.77329C41.0915 9.03381 40.9416 9.38645 40.9389 9.75488V10.1372L40.6097 9.94122C40.4479 9.8498 40.2694 9.79057 40.0844 9.76696C39.8993 9.74336 39.7112 9.75579 39.5311 9.80359C39.1672 9.90011 38.8573 10.1347 38.6695 10.4558C38.4816 10.7769 38.4315 11.1583 38.5297 11.5159C38.6279 11.8735 38.8666 12.1781 39.1933 12.3628L39.5226 12.549L39.1933 12.7353C38.8679 12.9199 38.6304 13.224 38.5331 13.5807C38.4358 13.9374 38.4868 14.3174 38.6746 14.6372C38.8624 14.957 39.1718 15.1905 39.5347 15.2861C39.8977 15.3817 40.2843 15.3317 40.6097 15.147L40.9389 14.9608V15.3334C40.9225 15.5267 40.9468 15.7212 41.0108 15.9047C41.0747 16.0882 41.1767 16.2567 41.3103 16.3995C41.4439 16.5422 41.6062 16.6562 41.7869 16.7342C41.9676 16.8122 42.1631 16.8524 42.3604 16.8524C42.5578 16.8524 42.753 16.8122 42.9337 16.7342C43.1144 16.6562 43.2767 16.5422 43.4103 16.3995C43.5439 16.2567 43.6459 16.0882 43.7098 15.9047C43.7738 15.7212 43.7982 15.5267 43.7817 15.3334V14.9608L44.1109 15.147C44.3255 15.2709 44.5703 15.3354 44.8191 15.3334C45.068 15.3344 45.3127 15.2705 45.5283 15.1482C45.7439 15.026 45.9225 14.8496 46.046 14.6372C46.1391 14.4789 46.1995 14.3041 46.2238 14.1229C46.2481 13.9416 46.2357 13.7573 46.1875 13.5807C46.1394 13.4041 46.0563 13.2384 45.943 13.0934C45.8298 12.9483 45.6885 12.8267 45.5273 12.7353L45.1983 12.549L45.5273 12.3628C45.854 12.1781 46.093 11.8735 46.1912 11.5159C46.2894 11.1583 46.239 10.7769 46.0512 10.4558C45.8633 10.1347 45.5534 9.90011 45.1895 9.80359C44.8257 9.70706 44.4377 9.7566 44.1109 9.94122L43.7817 10.1372V9.75488C43.7791 9.38476 43.6276 9.03074 43.3604 8.76994C43.0932 8.50913 42.7319 8.36267 42.3553 8.36267ZM87.7518 13.9412C86.6239 13.9438 85.543 14.3859 84.7464 15.1707C83.9498 15.9555 83.5025 17.0189 83.5025 18.1275V19.5196H92.0112V18.1275C92.0112 17.0172 91.5624 15.9524 90.7636 15.1673C89.9648 14.3822 88.8815 13.9412 87.7518 13.9412ZM89.1782 1.89561e-06C90.6367 -0.00118209 92.0391 0.552308 93.0915 1.54467C94.144 2.53704 94.765 3.89121 94.8242 5.32348C94.837 5.56178 94.7871 5.79934 94.6796 6.01329C94.5721 6.22725 94.4104 6.4104 94.2101 6.54526C94.0098 6.68012 93.7776 6.76217 93.5357 6.78342C93.2939 6.80466 93.0507 6.76441 92.8292 6.66661C91.2302 5.95635 89.4966 5.58555 87.7419 5.57839C84.6 5.58408 81.5717 6.73351 79.2414 8.80476C76.9111 10.876 75.4441 13.7223 75.1235 16.7942C75.1025 16.9894 75.039 17.1779 74.9374 17.3471C74.8359 17.5162 74.6986 17.662 74.5349 17.7746C73.7997 18.2895 73.1993 18.9686 72.7832 19.7561C72.367 20.5435 72.147 21.4167 72.141 22.304V23.7059C72.1384 24.0743 71.9881 24.4269 71.7231 24.6875C71.458 24.948 71.0992 25.0955 70.7243 25.0981H6.17575C4.67043 25.0981 3.22677 24.5103 2.16235 23.4641C1.09793 22.418 0.5 20.9991 0.5 19.5196V5.59802C0.5 4.11852 1.09793 2.69962 2.16235 1.65346C3.22677 0.607299 4.67043 0.0196289 6.17575 0.0196289L89.1782 1.89561e-06ZM87.7518 25.0981C87.0013 25.1007 86.2824 25.3948 85.7517 25.9164C85.221 26.438 84.9215 27.1447 84.9188 27.8824C84.9254 28.3633 85.0596 28.8341 85.308 29.2485C85.5564 29.6628 85.9107 30.0064 86.3355 30.2451V32.0687C86.3653 32.419 86.5281 32.7455 86.7914 32.9835C87.0546 33.2214 87.3993 33.3535 87.757 33.3535C88.1146 33.3535 88.4593 33.2214 88.7226 32.9835C88.9858 32.7455 89.1483 32.419 89.1782 32.0687V30.2451C89.603 30.0064 89.9573 29.6628 90.2057 29.2485C90.4541 28.8341 90.5882 28.3633 90.5948 27.8824C90.5922 27.143 90.2914 26.4348 89.7585 25.913C89.2257 25.3911 88.5041 25.0981 87.7518 25.0981ZM87.7518 8.36267C90.3974 8.36267 92.9346 9.39561 94.8053 11.2342C96.6759 13.0728 97.7269 15.5665 97.7269 18.1666V19.5588C98.4542 19.5736 99.148 19.8629 99.6642 20.3666C100.18 20.8704 100.48 21.55 100.5 22.2647V36.2157C100.5 36.9542 100.202 37.6624 99.6703 38.1845C99.139 38.7067 98.4183 39 97.667 39H77.8067C77.0545 39 76.3329 38.707 75.8 38.1851C75.2672 37.6632 74.9664 36.9551 74.9637 36.2157V22.2647C74.9664 21.5254 75.2672 20.8172 75.8 20.2953C76.3329 19.7734 77.0545 19.4804 77.8067 19.4804V18.0882C77.8277 15.5068 78.8837 13.0376 80.7457 11.2167C82.6076 9.3959 85.1252 8.37034 87.7518 8.36267Z" fill="#002953"/>
</svg>
