<svg width="199" height="399" viewBox="0 0 199 399" fill="none" xmlns="http://www.w3.org/2000/svg">
<path d="M161.335 399C158.548 399 156.012 398.386 153.996 397.221L56.0492 340.673C53.2325 339.048 51.6172 336.442 51.6172 333.528C51.6172 330.368 53.5227 327.454 56.8467 325.535L59.2864 324.127C61.786 322.682 64.9131 321.888 68.0902 321.888C70.8769 321.888 73.4131 322.502 75.4289 323.666L173.376 380.217C176.192 381.843 177.808 384.449 177.808 387.362C177.808 390.523 175.902 393.436 172.578 395.355L170.142 396.764C167.639 398.205 164.512 399 161.335 399Z" fill="#E7E7E7"/>
<path d="M48.6456 379.365C39.1543 384.844 23.7191 384.814 14.1711 379.301C4.61967 373.788 4.57301 364.877 14.0643 359.397C23.5557 353.918 38.9907 353.948 48.5388 359.461C58.0868 364.974 58.1336 373.885 48.6456 379.365Z" fill="#E7E7E7"/>
<path d="M119.936 56.9717L120.159 59.8918L116.945 58.1331L117.079 59.8651L119.936 56.9717Z" fill="#C2D8FB"/>
<path d="M160.529 87.8619L154.852 90.238C153.487 90.8087 151.825 90.6519 150.133 89.674L155.81 87.2979C157.502 88.279 159.164 88.4359 160.529 87.8619Z" fill="black"/>
<path d="M163.219 84.7649L164.05 82.4521L168.238 89.4138L168.732 88.0355L163.219 84.7649Z" fill="#C2D8FB"/>
<path d="M174.276 101.496L174.276 101.496C178.039 103.666 181.252 107.511 183.39 111.985C185.528 116.458 186.578 121.532 186.045 126.138L160.832 343.214L161.13 343.249L160.832 343.214C160.3 347.813 158.292 351.042 155.53 352.593C152.774 354.14 149.197 354.055 145.438 351.883L65.3219 305.627C61.5589 303.456 58.345 299.61 56.2066 295.137C54.0687 290.666 53.0195 285.597 53.5557 280.999L53.5558 280.999L78.7692 63.9231L78.7692 63.923C79.3021 59.3186 81.3119 56.0873 84.0738 54.5356C86.8299 52.9872 90.4055 53.0721 94.1633 55.2442L94.1634 55.2443L108.585 63.5714C109.648 69.9126 113.461 75.9974 118.315 78.8056L118.316 78.8058L148.028 95.9596L148.028 95.9597C150.711 97.5059 153.377 97.8558 155.642 97.0816C157.435 96.4689 158.945 95.163 159.998 93.2522L174.276 101.496Z" fill="#B7D1FA" stroke="black" stroke-width="0.6"/>
<path d="M120.159 72.9573L120.158 72.9572C116.822 71.0294 114.297 66.6352 113.97 62.3103L113.97 62.3098M120.159 72.9573L114.468 62.2721L113.97 62.3098M120.159 72.9573L149.87 90.111M120.159 72.9573L149.87 90.111M113.97 62.3098L113.766 59.6531M113.97 62.3098L113.766 59.6531M113.766 59.6531L96.0031 49.3992L96.2531 48.9662L96.0031 49.3992C91.0468 46.538 86.3537 46.4329 82.7457 48.4594C79.1281 50.4912 76.4828 54.7323 75.7781 60.8046L75.778 60.8046L50.5646 277.88C49.8599 283.949 51.2411 290.637 54.0624 296.538C56.8846 302.44 61.1253 307.51 66.0901 310.376L146.206 356.631C151.162 359.492 155.855 359.597 159.463 357.572C163.081 355.54 165.726 351.301 166.431 345.232L191.644 128.156C192.349 122.082 190.968 115.392 188.146 109.49C185.324 103.585 181.083 98.5155 176.119 95.6477L158.645 85.5611L158.017 87.3102L113.766 59.6531ZM149.87 90.111C151.551 91.0822 153.261 91.3202 154.738 90.8154M149.87 90.111L154.738 90.8154M154.738 90.8154C156.22 90.3094 157.381 89.0864 158.017 87.3109L154.738 90.8154ZM108.746 62.7272L94.5677 54.5405C94.5676 54.5405 94.5676 54.5404 94.5675 54.5404C90.6229 52.2604 86.7416 52.1104 83.686 53.827C80.6399 55.5383 78.5319 59.0389 77.9785 63.8199L52.7652 280.895C52.7652 280.895 52.7652 280.895 52.7651 280.895C52.2084 285.67 53.2978 290.89 55.4877 295.471C57.6768 300.051 60.9884 304.037 64.926 306.309L145.041 352.564C148.986 354.844 152.867 354.994 155.923 353.279C158.969 351.569 161.077 348.071 161.631 343.295L186.837 126.213C187.394 121.434 186.305 116.211 184.115 111.63C181.926 107.05 178.614 103.064 174.676 100.792C174.676 100.792 174.676 100.792 174.676 100.792L160.408 92.5539L160.146 91.1539L159.481 92.4891C158.416 94.6316 156.797 95.9647 154.904 96.4531C153.006 96.943 150.764 96.6001 148.431 95.2555L118.72 78.102C114.05 75.4021 110.325 69.4287 109.349 63.1959L109.219 62.3672L108.746 62.7272Z" fill="url(#paint0_linear_4131_170882)" stroke="black"/>
<mask id="path-8-inside-1_4131_170882" fill="white">
<path fill-rule="evenodd" clip-rule="evenodd" d="M83.6875 47.4503L89.356 45.0776C92.9627 43.5695 97.3768 43.9461 101.944 46.5842L101.945 46.5839L119.937 56.9729L114.26 59.3491L96.2685 48.9634L96.5019 48.8655L96.2708 48.9622C91.7056 46.3244 87.2936 45.9426 83.6875 47.4503ZM164.259 356.193L158.583 358.569C162.981 356.727 166.168 352.078 166.959 345.287L172.636 342.911C171.848 349.699 168.658 354.351 164.259 356.193ZM114.289 59.3473L119.966 56.9711L120.19 59.8913L120.175 59.8975C120.493 64.0849 122.945 68.3185 126.115 70.147L120.438 72.5231C117.268 70.691 114.815 66.4559 114.498 62.2709L114.513 62.2648L114.289 59.3473ZM120.441 72.5231L126.117 70.147L155.829 87.3008L150.153 89.6769L120.441 72.5231ZM164.076 82.4508L158.399 84.8269L176.391 95.216L182.067 92.8365L164.076 82.4508ZM197.844 125.833L197.845 125.833L172.631 342.908L166.954 345.285L192.167 128.212L192.167 128.213C193.602 115.845 186.54 101.074 176.395 95.2166L182.071 92.8404C192.216 98.6969 199.277 113.466 197.844 125.833Z"/>
</mask>
<path fill-rule="evenodd" clip-rule="evenodd" d="M83.6875 47.4503L89.356 45.0776C92.9627 43.5695 97.3768 43.9461 101.944 46.5842L101.945 46.5839L119.937 56.9729L114.26 59.3491L96.2685 48.9634L96.5019 48.8655L96.2708 48.9622C91.7056 46.3244 87.2936 45.9426 83.6875 47.4503ZM164.259 356.193L158.583 358.569C162.981 356.727 166.168 352.078 166.959 345.287L172.636 342.911C171.848 349.699 168.658 354.351 164.259 356.193ZM114.289 59.3473L119.966 56.9711L120.19 59.8913L120.175 59.8975C120.493 64.0849 122.945 68.3185 126.115 70.147L120.438 72.5231C117.268 70.691 114.815 66.4559 114.498 62.2709L114.513 62.2648L114.289 59.3473ZM120.441 72.5231L126.117 70.147L155.829 87.3008L150.153 89.6769L120.441 72.5231ZM164.076 82.4508L158.399 84.8269L176.391 95.216L182.067 92.8365L164.076 82.4508ZM197.844 125.833L197.845 125.833L172.631 342.908L166.954 345.285L192.167 128.212L192.167 128.213C193.602 115.845 186.54 101.074 176.395 95.2166L182.071 92.8404C192.216 98.6969 199.277 113.466 197.844 125.833Z" fill="black"/>
<path d="M89.356 45.0776L88.9702 44.155L88.9698 44.1551L89.356 45.0776ZM83.6875 47.4503L83.3014 46.5279L84.0733 48.3729L83.6875 47.4503ZM101.944 46.5842L101.444 47.4502L101.874 47.6981L102.331 47.5066L101.944 46.5842ZM101.945 46.5839L102.445 45.7179L102.016 45.47L101.559 45.6615L101.945 46.5839ZM119.937 56.9729L120.323 57.8954L122.185 57.1161L120.437 56.1069L119.937 56.9729ZM114.26 59.3491L113.76 60.2151L114.189 60.4628L114.646 60.2715L114.26 59.3491ZM96.2685 48.9634L95.8819 48.0411L94.0215 48.8209L95.7685 49.8294L96.2685 48.9634ZM96.5019 48.8655L96.8885 49.7878L96.1158 47.9431L96.5019 48.8655ZM96.2708 48.9622L95.7706 49.8281L96.1997 50.0761L96.657 49.8847L96.2708 48.9622ZM158.583 358.569L158.196 357.647L158.969 359.492L158.583 358.569ZM164.259 356.193L164.646 357.116L164.646 357.116L164.259 356.193ZM166.959 345.287L166.573 344.365L166.034 344.59L165.966 345.171L166.959 345.287ZM172.636 342.911L173.629 343.026L173.826 341.328L172.25 341.988L172.636 342.911ZM119.966 56.9711L120.963 56.8948L120.858 55.5139L119.58 56.0487L119.966 56.9711ZM114.289 59.3473L113.903 58.4248L113.237 58.7036L113.292 59.4236L114.289 59.3473ZM120.19 59.8913L120.576 60.8135L121.242 60.5345L121.187 59.8149L120.19 59.8913ZM120.175 59.8975L119.788 58.9752L119.123 59.254L119.178 59.9732L120.175 59.8975ZM126.115 70.147L126.501 71.0694L128.364 70.2898L126.615 69.2808L126.115 70.147ZM120.438 72.5231L119.938 73.389L120.367 73.637L120.824 73.4456L120.438 72.5231ZM114.498 62.2709L114.112 61.3485L113.446 61.6271L113.501 62.3465L114.498 62.2709ZM114.513 62.2648L114.899 63.1873L115.565 62.9085L115.51 62.1886L114.513 62.2648ZM126.117 70.147L126.617 69.2809L126.188 69.0332L125.731 69.2245L126.117 70.147ZM120.441 72.5231L120.054 71.6007L118.193 72.38L119.941 73.3892L120.441 72.5231ZM155.829 87.3008L156.216 88.2233L158.077 87.4439L156.329 86.4348L155.829 87.3008ZM150.153 89.6769L149.653 90.543L150.082 90.7907L150.539 90.5994L150.153 89.6769ZM158.399 84.8269L158.013 83.9045L156.151 84.6837L157.899 85.6929L158.399 84.8269ZM164.076 82.4508L164.576 81.5847L164.147 81.3371L163.69 81.5284L164.076 82.4508ZM176.391 95.216L175.891 96.082L176.32 96.33L176.777 96.1383L176.391 95.216ZM182.067 92.8365L182.454 93.7588L184.314 92.979L182.567 91.9705L182.067 92.8365ZM197.845 125.833L198.838 125.948L199.034 124.262L197.464 124.908L197.845 125.833ZM197.844 125.833L196.851 125.718L196.655 127.404L198.225 126.758L197.844 125.833ZM172.631 342.908L173.017 343.831L173.557 343.605L173.624 343.024L172.631 342.908ZM166.954 345.285L165.961 345.169L165.764 346.867L167.34 346.207L166.954 345.285ZM192.167 128.212L193.161 128.328L193.358 126.627L191.78 127.291L192.167 128.212ZM192.167 128.213L191.173 128.097L190.976 129.798L192.554 129.135L192.167 128.213ZM176.395 95.2166L176.009 94.2942L174.147 95.0735L175.895 96.0827L176.395 95.2166ZM182.071 92.8404L182.571 91.9744L182.142 91.7267L181.685 91.918L182.071 92.8404ZM88.9698 44.1551L83.3014 46.5279L84.0736 48.3728L89.7421 46L88.9698 44.1551ZM102.445 45.7183C97.6693 42.9602 92.9257 42.5011 88.9702 44.155L89.7417 46.0002C92.9998 44.6379 97.0843 44.932 101.444 47.4502L102.445 45.7183ZM101.559 45.6615L101.558 45.6619L102.331 47.5066L102.332 47.5062L101.559 45.6615ZM120.437 56.1069L102.445 45.7179L101.445 47.4499L119.437 57.8389L120.437 56.1069ZM114.646 60.2715L120.323 57.8954L119.551 56.0505L113.874 58.4266L114.646 60.2715ZM95.7685 49.8294L113.76 60.2151L114.76 58.483L96.7684 48.0973L95.7685 49.8294ZM96.1153 47.9433L95.8819 48.0411L96.6551 49.8856L96.8885 49.7878L96.1153 47.9433ZM96.657 49.8847L96.888 49.788L96.1158 47.9431L95.8847 48.0398L96.657 49.8847ZM84.0733 48.3729C87.3299 47.0113 91.4121 47.3098 95.7706 49.8281L96.7711 48.0964C91.999 45.3391 87.2573 44.8738 83.3017 46.5277L84.0733 48.3729ZM158.969 359.492L164.646 357.116L163.873 355.271L158.196 357.647L158.969 359.492ZM165.966 345.171C165.203 351.722 162.165 355.985 158.196 357.647L158.969 359.492C163.797 357.47 167.134 352.435 167.953 345.403L165.966 345.171ZM172.25 341.988L166.573 344.365L167.345 346.209L173.022 343.833L172.25 341.988ZM164.646 357.116C169.474 355.094 172.814 350.056 173.629 343.026L171.643 342.796C170.883 349.342 167.842 353.609 163.873 355.271L164.646 357.116ZM119.58 56.0487L113.903 58.4248L114.675 60.2697L120.352 57.8936L119.58 56.0487ZM121.187 59.8149L120.963 56.8948L118.969 57.0475L119.193 59.9676L121.187 59.8149ZM120.562 60.8197L120.576 60.8135L119.803 58.969L119.788 58.9752L120.562 60.8197ZM126.615 69.2808C123.777 67.644 121.469 63.7364 121.172 59.8218L119.178 59.9732C119.516 64.4334 122.113 68.9931 125.615 71.0132L126.615 69.2808ZM120.824 73.4456L126.501 71.0694L125.729 69.2245L120.052 71.6007L120.824 73.4456ZM113.501 62.3465C113.839 66.8046 116.436 71.3653 119.938 73.389L120.939 71.6573C118.1 70.0167 115.791 66.1072 115.495 62.1954L113.501 62.3465ZM114.126 61.3424L114.112 61.3485L114.884 63.1934L114.899 63.1873L114.126 61.3424ZM113.292 59.4236L113.515 62.3411L115.51 62.1886L115.286 59.271L113.292 59.4236ZM125.731 69.2245L120.054 71.6007L120.827 73.4456L126.503 71.0694L125.731 69.2245ZM156.329 86.4348L126.617 69.2809L125.617 71.013L155.329 88.1668L156.329 86.4348ZM150.539 90.5994L156.216 88.2233L155.443 86.3783L149.767 88.7545L150.539 90.5994ZM119.941 73.3892L149.653 90.543L150.653 88.8109L120.941 71.6571L119.941 73.3892ZM158.785 85.7494L164.462 83.3733L163.69 81.5284L158.013 83.9045L158.785 85.7494ZM176.891 94.35L158.899 83.9609L157.899 85.6929L175.891 96.082L176.891 94.35ZM181.681 91.9143L176.004 94.2938L176.777 96.1383L182.454 93.7588L181.681 91.9143ZM163.576 83.3169L181.567 93.7026L182.567 91.9705L164.576 81.5847L163.576 83.3169ZM197.464 124.908L197.463 124.908L198.225 126.758L198.225 126.757L197.464 124.908ZM173.624 343.024L198.838 125.948L196.851 125.717L171.638 342.793L173.624 343.024ZM167.34 346.207L173.017 343.831L172.245 341.986L166.568 344.362L167.34 346.207ZM191.174 128.097L165.961 345.169L167.948 345.4L193.161 128.328L191.174 128.097ZM191.78 127.291L191.779 127.291L192.554 129.135L192.555 129.134L191.78 127.291ZM193.16 128.328C193.903 121.924 192.446 114.95 189.526 108.842C186.607 102.737 182.183 97.4038 176.895 94.3506L175.895 96.0827C180.751 98.8865 184.931 103.868 187.721 109.704C190.51 115.538 191.865 122.133 191.173 128.097L193.16 128.328ZM176.781 96.1391L182.458 93.7629L181.685 91.918L176.009 94.2942L176.781 96.1391ZM181.571 93.7065C186.428 96.51 190.607 101.49 193.397 107.326C196.186 113.159 197.542 119.754 196.851 125.718L198.837 125.948C199.58 119.544 198.122 112.571 195.202 106.464C192.283 100.359 187.86 95.0273 182.571 91.9744L181.571 93.7065Z" fill="black" mask="url(#path-8-inside-1_4131_170882)"/>
<path d="M176.386 131.904L176.386 131.904C179.482 133.691 182.138 136.861 183.909 140.565C185.679 144.268 186.542 148.459 186.101 152.251L166.665 319.611C166.224 323.404 164.576 326.017 162.357 327.261C160.147 328.5 157.253 328.446 154.166 326.665L76.4228 281.781L76.1728 282.214L76.4228 281.781C73.3269 279.995 70.6706 276.827 68.8997 273.125C67.1296 269.425 66.2666 265.237 66.7077 261.444L66.211 261.386L66.7077 261.444L86.1441 94.084C86.1441 94.084 86.1441 94.084 86.1441 94.0839C86.5852 90.2912 88.2335 87.6752 90.4528 86.4289C92.6625 85.1879 95.556 85.2388 98.6433 87.0204C98.6434 87.0204 98.6434 87.0204 98.6434 87.0204L176.386 131.904Z" fill="#8EB6F8" stroke="black"/>
<path d="M89.1842 90.5626C87.7442 89.765 86.3143 89.3018 84.9477 89.1579C86.7229 88.5692 88.8308 88.7148 91.0695 89.7727L89.1842 90.5626Z" fill="black" stroke="black"/>
<mask id="path-12-inside-2_4131_170882" fill="white">
<path fill-rule="evenodd" clip-rule="evenodd" d="M92.2499 89.8242L89.1562 91.1191L166.902 136.006L169.993 134.711L92.2499 89.8242ZM152.13 332.583L155.212 331.292C157.987 330.128 159.999 327.196 160.498 322.915L160.508 322.91L179.943 155.556L179.957 155.55C180.865 147.744 176.403 138.41 169.995 134.712L166.905 136.007C173.307 139.703 177.768 149.032 176.868 156.836L176.854 156.842L157.415 324.2L157.408 324.203C156.911 328.484 154.902 331.42 152.13 332.583Z"/>
</mask>
<path fill-rule="evenodd" clip-rule="evenodd" d="M92.2499 89.8242L89.1562 91.1191L166.902 136.006L169.993 134.711L92.2499 89.8242ZM152.13 332.583L155.212 331.292C157.987 330.128 159.999 327.196 160.498 322.915L160.508 322.91L179.943 155.556L179.957 155.55C180.865 147.744 176.403 138.41 169.995 134.712L166.905 136.007C173.307 139.703 177.768 149.032 176.868 156.836L176.854 156.842L157.415 324.2L157.408 324.203C156.911 328.484 154.902 331.42 152.13 332.583Z" fill="black"/>
<path d="M89.1562 91.1191L88.7702 90.1966L86.9083 90.9759L88.6562 91.9851L89.1562 91.1191ZM92.2499 89.8242L92.75 88.9582L92.3209 88.7105L91.8639 88.9018L92.2499 89.8242ZM166.902 136.006L166.402 136.872L166.832 137.12L167.289 136.928L166.902 136.006ZM169.993 134.711L170.379 135.633L172.24 134.854L170.493 133.845L169.993 134.711ZM155.212 331.292L155.598 332.214L155.599 332.214L155.212 331.292ZM152.13 332.583L151.743 331.661L152.516 333.506L152.13 332.583ZM160.498 322.915L160.112 321.992L159.572 322.218L159.504 322.799L160.498 322.915ZM160.508 322.91L160.893 323.833L161.434 323.607L161.501 323.026L160.508 322.91ZM179.943 155.556L179.557 154.634L179.017 154.859L178.95 155.441L179.943 155.556ZM179.957 155.55L180.344 156.472L180.883 156.246L180.951 155.666L179.957 155.55ZM169.995 134.712L170.495 133.846L170.066 133.598L169.609 133.79L169.995 134.712ZM166.905 136.007L166.519 135.084L164.658 135.864L166.405 136.873L166.905 136.007ZM176.868 156.836L177.254 157.759L177.794 157.532L177.861 156.951L176.868 156.836ZM176.854 156.842L176.468 155.92L175.928 156.146L175.861 156.727L176.854 156.842ZM157.415 324.2L157.8 325.123L158.34 324.897L158.408 324.316L157.415 324.2ZM157.408 324.203L157.022 323.281L156.482 323.506L156.415 324.088L157.408 324.203ZM89.5423 92.0416L92.636 90.7467L91.8639 88.9018L88.7702 90.1966L89.5423 92.0416ZM167.402 135.14L89.6563 90.2531L88.6562 91.9851L166.402 136.872L167.402 135.14ZM169.606 133.789L166.516 135.084L167.289 136.928L170.379 135.633L169.606 133.789ZM91.7499 90.6902L169.493 135.577L170.493 133.845L92.75 88.9582L91.7499 90.6902ZM154.826 330.369L151.743 331.661L152.516 333.506L155.598 332.214L154.826 330.369ZM159.504 322.799C159.034 326.839 157.172 329.385 154.825 330.37L155.599 332.214C158.803 330.87 160.964 327.554 161.491 323.03L159.504 322.799ZM160.122 321.988L160.112 321.992L160.883 323.837L160.893 323.833L160.122 321.988ZM178.95 155.441L159.514 322.795L161.501 323.026L180.937 155.671L178.95 155.441ZM179.571 154.628L179.557 154.634L180.33 156.478L180.344 156.472L179.571 154.628ZM169.495 135.578C172.483 137.302 175.078 140.384 176.817 144.022C178.555 147.656 179.392 151.752 178.964 155.434L180.951 155.666C181.43 151.542 180.49 147.068 178.622 143.159C176.755 139.253 173.915 135.819 170.495 133.846L169.495 135.578ZM167.291 136.929L170.382 135.634L169.609 133.79L166.519 135.084L167.291 136.929ZM177.861 156.951C178.337 152.829 177.395 148.357 175.527 144.45C173.66 140.546 170.822 137.114 167.405 135.141L166.405 136.873C169.39 138.596 171.984 141.677 173.723 145.312C175.46 148.945 176.299 153.039 175.875 156.722L177.861 156.951ZM177.24 157.764L177.254 157.759L176.482 155.914L176.468 155.92L177.24 157.764ZM158.408 324.316L177.847 156.957L175.861 156.727L156.421 324.085L158.408 324.316ZM157.794 325.126L157.8 325.123L157.029 323.278L157.022 323.281L157.794 325.126ZM152.517 333.505C155.719 332.161 157.877 328.84 158.401 324.319L156.415 324.088C155.946 328.128 154.086 330.678 151.743 331.661L152.517 333.505Z" fill="black" mask="url(#path-12-inside-2_4131_170882)"/>
<path d="M166.644 136.436L166.644 136.436C169.74 138.223 172.396 141.393 174.167 145.097C175.937 148.8 176.8 152.991 176.359 156.784L156.923 324.143C156.482 327.936 154.833 330.549 152.614 331.793C150.405 333.032 147.511 332.979 144.423 331.197L66.6807 286.313L66.4307 286.746L66.6807 286.313C63.5848 284.527 60.9285 281.359 59.1576 277.657C57.3874 273.957 56.5244 269.769 56.9655 265.976L56.4688 265.918L56.9655 265.976L76.4054 98.6162C76.4054 98.6162 76.4054 98.6162 76.4054 98.6162C76.8465 94.8234 78.4947 92.2075 80.714 90.9611C82.9237 89.7201 85.8172 89.771 88.9045 91.5526C88.9045 91.5526 88.9046 91.5526 88.9046 91.5527L166.644 136.436Z" fill="url(#paint1_linear_4131_170882)" stroke="black"/>
<path d="M142.825 309.886L94.8976 282.213C94.377 281.913 93.893 282.183 93.8163 282.821L93.8063 282.908C93.7329 283.542 94.0967 284.306 94.6173 284.606L142.544 312.276C143.065 312.576 143.549 312.306 143.622 311.672L143.632 311.585C143.709 310.948 143.345 310.187 142.825 309.886Z" fill="#CFD8DB"/>
<path d="M148.69 166.572L148.69 166.572C149.423 166.995 150.051 166.978 150.501 166.725C150.961 166.467 151.354 165.895 151.461 164.972C151.569 164.044 151.357 163 150.911 162.068C150.464 161.134 149.803 160.357 149.061 159.929L148.69 166.572ZM148.69 166.572L98.0265 137.324C97.2819 136.894 96.6213 136.116 96.1753 135.181C95.7301 134.248 95.5211 133.206 95.63 132.282L95.6301 132.281C95.7376 131.351 96.1298 130.779 96.5875 130.523C97.0356 130.271 97.6637 130.255 98.4009 130.681C98.4009 130.681 98.4009 130.681 98.4009 130.681L149.061 159.929L148.69 166.572Z" fill="#FFA300" stroke="black"/>
<path d="M84.8453 150.063L84.8453 150.063L156.714 191.56L156.964 191.127L156.714 191.56C157.46 191.99 158.12 192.766 158.566 193.698C159.012 194.63 159.222 195.672 159.114 196.602C159.007 197.527 158.615 198.099 158.156 198.357C157.707 198.61 157.079 198.627 156.343 198.203L84.4743 156.706C83.7331 156.278 83.0724 155.5 82.6249 154.565C82.1783 153.631 81.9671 152.588 82.0744 151.664L82.0744 151.664C82.1818 150.736 82.575 150.165 83.0341 149.908C83.484 149.656 84.1124 149.64 84.8453 150.063Z" fill="#FFA300" stroke="black"/>
<path d="M82.7828 167.746L82.7828 167.746L154.652 209.238L154.902 208.805L154.652 209.238C155.397 209.669 156.057 210.444 156.504 211.378C156.949 212.309 157.159 213.353 157.052 214.284C156.944 215.209 156.552 215.781 156.094 216.039C155.645 216.292 155.017 216.31 154.281 215.885L82.4118 174.389C82.4118 174.389 82.4118 174.389 82.4118 174.389C81.6706 173.96 81.0099 173.182 80.5624 172.247C80.1158 171.314 79.9046 170.27 80.0119 169.346C80.1209 168.417 80.5144 167.846 80.9728 167.589C81.4218 167.337 82.0494 167.322 82.7828 167.746Z" fill="#FFA300" stroke="black"/>
<path d="M80.728 185.419L80.728 185.419C79.9951 184.996 79.3663 185.011 78.9163 185.263C78.4572 185.519 78.0645 186.088 77.9573 187.009L80.728 185.419ZM80.728 185.419L152.597 226.915M80.728 185.419L152.597 226.915M152.597 226.915L152.597 226.915C153.34 227.345 154 228.122 154.447 229.054C154.892 229.985 155.103 231.025 154.997 231.948L152.597 226.915ZM80.3571 192.052C80.3571 192.052 80.3571 192.052 80.3571 192.052L152.226 233.548C152.963 233.974 153.591 233.957 154.039 233.705C154.497 233.448 154.889 232.877 154.997 231.949L80.3571 192.052ZM80.3571 192.052C79.6156 191.624 78.9549 190.847 78.5077 189.913M80.3571 192.052L78.5077 189.913M78.5077 189.913C78.0613 188.98 77.8499 187.937 77.9572 187.01L78.5077 189.913Z" fill="#FFA300" stroke="black"/>
<path d="M78.3253 209.734L78.3258 209.734L135.003 242.457C135.741 242.882 136.369 242.866 136.817 242.615C137.275 242.358 137.667 241.787 137.774 240.857L137.774 240.857C137.882 239.932 137.672 238.889 137.226 237.956C136.78 237.022 136.119 236.244 135.374 235.814L135.624 235.381L135.374 235.814L78.6968 203.092L78.6967 203.092C77.9646 202.669 77.3363 202.685 76.8861 202.938C76.4264 203.197 76.0333 203.768 75.926 204.692L78.3253 209.734ZM78.3253 209.734C77.5842 209.308 76.9237 208.532 76.4764 207.598M78.3253 209.734L76.4764 207.598M76.4764 207.598C76.0301 206.666 75.8186 205.621 75.926 204.692L76.4764 207.598Z" fill="#FFA300" stroke="black"/>
<path d="M148.504 262.269L148.504 262.268L76.6344 220.772L76.6343 220.772C75.9022 220.349 75.2739 220.366 74.8236 220.619C74.3639 220.877 73.9708 221.449 73.8635 222.372L148.504 262.269ZM148.504 262.269C149.248 262.697 149.909 263.474 150.355 264.408C150.801 265.341 151.011 266.385 150.903 267.311L150.903 267.311M148.504 262.269L150.903 267.311M150.903 267.311C150.796 268.241 150.404 268.813 149.946 269.069C149.498 269.321 148.87 269.337 148.132 268.911L76.2634 227.415C76.2634 227.415 76.2633 227.415 76.2633 227.415M150.903 267.311L76.2633 227.415M76.2633 227.415C75.5218 226.987 74.8612 226.21 74.4139 225.276M76.2633 227.415L74.4139 225.276M74.4139 225.276C73.9675 224.344 73.7561 223.3 73.8635 222.373L74.4139 225.276Z" fill="#FFA300" stroke="black"/>
<path d="M98.3538 255.837L98.3539 255.836C98.4612 254.912 98.25 253.869 97.8033 252.935C97.3559 252 96.6952 251.222 95.954 250.794C95.954 250.794 95.954 250.794 95.954 250.794L74.5719 238.449L74.5718 238.449C73.8397 238.026 73.2114 238.043 72.7611 238.296C72.3014 238.554 71.9083 239.126 71.801 240.049L98.3538 255.837ZM98.3538 255.837C98.2465 256.764 97.8532 257.335 97.3942 257.592C96.9444 257.844 96.316 257.86 95.5831 257.437L95.583 257.437M98.3538 255.837L95.583 257.437M95.583 257.437L74.2009 245.092C74.2009 245.092 74.2008 245.092 74.2008 245.092M95.583 257.437L74.2008 245.092M74.2008 245.092C73.4593 244.664 72.7987 243.887 72.3514 242.953M74.2008 245.092L72.3514 242.953M72.3514 242.953C71.905 242.02 71.6936 240.977 71.801 240.049L72.3514 242.953Z" fill="#FFA300" stroke="black"/>
<path d="M94.3579 282.483L143.234 310.7L143.082 312.007L94.2064 283.791L94.3579 282.483Z" fill="black" stroke="black"/>
<path d="M84.1407 71.5595L78.8417 74.6186L78.9669 74.0048L79.1117 73.2947L78.3965 73.4114C75.8751 73.8228 73.0381 74.0544 70.8248 74.1829C69.7196 74.247 68.7729 74.2853 68.1028 74.3076C67.7678 74.3187 67.502 74.3258 67.3203 74.3302C67.3005 74.3306 67.2817 74.3311 67.264 74.3315C67.2355 74.3005 67.203 74.2651 67.1668 74.2254C67.0041 74.0471 66.7646 73.7815 66.4592 73.4338C65.8485 72.7385 64.9747 71.7155 63.9254 70.4083C61.8264 67.7934 59.0274 64.0439 56.2288 59.5075C50.6243 50.4226 45.0565 38.2375 45.0565 25.714V10.5993V10.4078L44.9286 10.2653L39.0729 3.74235L44.5153 0.599317C56.112 9.41121 61.458 12.3396 66.8034 13.798C72.1439 18.4972 81.1452 23.8715 92.8181 28.4938V53.8743C92.8181 58.9967 91.8075 62.8048 90.23 65.6307C88.6543 68.4534 86.4977 70.3236 84.1586 71.5497L84.1496 71.5545L84.1407 71.5595Z" fill="#709BFF" stroke="black"/>
<path d="M66.9929 13.958C72.2548 18.5348 80.9518 23.7259 92.1805 28.2367L86.9661 31.2481L72.0077 28.7339L61.5724 17.0883L66.9929 13.958Z" fill="#85A8FF" stroke="black"/>
<path d="M39.2199 3.65684L39.2203 3.65664L44.5153 0.599298C55.373 8.84968 60.7513 11.9425 65.7799 13.5002L60.6489 16.4633L47.6279 16.4407L39.0053 3.78099L39.2199 3.65684Z" fill="#A1BDFF" stroke="black"/>
<path d="M61.1439 78.007C61.1011 78.0012 61.0629 77.996 61.0296 77.9913C60.994 77.9527 60.9505 77.9053 60.8993 77.8493C60.7366 77.671 60.4971 77.4053 60.1918 77.0577C59.5811 76.3624 58.7072 75.3394 57.6579 74.0322C55.5589 71.4173 52.7599 67.6678 49.9614 63.1314C44.3568 54.0465 38.7891 41.8614 38.7891 29.3379V4.62445C50.0151 13.1195 55.2806 15.9763 60.5391 17.4151C65.8797 22.1143 74.8842 27.4887 86.5539 32.111V57.4948C86.5539 63.7349 84.9371 68.0959 82.555 71.1447C80.1701 74.1972 76.9831 75.9792 73.7676 76.9957C70.5495 78.0129 67.3214 78.2572 64.8901 78.2447C63.6762 78.2385 62.6654 78.1682 61.9597 78.0998C61.607 78.0657 61.3308 78.0319 61.1439 78.007Z" fill="#D3E1FC" stroke="black"/>
<mask id="path-28-inside-3_4131_170882" fill="white">
<path fill-rule="evenodd" clip-rule="evenodd" d="M66.0095 75.2843C67.5585 75.1807 69.2442 74.9285 70.9191 74.4235C78.2545 72.2109 83.9913 65.1658 83.9913 55.7779V34.4258C82.2626 33.5914 80.5706 32.697 78.9253 31.7459C76.8074 30.5236 74.6664 29.3642 72.6006 28.2456C67.8079 25.6503 63.42 23.2743 60.6635 20.8395C58.0191 20.1208 55.6827 18.6599 52.3077 16.5497C50.6523 15.5146 48.7471 14.3234 46.4331 12.9868C44.7879 12.0357 43.0926 10.9778 41.3672 9.81641V31.1685C41.3672 40.5564 43.0692 51.8966 50.4079 62.5794C54.4565 68.4821 58.5684 72.9719 60.6589 75.1197V75.1265C61.8838 75.2793 63.8083 75.4322 66.0095 75.2843Z"/>
</mask>
<path fill-rule="evenodd" clip-rule="evenodd" d="M66.0095 75.2843C67.5585 75.1807 69.2442 74.9285 70.9191 74.4235C78.2545 72.2109 83.9913 65.1658 83.9913 55.7779V34.4258C82.2626 33.5914 80.5706 32.697 78.9253 31.7459C76.8074 30.5236 74.6664 29.3642 72.6006 28.2456C67.8079 25.6503 63.42 23.2743 60.6635 20.8395C58.0191 20.1208 55.6827 18.6599 52.3077 16.5497C50.6523 15.5146 48.7471 14.3234 46.4331 12.9868C44.7879 12.0357 43.0926 10.9778 41.3672 9.81641V31.1685C41.3672 40.5564 43.0692 51.8966 50.4079 62.5794C54.4565 68.4821 58.5684 72.9719 60.6589 75.1197V75.1265C61.8838 75.2793 63.8083 75.4322 66.0095 75.2843Z" fill="#0DBF8D"/>
<path d="M66.0095 75.2843L65.9428 74.2866L65.9425 74.2866L66.0095 75.2843ZM70.9191 74.4235L71.2077 75.3809L71.2078 75.3809L70.9191 74.4235ZM83.9913 34.4258H84.9913V33.798L84.4259 33.5252L83.9913 34.4258ZM78.9253 31.7459L79.4258 30.8802L79.4252 30.8798L78.9253 31.7459ZM72.6006 28.2456L72.1244 29.1249L72.6006 28.2456ZM60.6635 20.8395L61.3255 20.09L61.1508 19.9357L60.9258 19.8746L60.6635 20.8395ZM52.3077 16.5497L52.8378 15.7018L52.8378 15.7018L52.3077 16.5497ZM46.4331 12.9868L45.9327 13.8526L45.933 13.8528L46.4331 12.9868ZM41.3672 9.81641L41.9256 8.98683L40.3672 7.93785V9.81641H41.3672ZM50.4079 62.5794L51.2326 62.0137L51.2322 62.0131L50.4079 62.5794ZM60.6589 75.1197H61.6589V74.7133L61.3755 74.4221L60.6589 75.1197ZM60.6589 75.1265H59.6589V76.0094L60.5351 76.1188L60.6589 75.1265ZM66.0763 76.2821C67.6827 76.1747 69.4453 75.9123 71.2077 75.3809L70.6304 73.4661C69.043 73.9446 67.4343 74.1868 65.9428 74.2866L66.0763 76.2821ZM71.2078 75.3809C78.9765 73.0376 84.9913 65.5952 84.9913 55.7779H82.9913C82.9913 64.7363 77.5324 71.3842 70.6303 73.4661L71.2078 75.3809ZM84.9913 55.7779V34.4258H82.9913V55.7779H84.9913ZM84.4259 33.5252C82.7191 32.7014 81.0491 31.8186 79.4258 30.8802L78.4249 32.6117C80.0921 33.5755 81.806 34.4815 83.5566 35.3263L84.4259 33.5252ZM79.4252 30.8798C77.2935 29.6496 75.1407 28.4839 73.0767 27.3662L72.1244 29.1249C74.192 30.2446 76.3212 31.3976 78.4255 32.612L79.4252 30.8798ZM73.0767 27.3662C68.2428 24.7486 63.9764 22.4315 61.3255 20.09L60.0015 21.589C62.8636 24.117 67.373 26.552 72.1244 29.1249L73.0767 27.3662ZM60.9258 19.8746C58.4525 19.2023 56.2483 17.8342 52.8378 15.7018L51.7775 17.3976C55.1171 19.4857 57.5857 21.0393 60.4012 21.8045L60.9258 19.8746ZM52.8378 15.7018C51.1825 14.6667 49.264 13.4671 46.9333 12.1209L45.933 13.8528C48.2302 15.1796 50.1222 16.3625 51.7775 17.3976L52.8378 15.7018ZM46.9336 12.1211C45.3087 11.1817 43.6327 10.1359 41.9256 8.98683L40.8088 10.646C42.5524 11.8197 44.267 12.8897 45.9327 13.8526L46.9336 12.1211ZM40.3672 9.81641V31.1685H42.3672V9.81641H40.3672ZM40.3672 31.1685C40.3672 40.6754 42.091 52.2388 49.5837 63.1456L51.2322 62.0131C44.0473 51.5545 42.3672 40.4374 42.3672 31.1685H40.3672ZM49.5833 63.145C53.6738 69.109 57.8263 73.6432 59.9424 75.8172L61.3755 74.4221C59.3104 72.3006 55.2392 67.8553 51.2326 62.0137L49.5833 63.145ZM59.6589 75.1197V75.1265H61.6589V75.1197H59.6589ZM60.5351 76.1188C61.8031 76.277 63.7942 76.4354 66.0765 76.2821L65.9425 74.2866C63.8225 74.429 61.9645 74.2817 60.7828 74.1342L60.5351 76.1188Z" fill="black" mask="url(#path-28-inside-3_4131_170882)"/>
<mask id="path-30-inside-4_4131_170882" fill="white">
<path fill-rule="evenodd" clip-rule="evenodd" d="M48.9219 56.4999L48.9685 38.0039C48.9679 38.7962 49.4885 39.5879 50.5305 40.1871L50.4837 58.6892C49.4391 58.0885 48.9186 57.2942 48.9219 56.4999ZM70.4545 42.5485L70.4078 61.0506C70.4044 61.8348 69.8939 62.6158 68.8726 63.2098V63.2095L67.358 64.0883L67.4048 45.5896L68.9232 44.7052V44.7055C69.9419 44.1117 70.4512 43.3318 70.4545 42.5485ZM59.8943 45.5929L59.8943 45.5908L50.5431 40.1877L50.493 58.6898L59.8452 64.0882L59.8451 64.0936C61.9176 65.2884 65.2983 65.2917 67.3575 64.0936L67.4042 45.5915C65.3459 46.7858 61.967 46.7863 59.8943 45.5929Z"/>
</mask>
<path fill-rule="evenodd" clip-rule="evenodd" d="M48.9219 56.4999L48.9685 38.0039C48.9679 38.7962 49.4885 39.5879 50.5305 40.1871L50.4837 58.6892C49.4391 58.0885 48.9186 57.2942 48.9219 56.4999ZM70.4545 42.5485L70.4078 61.0506C70.4044 61.8348 69.8939 62.6158 68.8726 63.2098V63.2095L67.358 64.0883L67.4048 45.5896L68.9232 44.7052V44.7055C69.9419 44.1117 70.4512 43.3318 70.4545 42.5485ZM59.8943 45.5929L59.8943 45.5908L50.5431 40.1877L50.493 58.6898L59.8452 64.0882L59.8451 64.0936C61.9176 65.2884 65.2983 65.2917 67.3575 64.0936L67.4042 45.5915C65.3459 46.7858 61.967 46.7863 59.8943 45.5929Z" fill="#FFAF19"/>
<path d="M48.9685 38.0039L49.3685 38.0042L48.5685 38.0029L48.9685 38.0039ZM48.9219 56.4999L49.3219 56.5016L49.3219 56.5009L48.9219 56.4999ZM50.5305 40.1871L50.9305 40.1881L50.931 39.9561L50.7299 39.8404L50.5305 40.1871ZM50.4837 58.6892L50.2843 59.0359L50.882 59.3796L50.8837 58.6902L50.4837 58.6892ZM70.4078 61.0506L70.8078 61.0523L70.8078 61.0516L70.4078 61.0506ZM70.4545 42.5485L70.8545 42.5495L70.0545 42.5468L70.4545 42.5485ZM68.8726 63.2098H68.4726V63.9052L69.0738 63.5556L68.8726 63.2098ZM68.8726 63.2095H69.2726V62.5149L68.6719 62.8635L68.8726 63.2095ZM67.358 64.0883L66.958 64.0873L66.9563 64.7839L67.5588 64.4343L67.358 64.0883ZM67.4048 45.5896L67.2034 45.2439L67.0053 45.3593L67.0048 45.5886L67.4048 45.5896ZM68.9232 44.7052H69.3232V44.0093L68.7219 44.3596L68.9232 44.7052ZM68.9232 44.7055H68.5232V45.4017L69.1246 45.0511L68.9232 44.7055ZM59.8943 45.5929L59.4943 45.5918L59.4936 45.8238L59.6947 45.9395L59.8943 45.5929ZM59.8943 45.5908L60.2943 45.5919L60.2949 45.3603L60.0944 45.2444L59.8943 45.5908ZM50.5431 40.1877L50.7432 39.8413L50.145 39.4957L50.1431 40.1866L50.5431 40.1877ZM50.493 58.6898L50.093 58.6887L50.0924 58.9204L50.293 59.0362L50.493 58.6898ZM59.8452 64.0882L60.2452 64.0891L60.2457 63.8575L60.0451 63.7417L59.8452 64.0882ZM59.8451 64.0936L59.4451 64.0926L59.4446 64.3244L59.6454 64.4401L59.8451 64.0936ZM67.3575 64.0936L67.5586 64.4393L67.7569 64.324L67.7575 64.0946L67.3575 64.0936ZM67.4042 45.5915L67.8042 45.5925L67.806 44.8959L67.2035 45.2455L67.4042 45.5915ZM48.5685 38.0029L48.5219 56.4989L49.3219 56.5009L49.3685 38.0049L48.5685 38.0029ZM50.7299 39.8404C49.7624 39.284 49.368 38.6038 49.3685 38.0042L48.5685 38.0036C48.5677 38.9885 49.2147 39.8919 50.3311 40.5339L50.7299 39.8404ZM50.8837 58.6902L50.9305 40.1881L50.1305 40.1861L50.0837 58.6882L50.8837 58.6902ZM48.5219 56.4982C48.5177 57.4859 49.1651 58.3923 50.2843 59.0359L50.6831 58.3424C49.7132 57.7847 49.3194 57.1025 49.3219 56.5016L48.5219 56.4982ZM70.8078 61.0516L70.8545 42.5495L70.0545 42.5475L70.0078 61.0496L70.8078 61.0516ZM69.0738 63.5556C70.1699 62.918 70.8036 62.026 70.8078 61.0523L70.0078 61.0489C70.0053 61.6436 69.6179 62.3136 68.6715 62.864L69.0738 63.5556ZM68.4726 63.2095V63.2098H69.2726V63.2095H68.4726ZM67.5588 64.4343L69.0734 63.5555L68.6719 62.8635L67.1573 63.7424L67.5588 64.4343ZM67.0048 45.5886L66.958 64.0873L67.758 64.0893L67.8048 45.5906L67.0048 45.5886ZM68.7219 44.3596L67.2034 45.2439L67.6061 45.9352L69.1245 45.0509L68.7219 44.3596ZM69.3232 44.7055V44.7052H68.5232V44.7055H69.3232ZM70.0545 42.5468C70.052 43.1409 69.6656 43.8098 68.7218 44.3599L69.1246 45.0511C70.2182 44.4137 70.8504 43.5227 70.8545 42.5502L70.0545 42.5468ZM60.2943 45.594L60.2943 45.5919L59.4943 45.5897L59.4943 45.5918L60.2943 45.594ZM60.0944 45.2444L50.7432 39.8413L50.343 40.534L59.6942 45.9371L60.0944 45.2444ZM50.1431 40.1866L50.093 58.6887L50.893 58.6908L50.9431 40.1888L50.1431 40.1866ZM50.293 59.0362L59.6452 64.4346L60.0451 63.7417L50.693 58.3433L50.293 59.0362ZM60.2451 64.0946L60.2452 64.0891L59.4452 64.0872L59.4451 64.0926L60.2451 64.0946ZM67.1563 63.7479C66.2028 64.3026 64.917 64.5913 63.6064 64.5909C62.2961 64.5905 61.006 64.3011 60.0449 63.7471L59.6454 64.4401C60.7568 65.0809 62.1933 65.3905 63.6062 65.3909C65.0189 65.3914 66.453 65.0827 67.5586 64.4393L67.1563 63.7479ZM67.0042 45.5905L66.9575 64.0926L67.7575 64.0946L67.8042 45.5925L67.0042 45.5905ZM59.6947 45.9395C60.8063 46.5796 62.2424 46.8878 63.6547 46.8876C65.0668 46.8873 66.4999 46.5787 67.605 45.9375L67.2035 45.2455C66.2502 45.7987 64.9647 46.0874 63.6546 46.0876C62.3446 46.0878 61.0549 45.7996 60.0939 45.2462L59.6947 45.9395Z" fill="black" mask="url(#path-30-inside-4_4131_170882)"/>
<path d="M68.8301 44.5329L68.83 44.5329L67.3117 45.4173C67.3117 45.4173 67.3116 45.4173 67.3116 45.4173C66.3201 45.9942 64.9972 46.2879 63.6612 46.2875C62.3252 46.2871 60.9986 45.9926 59.9999 45.4169C59.9999 45.4169 59.9999 45.4169 59.9998 45.4169L50.6454 40.0172L50.6453 40.0171C49.646 39.441 49.1881 38.7087 49.1844 38.0163C49.1807 37.3243 49.6304 36.5921 50.6226 36.0148C50.6226 36.0148 50.6226 36.0147 50.6227 36.0147L52.1409 35.1338C53.1326 34.5584 54.4549 34.2639 55.7901 34.2635C57.1252 34.2631 58.4509 34.5567 59.4494 35.1339L59.4496 35.1341L68.8075 40.5272C69.8067 41.1032 70.2647 41.8363 70.2684 42.5296C70.272 43.2226 69.8222 43.9556 68.8301 44.5329Z" fill="#FFE359" stroke="black" stroke-width="0.4"/>
<path d="M59.6199 26.73L59.6201 26.7302L60.7079 27.3575C62.2624 28.2555 63.6613 29.7643 64.6719 31.5081C65.6825 33.252 66.2931 35.2106 66.2931 36.9961L66.2931 42.8698L66.2931 42.8711C66.2941 43.0571 66.1622 43.2735 65.8444 43.4572C65.5332 43.6371 65.086 43.756 64.5782 43.7545C64.0716 43.7529 63.6244 43.6332 63.3112 43.4532C62.9921 43.2698 62.8555 43.0537 62.8517 42.8676V42.8631V36.9961C62.8517 35.7991 62.3951 34.4333 61.6945 33.227C60.9937 32.0206 60.0306 30.9425 58.9857 30.3387L58.9855 30.3385L57.8975 29.7111L57.8971 29.7109C57.542 29.5069 57.2201 29.3847 56.952 29.3295C56.6992 29.2774 56.4457 29.2752 56.2674 29.3767L56.267 29.3769C56.09 29.478 55.9682 29.6961 55.8899 29.9337C55.8065 30.1867 55.7539 30.5177 55.7539 30.9155L55.7539 36.7892L55.7539 36.7906C55.7549 36.9765 55.623 37.1929 55.3051 37.3766C54.9939 37.5565 54.5467 37.6755 54.0389 37.6739C53.5323 37.6723 53.0851 37.5526 52.7719 37.3726C52.4529 37.1892 52.3163 36.9731 52.3125 36.787V30.9155C52.3125 28.8374 53.1453 27.205 54.5469 26.3965L54.547 26.3964C55.9585 25.5814 57.7999 25.6776 59.6199 26.73Z" fill="#090909" stroke="black" stroke-width="0.5"/>
<path d="M55.5589 29.569C55.6935 29.5044 55.8793 29.4878 56.108 29.5196C56.0187 29.6302 55.9505 29.7748 55.9002 29.9273C55.8168 30.1803 55.7642 30.5113 55.7642 30.9091L55.7642 36.7828L55.7642 36.7842C55.7652 36.9624 55.6458 37.1661 55.3566 37.3442C55.1255 37.4865 54.8102 37.5944 54.4453 37.6399V37.6336V37.6206V37.6076V37.5947V37.5818V37.5689V37.5561V37.5432V37.5304V37.5176V37.5048V37.4921V37.4793V37.4666V37.4539V37.4412V37.4286V37.4159V37.4033V37.3907V37.3781V37.3656V37.353V37.3405V37.328V37.3155V37.3031V37.2906V37.2782V37.2658V37.2534V37.2411V37.2287V37.2164V37.2041V37.1918V37.1796V37.1673V37.1551V37.1429V37.1307V37.1185V37.1064V37.0942V37.0821V37.07V37.0579V37.0459V37.0338V37.0218V37.0098V36.9978V36.9859V36.9739V36.962V36.9501V36.9382V36.9263V36.9144V36.9026V36.8908V36.879V36.8672V36.8554V36.8437V36.8319V36.8202V36.8085V36.7968V36.7851V36.7735V36.7619V36.7502V36.7386V36.7271V36.7155V36.704V36.6924V36.6809V36.6694V36.6579V36.6465V36.635V36.6236V36.6122V36.6008V36.5894V36.578V36.5667V36.5553V36.544V36.5327V36.5214V36.5101V36.4989V36.4877V36.4764V36.4652V36.454V36.4428V36.4317V36.4205V36.4094V36.3983V36.3872V36.3761V36.365V36.354V36.3429V36.3319V36.3209V36.3099V36.2989V36.288V36.277V36.2661V36.2551V36.2442V36.2333V36.2225V36.2116V36.2007V36.1899V36.1791V36.1683V36.1575V36.1467V36.1359V36.1252V36.1144V36.1037V36.093V36.0823V36.0716V36.0609V36.0503V36.0396V36.029V36.0184V36.0078V35.9972V35.9866V35.976V35.9655V35.955V35.9444V35.9339V35.9234V35.9129V35.9024V35.892V35.8815V35.8711V35.8607V35.8503V35.8398V35.8295V35.8191V35.8087V35.7984V35.788V35.7777V35.7674V35.7571V35.7468V35.7365V35.7262V35.716V35.7057V35.6955V35.6853V35.675V35.6648V35.6546V35.6445V35.6343V35.6241V35.614V35.6039V35.5937V35.5836V35.5735V35.5634V35.5533V35.5433V35.5332V35.5232V35.5131V35.5031V35.4931V35.4831V35.4731V35.4631V35.4531V35.4431V35.4332V35.4232V35.4133V35.4034V35.3935V35.3835V35.3736V35.3638V35.3539V35.344V35.3341V35.3243V35.3145V35.3046V35.2948V35.285V35.2752V35.2654V35.2556V35.2458V35.236V35.2263V35.2165V35.2068V35.197V35.1873V35.1776V35.1679V35.1582V35.1485V35.1388V35.1291V35.1195V35.1098V35.1002V35.0905V35.0809V35.0713V35.0616V35.052V35.0424V35.0328V35.0232V35.0136V35.0041V34.9945V34.9849V34.9754V34.9658V34.9563V34.9468V34.9372V34.9277V34.9182V34.9087V34.8992V34.8897V34.8802V34.8708V34.8613V34.8518V34.8424V34.8329V34.8235V34.814V34.8046V34.7952V34.7858V34.7764V34.767V34.7576V34.7482V34.7388V34.7294V34.72V34.7106V34.7013V34.6919V34.6826V34.6732V34.6639V34.6545V34.6452V34.6359V34.6265V34.6172V34.6079V34.5986V34.5893V34.58V34.5707V34.5614V34.5521V34.5428V34.5336V34.5243V34.515V34.5058V34.4965V34.4873V34.478V34.4688V34.4595V34.4503V34.4411V34.4318V34.4226V34.4134V34.4042V34.395V34.3858V34.3766V34.3674V34.3582V34.349V34.3398V34.3306V34.3214V34.3122V34.303V34.2939V34.2847V34.2755V34.2664V34.2572V34.248V34.2389V34.2297V34.2206V34.2114V34.2023V34.1931V34.184V34.1748V34.1657V34.1566V34.1474V34.1383V34.1292V34.1201V34.1109V34.1018V34.0927V34.0836V34.0744V34.0653V34.0562V34.0471V34.038V34.0289V34.0198V34.0107V34.0016V33.9925V33.9834V33.9742V33.9651V33.956V33.9469V33.9379V33.9288V33.9197V33.9106V33.9015V33.8924V33.8833V33.8742V33.8651V33.856V33.8469V33.8378V33.8287V33.8196V33.8105V33.8014V33.7923V33.7833V33.7742V33.7651V33.756V33.7469V33.7378V33.7287V33.7196V33.7105V33.7014V33.6923V33.6832V33.6741V33.665V33.6559V33.6468V33.6377V33.6286V33.6195V33.6104V33.6013V33.5922V33.5831V33.574V33.5649V33.5558V33.5466V33.5375V33.5284V33.5193V33.5102V33.501V33.4919V33.4828V33.4737V33.4645V33.4554V33.4463V33.4371V33.428V33.4188V33.4097V33.4005V33.3914V33.3822V33.3731V33.3639V33.3548V33.3456V33.3364V33.3273V33.3181V33.3089V33.2997V33.2905V33.2814V33.2722V33.263V33.2538V33.2446V33.2354V33.2262V33.217V33.2078V33.1985V33.1893V33.1801V33.1709V33.1616V33.1524V33.1431V33.1339V33.1247V33.1154V33.1061V33.0969V33.0876V33.0783V33.0691V33.0598V33.0505V33.0412V33.0319V33.0226V33.0133V33.004V32.9947V32.9854V32.976V32.9667V32.9574V32.948V32.9387V32.9293V32.92V32.9106V32.9012V32.8919V32.8825V32.8731V32.8637V32.8543V32.8449V32.8355V32.8261V32.8167V32.8072V32.7978V32.7884V32.7789V32.7695V32.76V32.7506V32.7411V32.7316V32.7221V32.7126V32.7031V32.6936V32.6841V32.6746C54.4453 31.4251 54.5608 30.7355 54.7512 30.3168C54.9302 29.9233 55.1829 29.7516 55.5589 29.569Z" fill="#8D8D8D" stroke="black" stroke-width="0.5"/>
<path d="M54.4545 51.6398L54.4805 51.4349L54.3543 51.2715C53.7504 50.4888 53.3672 49.5053 53.3672 48.6868C53.3672 48.0576 53.5856 47.7488 53.7957 47.6289C54.0072 47.5083 54.3894 47.4766 54.9397 47.7948C55.4871 48.1113 56.0111 48.6729 56.3993 49.3426C56.7876 50.0125 57.0127 50.7433 57.0127 51.37C57.0127 51.7729 56.9199 52.0485 56.8014 52.2195C56.6889 52.3819 56.5389 52.4734 56.3507 52.5003L55.8715 52.5688L55.9244 53.0499L56.2014 55.5695L56.2015 55.5696L56.444 57.7787L53.8655 56.2894L54.4545 51.6398Z" fill="#767676" stroke="black"/>
<path d="M54.1266 55.7498L54.0848 56.0794L54.3725 56.2456L56.4062 57.4206L56.4463 57.7821L53.8689 56.2934L54.4579 51.6438L54.4838 51.4388L54.3575 51.2753C53.7501 50.489 53.3672 49.5056 53.3672 48.6908C53.3672 48.2136 53.4957 47.9175 53.6438 47.7568C53.6519 47.748 53.6602 47.7395 53.6687 47.7311C53.6643 47.8004 53.6621 47.8712 53.6621 47.9433C53.6621 48.9683 54.0961 50.08 54.7321 50.9697L54.1266 55.7498Z" fill="#9C6600" stroke="black"/>
<path d="M56.4144 57.4215L56.4545 57.7834L54.3361 56.5609L54.6307 56.3909L56.4144 57.4215Z" fill="#9C6600" stroke="black"/>
<path d="M53.9585 55.6235L54.4316 51.8866L54.639 51.7669L54.1659 55.5037L53.9585 55.6235Z" fill="#9C6600" stroke="black"/>
<path d="M39.0312 375.5C33.6078 378.631 24.7884 378.617 19.3303 375.466C13.8723 372.314 13.845 367.223 19.2684 364.092C24.6918 360.96 33.5113 360.978 38.9693 364.126C44.4249 367.277 44.4521 372.369 39.0312 375.5Z" fill="#C2C5CD"/>
<path d="M1.63371 254.88C1.63371 254.88 1.04457 256.192 0.5 257.093C0.631191 258.425 2.37629 265.583 3.91592 269.086C5.45556 272.588 8.21299 278.249 8.24022 279.962C8.26745 281.675 8.21299 284.824 8.24022 285.487C8.26497 286.15 10.1413 288.455 10.1413 288.455L16.3865 286.168L13.473 273.591L8.70313 258.256L1.63371 254.88Z" fill="#FF9C78"/>
<path d="M15.1483 363.791C15.0889 363.897 13.0666 365.098 12.7918 366.189C12.517 367.281 12.5839 369.274 12.621 369.662C12.6581 370.051 14.522 371.469 17.3166 371.331C20.1137 371.192 22.8539 367.682 22.8539 367.682C22.8539 367.682 23.1559 366.095 23.594 365.618C24.0322 365.142 24.9059 364.219 26.75 364.365C28.5941 364.511 33.8591 361.375 33.9235 360.105C33.9853 358.838 30.2501 357.853 30.2501 357.853L15.1483 363.791Z" fill="#212430"/>
<path d="M15.5648 359.973C14.7257 360.733 14.3074 361.956 13.7802 363.117C13.253 364.277 13.3891 366.55 13.4262 366.938C13.4609 367.327 14.6911 368.713 17.659 368.473C20.6268 368.233 23.0031 364.565 24.8769 363.676C26.7507 362.787 32.8523 359.555 32.8523 359.555L32.033 355.426L24.5675 355L15.5648 359.973Z" fill="black"/>
<mask id="path-43-inside-5_4131_170882" fill="white">
<path fill-rule="evenodd" clip-rule="evenodd" d="M23.7595 269.599C23.9544 269.647 24.1283 269.689 24.2784 269.723C24.2784 269.723 27.818 289.771 28.3477 293.556C28.8246 296.947 26.2192 316.753 23.774 323.85C23.9404 327.48 25.2237 355.588 25.145 357.186C25.1408 357.27 25.1371 357.355 25.1333 357.44C25.0605 359.074 24.9833 360.809 22.0633 362.503C18.9914 364.285 14.1374 364.102 14.2364 362.117C14.2915 361.011 13.3898 356.725 12.4361 352.191C11.6768 348.582 10.8846 344.816 10.516 342.374C9.88019 338.162 10.4422 333.233 10.9633 328.663C11.1208 327.282 11.2746 325.934 11.3904 324.647C11.3891 324.622 11.3888 324.596 11.3895 324.571C11.4021 324.096 11.5198 323.045 11.6801 321.612C12.339 315.726 13.7186 303.403 11.4909 298.137C8.72107 291.59 7.97851 287.632 10.0652 276.867C12.0299 266.731 20.6196 268.831 23.7595 269.599Z"/>
</mask>
<path fill-rule="evenodd" clip-rule="evenodd" d="M23.7595 269.599C23.9544 269.647 24.1283 269.689 24.2784 269.723C24.2784 269.723 27.818 289.771 28.3477 293.556C28.8246 296.947 26.2192 316.753 23.774 323.85C23.9404 327.48 25.2237 355.588 25.145 357.186C25.1408 357.27 25.1371 357.355 25.1333 357.44C25.0605 359.074 24.9833 360.809 22.0633 362.503C18.9914 364.285 14.1374 364.102 14.2364 362.117C14.2915 361.011 13.3898 356.725 12.4361 352.191C11.6768 348.582 10.8846 344.816 10.516 342.374C9.88019 338.162 10.4422 333.233 10.9633 328.663C11.1208 327.282 11.2746 325.934 11.3904 324.647C11.3891 324.622 11.3888 324.596 11.3895 324.571C11.4021 324.096 11.5198 323.045 11.6801 321.612C12.339 315.726 13.7186 303.403 11.4909 298.137C8.72107 291.59 7.97851 287.632 10.0652 276.867C12.0299 266.731 20.6196 268.831 23.7595 269.599Z" fill="#252C45"/>
<path d="M24.2784 269.723L25.2631 269.55L25.1477 268.896L24.5003 268.748L24.2784 269.723ZM23.7595 269.599L23.997 268.628L23.7595 269.599ZM28.3477 293.556L27.3574 293.694L27.3574 293.695L28.3477 293.556ZM23.774 323.85L22.8286 323.524L22.7663 323.705L22.7751 323.896L23.774 323.85ZM25.145 357.186L24.1462 357.137L24.1462 357.137L25.145 357.186ZM25.1333 357.44L24.1343 357.396L24.1343 357.396L25.1333 357.44ZM22.0633 362.503L21.5614 361.638L22.0633 362.503ZM14.2364 362.117L15.2352 362.166L14.2364 362.117ZM12.4361 352.191L11.4575 352.397L12.4361 352.191ZM10.516 342.374L11.5048 342.224L10.516 342.374ZM10.9633 328.663L9.96977 328.549L10.9633 328.663ZM11.3904 324.647L12.3864 324.737L12.3927 324.667L12.3891 324.597L11.3904 324.647ZM11.3895 324.571L12.3891 324.598L12.3891 324.598L11.3895 324.571ZM11.6801 321.612L12.6739 321.723L11.6801 321.612ZM11.4909 298.137L10.57 298.527H10.57L11.4909 298.137ZM10.0652 276.867L9.08346 276.677L10.0652 276.867ZM24.5003 268.748C24.3597 268.716 24.1943 268.676 23.997 268.628L23.522 270.571C23.7146 270.618 23.897 270.662 24.0565 270.699L24.5003 268.748ZM29.3381 293.417C29.0703 291.504 28.0491 285.525 27.0997 280.049C26.624 277.306 26.1648 274.681 25.8247 272.742C25.6546 271.773 25.5142 270.975 25.4163 270.419C25.3674 270.141 25.3291 269.924 25.303 269.776C25.29 269.702 25.28 269.645 25.2733 269.607C25.27 269.588 25.2674 269.574 25.2657 269.564C25.2649 269.559 25.2642 269.556 25.2638 269.553C25.2636 269.552 25.2634 269.551 25.2633 269.55C25.2632 269.55 25.2632 269.55 25.2632 269.55C25.2631 269.55 25.2631 269.55 24.2784 269.723C23.2936 269.897 23.2936 269.897 23.2936 269.898C23.2937 269.898 23.2937 269.898 23.2938 269.898C23.2939 269.899 23.294 269.9 23.2942 269.901C23.2947 269.903 23.2953 269.907 23.2962 269.912C23.2979 269.921 23.3004 269.936 23.3037 269.955C23.3105 269.993 23.3204 270.049 23.3334 270.123C23.3595 270.271 23.3977 270.488 23.4466 270.766C23.5444 271.321 23.6847 272.119 23.8547 273.088C24.1948 275.026 24.6537 277.649 25.1291 280.391C26.0819 285.886 27.0954 291.822 27.3574 293.694L29.3381 293.417ZM24.7195 324.176C25.9764 320.527 27.2493 313.716 28.1465 307.455C28.5971 304.31 28.9569 301.276 29.1742 298.809C29.3873 296.391 29.4761 294.398 29.338 293.416L27.3574 293.695C27.4578 294.408 27.3997 296.163 27.1819 298.634C26.9685 301.057 26.6135 304.054 26.1667 307.171C25.2691 313.435 24.0168 320.075 22.8286 323.524L24.7195 324.176ZM26.1438 357.235C26.1663 356.778 26.0971 354.655 25.9867 351.775C25.8747 348.856 25.7164 345.078 25.5505 341.237C25.2186 333.555 24.8562 325.619 24.773 323.804L22.7751 323.896C22.8582 325.71 23.2206 333.644 23.5524 341.323C23.7182 345.163 23.8764 348.938 23.9881 351.852C24.1014 354.806 24.1631 356.795 24.1462 357.137L26.1438 357.235ZM26.1323 357.485C26.1361 357.399 26.1398 357.317 26.1438 357.235L24.1462 357.137C24.1419 357.224 24.138 357.311 24.1343 357.396L26.1323 357.485ZM22.5651 363.368C24.155 362.445 25.0731 361.45 25.5734 360.369C26.061 359.316 26.0968 358.283 26.1323 357.485L24.1343 357.396C24.097 358.232 24.0578 358.882 23.7585 359.529C23.4721 360.147 22.8916 360.866 21.5614 361.638L22.5651 363.368ZM13.2377 362.067C13.1877 363.069 13.8034 363.757 14.5044 364.142C15.1798 364.512 16.0436 364.682 16.9159 364.721C18.67 364.8 20.8452 364.366 22.5651 363.368L21.5614 361.638C20.2095 362.422 18.4218 362.787 17.0056 362.723C16.2928 362.691 15.7697 362.555 15.4668 362.388C15.3219 362.309 15.2651 362.243 15.2472 362.217C15.2376 362.203 15.2337 362.196 15.2352 362.166L13.2377 362.067ZM11.4575 352.397C11.935 354.667 12.3966 356.861 12.7322 358.626C12.9 359.509 13.0343 360.274 13.123 360.881C13.2157 361.516 13.2459 361.901 13.2377 362.067L15.2352 362.166C15.2545 361.78 15.1927 361.214 15.102 360.593C15.0073 359.944 14.8669 359.146 14.697 358.253C14.357 356.465 13.8908 354.249 13.4146 351.985L11.4575 352.397ZM9.52719 342.523C9.90118 345.001 10.701 348.801 11.4575 352.397L13.4146 351.985C12.6526 348.363 11.8681 344.631 11.5048 342.224L9.52719 342.523ZM9.96977 328.549C9.45263 333.085 8.86773 338.154 9.52719 342.523L11.5048 342.224C10.8926 338.169 11.4317 333.382 11.9569 328.776L9.96977 328.549ZM10.3944 324.558C10.2798 325.83 10.1275 327.166 9.96977 328.549L11.9569 328.776C12.1141 327.398 12.2693 326.037 12.3864 324.737L10.3944 324.558ZM10.3898 324.545C10.3885 324.596 10.3891 324.647 10.3917 324.698L12.3891 324.597L12.3891 324.598L10.3898 324.545ZM10.6863 321.501C10.5295 322.902 10.4039 324.014 10.3898 324.545L12.3891 324.598C12.4003 324.177 12.51 323.187 12.6739 321.723L10.6863 321.501ZM10.57 298.527C11.0669 299.702 11.3866 301.338 11.5568 303.286C11.7257 305.22 11.7422 307.394 11.6686 309.609C11.5212 314.039 11.0162 318.554 10.6863 321.501L12.6739 321.723C13.003 318.784 13.5172 314.195 13.6674 309.675C13.7426 307.415 13.7275 305.154 13.5492 303.112C13.372 301.084 13.0288 299.206 12.4119 297.748L10.57 298.527ZM9.08346 276.677C8.03349 282.094 7.67781 285.88 7.96053 289.17C8.24471 292.476 9.16862 295.215 10.57 298.527L12.4119 297.748C11.0434 294.513 10.2111 291.999 9.95319 288.998C9.69384 285.981 10.0102 282.406 11.0469 277.057L9.08346 276.677ZM23.997 268.628C22.4514 268.25 19.2952 267.463 16.2458 268.17C14.6924 268.53 13.148 269.281 11.8598 270.667C10.5749 272.049 9.60188 274.002 9.08346 276.677L11.0469 277.057C11.5109 274.664 12.3483 273.079 13.3247 272.028C14.2977 270.981 15.4654 270.404 16.6976 270.118C19.2191 269.534 21.9277 270.181 23.522 270.571L23.997 268.628Z" fill="black" mask="url(#path-43-inside-5_4131_170882)"/>
<mask id="path-45-inside-6_4131_170882" fill="white">
<path fill-rule="evenodd" clip-rule="evenodd" d="M6.03586 221.403C8.91958 217.92 12.8726 217.435 17.7292 219.351C17.7292 219.351 13.8285 237.571 10.38 242.804C10.1889 247.073 9.69366 255.991 8.82125 258.078C9.7285 260.855 14.3171 276.334 14.407 276.982C14.501 277.657 14.2213 278.568 11.746 279.153C9.27068 279.737 8.08005 278.969 7.51815 278.125C7.0844 277.472 5.45588 273.305 4.0798 269.784L4.07969 269.784C3.6732 268.743 3.28874 267.76 2.96361 266.94C1.53784 263.343 0.362101 258.875 0.513094 257.088L0.534571 257.085C0.687638 255.526 1.6952 240.725 1.77874 239.496C1.7735 239.466 1.77088 239.439 1.77094 239.415C1.77342 238.529 1.9046 235.913 2.3353 232.205C2.766 228.497 3.25858 224.759 6.03586 221.403Z"/>
</mask>
<path fill-rule="evenodd" clip-rule="evenodd" d="M6.03586 221.403C8.91958 217.92 12.8726 217.435 17.7292 219.351C17.7292 219.351 13.8285 237.571 10.38 242.804C10.1889 247.073 9.69366 255.991 8.82125 258.078C9.7285 260.855 14.3171 276.334 14.407 276.982C14.501 277.657 14.2213 278.568 11.746 279.153C9.27068 279.737 8.08005 278.969 7.51815 278.125C7.0844 277.472 5.45588 273.305 4.0798 269.784L4.07969 269.784C3.6732 268.743 3.28874 267.76 2.96361 266.94C1.53784 263.343 0.362101 258.875 0.513094 257.088L0.534571 257.085C0.687638 255.526 1.6952 240.725 1.77874 239.496C1.7735 239.466 1.77088 239.439 1.77094 239.415C1.77342 238.529 1.9046 235.913 2.3353 232.205C2.766 228.497 3.25858 224.759 6.03586 221.403Z" fill="#3B4157"/>
<path d="M17.7292 219.351L18.707 219.56L18.8844 218.731L18.0961 218.42L17.7292 219.351ZM6.03586 221.403L5.26562 220.765L5.26541 220.765L6.03586 221.403ZM10.38 242.804L9.54502 242.254L9.39334 242.484L9.38101 242.76L10.38 242.804ZM8.82125 258.078L7.89863 257.692L7.75528 258.035L7.87068 258.388L8.82125 258.078ZM14.407 276.982L13.4164 277.119L13.4165 277.12L14.407 276.982ZM7.51815 278.125L6.68498 278.678L6.68573 278.679L7.51815 278.125ZM4.0798 269.784L5.01121 269.42L5.00961 269.416L4.0798 269.784ZM4.07969 269.784L3.14828 270.148L3.14988 270.152L4.07969 269.784ZM2.96361 266.94L3.89323 266.571V266.571L2.96361 266.94ZM0.513094 257.088L0.39684 256.095L-0.414578 256.19L-0.483356 257.004L0.513094 257.088ZM0.534571 257.085L0.650825 258.079L1.45108 257.985L1.52979 257.183L0.534571 257.085ZM1.77874 239.496L2.77643 239.564L2.78458 239.444L2.76416 239.326L1.77874 239.496ZM1.77094 239.415L2.77094 239.418L1.77094 239.415ZM2.3353 232.205L3.32862 232.32L2.3353 232.205ZM18.0961 218.42C15.564 217.421 13.1731 217.01 10.9826 217.365C8.76676 217.724 6.84767 218.854 5.26562 220.765L6.8061 222.04C8.10777 220.468 9.60707 219.614 11.3028 219.339C13.0239 219.06 15.0378 219.364 17.3622 220.281L18.0961 218.42ZM11.215 243.355C12.1507 241.935 13.0743 239.713 13.9276 237.261C14.7891 234.785 15.6069 231.992 16.3132 229.376C17.0201 226.757 17.6182 224.305 18.0394 222.508C18.2501 221.609 18.4168 220.873 18.5308 220.361C18.5879 220.106 18.6318 219.906 18.6615 219.77C18.6764 219.702 18.6877 219.649 18.6953 219.614C18.6991 219.597 18.702 219.583 18.704 219.574C18.7049 219.569 18.7057 219.566 18.7062 219.564C18.7065 219.562 18.7066 219.562 18.7068 219.561C18.7069 219.561 18.7069 219.56 18.7069 219.56C18.707 219.56 18.707 219.56 17.7292 219.351C16.7513 219.141 16.7513 219.141 16.7513 219.141C16.7513 219.141 16.7512 219.142 16.7512 219.142C16.7511 219.142 16.7509 219.143 16.7507 219.144C16.7503 219.146 16.7496 219.149 16.7487 219.153C16.7469 219.162 16.7441 219.175 16.7404 219.192C16.7331 219.226 16.7221 219.276 16.7075 219.343C16.6784 219.476 16.6352 219.673 16.5788 219.926C16.4661 220.431 16.3011 221.16 16.0922 222.051C15.6743 223.834 15.0817 226.264 14.3823 228.854C13.6824 231.447 12.8785 234.191 12.0387 236.603C11.1908 239.04 10.3336 241.058 9.54502 242.254L11.215 243.355ZM9.38101 242.76C9.28567 244.889 9.11478 248.17 8.8597 251.175C8.73208 252.678 8.58433 254.1 8.41617 255.269C8.24272 256.474 8.0612 257.303 7.89863 257.692L9.74388 258.463C10.0175 257.809 10.225 256.74 10.3958 255.554C10.5718 254.33 10.7234 252.865 10.8525 251.344C11.111 248.3 11.2832 244.988 11.379 242.849L9.38101 242.76ZM7.87068 258.388C8.31896 259.761 9.68842 264.309 10.9617 268.612C11.5973 270.76 12.2069 272.84 12.663 274.422C12.8911 275.214 13.0802 275.879 13.2146 276.364C13.282 276.607 13.3346 276.802 13.3713 276.944C13.4156 277.115 13.4206 277.149 13.4164 277.119L15.3975 276.844C15.3821 276.734 15.3408 276.571 15.3074 276.442C15.2666 276.285 15.2106 276.078 15.1421 275.831C15.0049 275.335 14.8136 274.662 14.5848 273.868C14.1269 272.28 13.5158 270.195 12.8795 268.045C11.6093 263.752 10.2308 259.172 9.77182 257.767L7.87068 258.388ZM13.4165 277.12C13.4312 277.225 13.4289 277.293 13.3165 277.411C13.1452 277.591 12.6791 277.905 11.5163 278.179L11.9757 280.126C13.2882 279.816 14.1995 279.383 14.7635 278.792C15.3863 278.139 15.4768 277.414 15.3974 276.844L13.4165 277.12ZM11.5163 278.179C10.4046 278.442 9.68435 278.376 9.22895 278.225C8.78693 278.079 8.52216 277.829 8.35058 277.571L6.68573 278.679C7.07604 279.266 7.68753 279.822 8.60013 280.124C9.49934 280.422 10.6121 280.448 11.9757 280.126L11.5163 278.179ZM8.35133 277.572C8.35141 277.572 8.35025 277.571 8.34779 277.567C8.34536 277.563 8.34203 277.557 8.33778 277.55C8.32915 277.535 8.31806 277.515 8.30439 277.49C8.27683 277.439 8.2429 277.372 8.20247 277.288C8.1215 277.121 8.0226 276.903 7.9076 276.641C7.6779 276.116 7.39467 275.433 7.0792 274.654C6.44862 273.098 5.6999 271.182 5.0112 269.42L3.1484 270.148C3.83579 271.907 4.58936 273.835 5.2255 275.405C5.54339 276.19 5.83463 276.892 6.07527 277.442C6.3004 277.957 6.51865 278.428 6.68498 278.678L8.35133 277.572ZM5.00961 269.416L5.0095 269.415L3.14988 270.152L3.14999 270.152L5.00961 269.416ZM5.01109 269.42C4.60487 268.38 4.21944 267.394 3.89323 266.571L2.034 267.308C2.35804 268.125 2.74153 269.107 3.14829 270.148L5.01109 269.42ZM3.89323 266.571C3.19607 264.812 2.55904 262.837 2.11647 261.09C1.66232 259.296 1.4497 257.88 1.50954 257.172L-0.483356 257.004C-0.574507 258.082 -0.274748 259.794 0.177668 261.581C0.641659 263.413 1.30538 265.47 2.034 267.308L3.89323 266.571ZM0.629348 258.081L0.650825 258.079L0.418317 256.092L0.39684 256.095L0.629348 258.081ZM1.52979 257.183C1.6848 255.604 2.69399 240.776 2.77643 239.564L0.781043 239.428C0.696419 240.673 -0.309519 255.448 -0.460646 256.988L1.52979 257.183ZM0.770946 239.412C0.770677 239.509 0.781117 239.596 0.793319 239.666L2.76416 239.326C2.76588 239.336 2.77108 239.369 2.77094 239.418L0.770946 239.412ZM1.34198 232.089C0.908881 235.818 0.773565 238.475 0.770946 239.412L2.77094 239.418C2.77327 238.583 2.90032 236.007 3.32862 232.32L1.34198 232.089ZM5.26541 220.765C2.27899 224.374 1.77127 228.394 1.34198 232.089L3.32862 232.32C3.76074 228.6 4.23816 225.144 6.80631 222.04L5.26541 220.765Z" fill="black" mask="url(#path-45-inside-6_4131_170882)"/>
<path d="M27.2783 371.517C26.2683 371.799 24.699 372.853 24.6149 373.955C24.5332 375.056 24.2832 376.202 24.3153 376.675C24.3475 377.146 25.5579 379.5 28.1867 379.381C30.8179 379.262 33.8774 377.705 34.7437 376.972C35.6076 376.24 36.0111 375.376 36.0111 375.376C36.0111 375.376 36.9889 374.044 40.0979 374.279C43.2068 374.517 46.9965 372.22 49.6327 369.752C52.2689 367.284 51.4421 365.586 51.4421 365.586C51.4421 365.586 51.3208 363.039 49.5089 362.784C47.697 362.524 27.2783 371.517 27.2783 371.517Z" fill="#212430"/>
<path d="M26.356 366.167L25.4401 369.486C25.4401 369.486 25.054 373.838 25.1951 374.452C25.3362 375.066 26.7917 377.459 30.9329 376.422C35.074 375.385 36.2448 373.452 39.1632 373.1C42.0816 372.746 48.958 369.994 50.1263 367.593C51.2947 365.192 50.7823 363.261 49.3912 362.362C48.0001 361.464 46.7153 361.704 46.7153 361.704L33.3983 363.395L26.356 366.167Z" fill="black"/>
<mask id="path-49-inside-7_4131_170882" fill="white">
<path fill-rule="evenodd" clip-rule="evenodd" d="M17.0408 297.69C14.3601 293.801 14.6126 285.36 19.9122 266.449L41.7246 271.506C41.7246 271.506 42.9424 274.697 42.9374 289.363C42.9329 298.564 40.2729 326.166 39.8637 330.358C39.8531 330.528 39.8412 330.706 39.828 330.893C39.6739 333.087 39.2018 339.205 38.6928 345.8C37.9753 355.098 37.1844 365.346 37.1077 366.894C36.9765 369.54 32.9492 371.661 29.1001 371.305C25.251 370.949 25.3946 369.132 25.3946 369.132C25.3946 369.132 23.4094 346.49 22.6074 339.49C22.121 335.244 22.808 331.239 23.4241 328.745C23.5314 326.952 23.7093 324.553 23.8996 321.985C24.3899 315.371 24.9634 307.635 24.6301 306.245C24.0806 303.95 20.328 301.611 20.328 301.611C20.328 301.611 19.7216 301.581 17.0408 297.69Z"/>
</mask>
<path fill-rule="evenodd" clip-rule="evenodd" d="M17.0408 297.69C14.3601 293.801 14.6126 285.36 19.9122 266.449L41.7246 271.506C41.7246 271.506 42.9424 274.697 42.9374 289.363C42.9329 298.564 40.2729 326.166 39.8637 330.358C39.8531 330.528 39.8412 330.706 39.828 330.893C39.6739 333.087 39.2018 339.205 38.6928 345.8C37.9753 355.098 37.1844 365.346 37.1077 366.894C36.9765 369.54 32.9492 371.661 29.1001 371.305C25.251 370.949 25.3946 369.132 25.3946 369.132C25.3946 369.132 23.4094 346.49 22.6074 339.49C22.121 335.244 22.808 331.239 23.4241 328.745C23.5314 326.952 23.7093 324.553 23.8996 321.985C24.3899 315.371 24.9634 307.635 24.6301 306.245C24.0806 303.95 20.328 301.611 20.328 301.611C20.328 301.611 19.7216 301.581 17.0408 297.69Z" fill="#2C334B"/>
<path d="M19.9122 266.449L20.1381 265.475L19.2072 265.259L18.9493 266.179L19.9122 266.449ZM17.0408 297.69L17.8643 297.123L17.8642 297.122L17.0408 297.69ZM41.7246 271.506L42.6588 271.15L42.469 270.652L41.9504 270.532L41.7246 271.506ZM42.9374 289.363L43.9374 289.364V289.363L42.9374 289.363ZM39.8637 330.358L38.8684 330.26L38.8667 330.278L38.8656 330.295L39.8637 330.358ZM39.828 330.893L40.8256 330.963L39.828 330.893ZM38.6928 345.8L37.6958 345.723L38.6928 345.8ZM37.1077 366.894L38.1064 366.944L37.1077 366.894ZM29.1001 371.305L29.0079 372.301H29.0079L29.1001 371.305ZM25.3946 369.132L26.3915 369.21L26.398 369.127L26.3907 369.044L25.3946 369.132ZM22.6074 339.49L21.6139 339.604L21.6139 339.604L22.6074 339.49ZM23.4241 328.745L24.3949 328.985L24.4168 328.896L24.4223 328.805L23.4241 328.745ZM23.8996 321.985L24.8969 322.059L23.8996 321.985ZM24.6301 306.245L23.6576 306.477L23.6577 306.478L24.6301 306.245ZM20.328 301.611L20.857 300.762L20.6365 300.625L20.3769 300.612L20.328 301.611ZM18.9493 266.179C16.2937 275.656 14.8851 282.567 14.487 287.625C14.0909 292.656 14.6789 296.026 16.2175 298.258L17.8642 297.122C16.7221 295.466 16.0959 292.671 16.4808 287.782C16.8636 282.918 18.2311 276.154 20.8751 266.719L18.9493 266.179ZM41.9504 270.532L20.1381 265.475L19.6863 267.423L41.4987 272.48L41.9504 270.532ZM43.9374 289.363C43.9399 282.005 43.6358 277.501 43.3262 274.82C43.1714 273.479 43.0145 272.589 42.8922 272.023C42.831 271.739 42.7781 271.536 42.738 271.396C42.7179 271.326 42.7009 271.272 42.6876 271.231C42.6809 271.211 42.6751 271.195 42.6703 271.181C42.6679 271.174 42.6658 271.168 42.6638 271.163C42.6629 271.16 42.662 271.158 42.6611 271.156C42.6607 271.155 42.6603 271.154 42.6599 271.153C42.6597 271.152 42.6595 271.151 42.6594 271.151C42.6591 271.15 42.6588 271.15 41.7246 271.506C40.7903 271.863 40.79 271.862 40.7898 271.861C40.7897 271.861 40.7894 271.861 40.7893 271.86C40.789 271.859 40.7887 271.859 40.7884 271.858C40.7879 271.856 40.7874 271.855 40.787 271.854C40.7863 271.852 40.7859 271.851 40.7858 271.851C40.7856 271.85 40.7866 271.853 40.7889 271.86C40.7934 271.873 40.8025 271.902 40.8157 271.948C40.8422 272.04 40.8844 272.2 40.9373 272.445C41.0432 272.935 41.1905 273.76 41.3394 275.05C41.6376 277.631 41.9399 282.055 41.9374 289.363L43.9374 289.363ZM40.859 330.455C41.2652 326.293 43.9328 298.627 43.9374 289.364L41.9374 289.363C41.9329 298.502 39.2806 326.038 38.8684 330.26L40.859 330.455ZM38.8656 330.295C38.8552 330.462 38.8435 330.638 38.8305 330.823L40.8256 330.963C40.8388 330.774 40.851 330.593 40.8618 330.42L38.8656 330.295ZM38.8305 330.823C38.6767 333.013 38.205 339.125 37.6958 345.723L39.6899 345.877C40.1987 339.284 40.6712 333.162 40.8256 330.963L38.8305 330.823ZM37.6958 345.723C36.9794 355.006 36.1865 365.278 36.1089 366.844L38.1064 366.944C38.1823 365.414 38.9712 355.19 39.6899 345.877L37.6958 345.723ZM36.1089 366.844C36.0685 367.659 35.3925 368.602 34.0211 369.347C32.6894 370.069 30.9182 370.469 29.1923 370.309L29.0079 372.301C31.1311 372.497 33.2981 372.015 34.9751 371.104C36.6124 370.216 38.0156 368.775 38.1064 366.944L36.1089 366.844ZM29.1923 370.309C27.4083 370.144 26.7648 369.659 26.5499 369.419C26.441 369.297 26.4088 369.202 26.3988 369.165C26.3932 369.144 26.393 369.134 26.3934 369.139C26.3936 369.142 26.394 369.149 26.3939 369.16C26.3938 369.166 26.3936 369.173 26.3933 369.182C26.3931 369.186 26.3929 369.19 26.3926 369.195C26.3924 369.197 26.3922 369.2 26.3921 369.202C26.392 369.204 26.3919 369.205 26.3918 369.206C26.3917 369.207 26.3916 369.208 26.3916 369.208C26.3915 369.209 26.3915 369.21 25.3946 369.132C24.3977 369.053 24.3976 369.054 24.3975 369.055C24.3975 369.055 24.3974 369.056 24.3973 369.057C24.3972 369.059 24.3971 369.06 24.397 369.062C24.3968 369.065 24.3966 369.068 24.3964 369.071C24.396 369.078 24.3956 369.085 24.3953 369.092C24.3946 369.107 24.3941 369.125 24.3939 369.144C24.3936 369.182 24.3947 369.228 24.3984 369.282C24.406 369.388 24.4246 369.523 24.4657 369.678C24.5491 369.992 24.7216 370.374 25.0579 370.751C25.7336 371.507 26.9428 372.109 29.0079 372.301L29.1923 370.309ZM25.3946 369.132C26.3907 369.044 26.3907 369.044 26.3907 369.044C26.3907 369.044 26.3907 369.044 26.3907 369.043C26.3906 369.043 26.3905 369.042 26.3904 369.04C26.3901 369.037 26.3898 369.033 26.3893 369.028C26.3883 369.017 26.3869 369.001 26.385 368.979C26.3812 368.936 26.3756 368.872 26.3682 368.788C26.3535 368.62 26.3318 368.374 26.3038 368.057C26.248 367.424 26.1673 366.512 26.0679 365.396C25.8692 363.163 25.5959 360.114 25.2976 356.845C24.7014 350.313 24.0035 342.89 23.6009 339.376L21.6139 339.604C22.0133 343.09 22.709 350.488 23.3059 357.027C23.604 360.293 23.8772 363.342 24.0758 365.573C24.1751 366.689 24.2557 367.6 24.3116 368.233C24.3395 368.549 24.3612 368.796 24.3759 368.963C24.3833 369.047 24.3889 369.111 24.3927 369.154C24.3946 369.175 24.396 369.192 24.397 369.203C24.3974 369.208 24.3978 369.212 24.398 369.215C24.3981 369.216 24.3982 369.217 24.3983 369.218C24.3983 369.218 24.3984 369.219 24.3984 369.219C24.3984 369.219 24.3984 369.219 25.3946 369.132ZM23.6009 339.376C23.1333 335.293 23.7939 331.418 24.3949 328.985L22.4533 328.505C21.8221 331.061 21.1088 335.194 21.6139 339.604L23.6009 339.376ZM22.9024 321.911C22.7122 324.476 22.5337 326.884 22.4259 328.685L24.4223 328.805C24.5291 327.021 24.7063 324.63 24.8969 322.059L22.9024 321.911ZM23.6577 306.478C23.7061 306.68 23.7407 307.289 23.7256 308.346C23.7114 309.35 23.6565 310.638 23.5753 312.1C23.4129 315.024 23.1477 318.601 22.9024 321.911L24.8969 322.059C25.1419 318.754 25.4086 315.157 25.5722 312.211C25.6539 310.739 25.7106 309.419 25.7254 308.375C25.7395 307.383 25.7208 306.505 25.6026 306.011L23.6577 306.478ZM20.328 301.611C19.7991 302.459 19.7989 302.459 19.7988 302.459C19.7988 302.459 19.7987 302.459 19.7986 302.459C19.7985 302.459 19.7985 302.459 19.7985 302.459C19.7985 302.459 19.7988 302.459 19.7993 302.46C19.8002 302.46 19.8021 302.461 19.8047 302.463C19.8101 302.466 19.8189 302.472 19.8309 302.48C19.8549 302.495 19.8916 302.519 19.9395 302.55C20.0352 302.614 20.1748 302.708 20.3451 302.828C20.687 303.07 21.1461 303.414 21.6185 303.823C22.0935 304.234 22.5648 304.697 22.9421 305.173C23.3264 305.659 23.5678 306.102 23.6576 306.477L25.6026 306.012C25.4177 305.239 24.984 304.53 24.5101 303.932C24.0293 303.324 23.4594 302.772 22.9275 302.311C22.3931 301.849 21.8797 301.464 21.5008 301.196C21.3107 301.061 21.1529 300.955 21.0413 300.881C20.9854 300.844 20.941 300.816 20.9097 300.796C20.8941 300.786 20.8818 300.778 20.8729 300.772C20.8685 300.769 20.8649 300.767 20.8623 300.765C20.861 300.765 20.8598 300.764 20.859 300.763C20.8585 300.763 20.8582 300.763 20.8578 300.763C20.8577 300.763 20.8575 300.762 20.8574 300.762C20.8572 300.762 20.857 300.762 20.328 301.611ZM16.2174 298.257C17.5712 300.222 18.4312 301.257 18.9775 301.812C19.2506 302.089 19.4677 302.269 19.65 302.386C19.7428 302.446 19.838 302.497 19.9371 302.535C19.9873 302.554 20.0408 302.571 20.0973 302.584C20.1257 302.591 20.1551 302.596 20.1854 302.601C20.2005 302.603 20.2159 302.605 20.2316 302.606C20.2394 302.607 20.2473 302.608 20.2552 302.608C20.2592 302.608 20.2632 302.609 20.2672 302.609C20.2692 302.609 20.2722 302.609 20.2732 302.609C20.2762 302.609 20.2792 302.61 20.328 301.611C20.3769 300.612 20.3799 300.612 20.3829 300.612C20.3839 300.612 20.3869 300.613 20.3889 300.613C20.3928 300.613 20.3968 300.613 20.4007 300.613C20.4084 300.614 20.4161 300.615 20.4236 300.615C20.4386 300.617 20.4531 300.619 20.4671 300.621C20.4949 300.625 20.5206 300.629 20.5438 300.635C20.5902 300.645 20.628 300.658 20.6565 300.669C20.7119 300.69 20.7387 300.708 20.7328 300.705C20.7176 300.695 20.6156 300.624 20.4019 300.408C19.9748 299.974 19.1912 299.049 17.8643 297.123L16.2174 298.257Z" fill="black" mask="url(#path-49-inside-7_4131_170882)"/>
<path d="M43.8468 278.148C43.8699 278.355 43.9032 278.587 43.9395 278.84C44.23 280.864 44.7081 284.195 41.5919 286.336C37.9804 288.817 33.7576 290.656 24.9034 289.668L43.8468 278.148ZM43.8468 278.148C43.4285 274.356 43.4954 259.821 43.4954 259.821L43.8468 278.148ZM11.732 219.534L11.7322 219.533C12.7648 219.114 13.5012 218.962 14.2897 218.959C15.0995 218.956 15.9798 219.108 17.3294 219.342L17.3451 219.345C18.6364 219.569 20.9822 220.323 23.3174 221.214C25.6527 222.105 27.9023 223.104 29.0097 223.796C31.2529 225.198 37.2025 229.529 39.2972 231.482L42.9952 259.852L42.9952 259.861L42.9947 259.983C42.9943 260.091 42.9938 260.249 42.9933 260.452C42.9923 260.857 42.9913 261.44 42.9915 262.151C42.9917 263.574 42.9964 265.511 43.0142 267.567C43.0497 271.664 43.1373 276.276 43.3499 278.203L43.3499 278.203C43.3751 278.43 43.4094 278.675 43.4459 278.936C43.7323 280.983 44.1502 283.972 41.3088 285.924C39.5346 287.143 37.6313 288.19 35.0936 288.817C32.5513 289.446 29.3438 289.66 24.9589 289.171L24.9587 289.171C18.9468 288.502 15.0257 286.603 12.6177 284.776C11.412 283.862 10.5848 282.965 10.063 282.249C9.80177 281.89 9.62032 281.581 9.50624 281.342C9.44914 281.222 9.41128 281.125 9.38845 281.051C9.36876 280.988 9.36454 280.956 9.36367 280.949C9.36346 280.947 9.36345 280.947 9.36346 280.949C9.36291 280.876 9.38432 280.691 9.43894 280.366C9.49097 280.057 9.56603 279.659 9.65711 279.187C9.68595 279.038 9.71633 278.881 9.74799 278.717C9.91557 277.853 10.1189 276.804 10.3183 275.661C10.7911 272.949 11.25 269.663 11.1578 266.97L11.1578 266.97C11.1274 266.085 10.799 264.377 10.33 262.319C9.85677 260.241 9.22781 257.755 8.57526 255.281C7.27012 250.334 5.86645 245.422 5.41438 243.903C4.97753 242.436 4.42734 239.451 4.25626 236.13C4.08483 232.803 4.29838 229.208 5.34025 226.487L5.34032 226.486C6.39361 223.732 7.62622 222.155 8.75501 221.193C9.79081 220.309 10.7604 219.922 11.5253 219.616C11.596 219.588 11.6649 219.561 11.732 219.534Z" fill="#363C53" stroke="black"/>
<path d="M64.99 254.392L64.9901 254.392L64.9901 254.392L64.9901 254.392L65.0074 254.401L65.0254 254.41L65.9629 254.837L66.0459 254.892C66.1196 254.941 66.2255 255.012 66.3533 255.099C66.6092 255.273 66.9514 255.511 67.2988 255.765C67.6478 256.021 67.9943 256.289 68.2624 256.523C68.3968 256.641 68.5037 256.743 68.579 256.827C68.6186 256.871 68.6413 256.901 68.6533 256.917C68.6493 256.933 68.6405 256.958 68.6209 256.997C68.5699 257.096 68.4781 257.216 68.3587 257.342C68.2428 257.464 68.1186 257.573 68.0213 257.653C67.9732 257.693 67.933 257.724 67.9055 257.745C67.8917 257.755 67.8812 257.763 67.8746 257.768L67.8676 257.773L67.8669 257.774L67.8667 257.774L67.8666 257.774L67.8664 257.774L67.8664 257.774L67.631 257.943L67.6611 258.232L67.6611 258.232L67.6611 258.232L67.6611 258.232L67.6611 258.232L67.6613 258.234L67.6623 258.244L67.6662 258.288C67.6694 258.326 67.6737 258.383 67.6776 258.453C67.6855 258.593 67.692 258.784 67.6867 258.987C67.6814 259.193 67.6644 259.398 67.6295 259.572C67.5922 259.759 67.5454 259.851 67.5204 259.882C67.3977 260.033 67.2138 260.134 67.0311 260.196C66.9432 260.226 66.8649 260.245 66.8099 260.255C66.7827 260.26 66.7619 260.263 66.7495 260.265L66.7378 260.266L66.7375 260.266C66.7367 260.267 66.7364 260.267 66.7368 260.267L66.4893 260.289L66.358 260.503L65.5135 261.885L64.2678 262.519C64.1915 262.474 64.0993 262.421 63.9942 262.362C63.6825 262.187 63.2555 261.955 62.7976 261.731C62.3424 261.509 61.8436 261.29 61.3912 261.144C61.1652 261.072 60.9382 261.013 60.7263 260.985C60.5227 260.958 60.2873 260.952 60.0694 261.025C59.8704 261.091 59.6549 261.238 59.4576 261.387C59.2456 261.547 58.9979 261.756 58.7239 261.997C58.4205 262.264 58.0684 262.584 57.6828 262.934C57.3792 263.21 57.0547 263.505 56.7166 263.808C55.1602 265.202 53.2358 266.835 51.247 268.015L51.2469 268.015C49.2201 269.219 48.0064 269.778 47.0897 270.007C46.2043 270.229 45.5729 270.148 44.658 269.978C44.4989 269.948 44.3104 269.806 44.2028 269.276C44.0985 268.763 44.1146 268.051 44.2258 267.255C44.449 265.659 45.0226 263.94 45.4786 263.206C45.9324 262.476 46.7172 261.797 47.4244 261.287C47.7723 261.035 48.0901 260.833 48.3206 260.693C48.4356 260.624 48.5285 260.57 48.5918 260.534C48.6079 260.525 48.6221 260.517 48.6343 260.511L48.6676 260.502C48.7303 260.486 48.822 260.463 48.9389 260.432C49.1727 260.37 49.5076 260.279 49.9141 260.163C50.7263 259.93 51.8272 259.594 52.9786 259.181C54.1277 258.769 55.3392 258.275 56.3674 257.726C57.3747 257.187 58.2866 256.554 58.746 255.832C59.5073 254.635 60.0906 253.959 60.5982 253.595C61.0739 253.253 61.4962 253.176 62.0064 253.238L62.0076 253.238C62.5499 253.303 63.2816 253.577 63.9131 253.86C64.2211 253.998 64.4918 254.132 64.6854 254.231C64.7821 254.281 64.8592 254.321 64.9117 254.349C64.938 254.363 64.958 254.374 64.9713 254.382L64.986 254.39L64.9894 254.392L64.99 254.392Z" fill="#FF9C78" stroke="black"/>
<path d="M19.1149 215.804L19.1149 215.804C19.2451 214.519 19.2139 213.517 19.1401 212.447C19.1208 212.167 19.0987 211.884 19.0758 211.59C19.0149 210.809 18.9483 209.956 18.9129 208.892L29.791 196.182C29.8467 196.171 29.9158 196.156 29.9971 196.139C30.2342 196.09 30.5742 196.022 30.9848 195.943C31.8066 195.784 32.9081 195.586 34.0315 195.424C35.1589 195.262 36.2915 195.139 37.1814 195.127C37.6286 195.121 37.992 195.143 38.2543 195.194C38.3852 195.219 38.4737 195.249 38.5287 195.275C38.5494 195.285 38.5616 195.292 38.5678 195.297C38.7098 195.52 38.886 195.981 39.0625 196.665C39.2379 197.345 39.4014 198.196 39.5332 199.141C39.7973 201.035 39.9304 203.277 39.7923 205.258C39.6499 207.284 39.4302 210.248 39.001 212.917C38.7863 214.253 38.5216 215.499 38.1935 216.509C37.8583 217.542 37.4828 218.243 37.0969 218.579C36.9018 218.749 36.5748 218.864 36.1055 218.913C35.6456 218.962 35.1185 218.941 34.5851 218.9C34.4054 218.886 34.2204 218.87 34.0377 218.853C33.7023 218.823 33.375 218.794 33.1042 218.784C32.8909 218.776 32.6762 218.778 32.4887 218.807C32.3239 218.833 32.0621 218.896 31.8843 219.11L31.8835 219.111C31.8104 219.199 31.76 219.302 31.725 219.384C31.6871 219.472 31.6525 219.572 31.6205 219.677C31.5566 219.887 31.4947 220.144 31.4357 220.426C31.3173 220.99 31.2031 221.684 31.1039 222.353C31.0045 223.024 30.919 223.678 30.8585 224.163C30.8415 224.298 30.8265 224.421 30.8137 224.527C30.6969 224.526 30.5576 224.524 30.3976 224.52C29.8501 224.504 29.0612 224.463 28.103 224.356C26.1848 224.144 23.5981 223.675 20.9145 222.651C19.5046 222.112 18.4284 221.562 17.7591 221.1C17.4192 220.866 17.2162 220.675 17.1201 220.544C17.1154 220.537 17.1111 220.531 17.1072 220.526C17.3404 220.156 17.7722 219.34 18.1668 218.491C18.3896 218.011 18.6072 217.507 18.7775 217.047C18.9436 216.598 19.0796 216.152 19.1149 215.804ZM17.072 220.465C17.0724 220.465 17.0741 220.468 17.0758 220.474C17.0725 220.468 17.0716 220.465 17.072 220.465Z" fill="#FF9C78" stroke="black"/>
<path d="M40.1227 194.846C40.6722 196.497 40.5311 197.254 37.8256 198.363C38.5409 200.636 38.0038 203.165 37.9543 203.745C37.9048 204.321 36.229 205.551 36.031 206.205C35.8329 206.858 35.8429 209.287 35.8429 209.287L34.0557 210.151C34.0557 210.151 34.2438 206.507 32.4146 206.378C29.813 206.195 29.8749 212.938 27.0729 214.807C25.7659 215.678 22.2633 215 22.2633 215C22.2633 215 19.6 214.309 18.5777 213.049C18.189 212.571 17.6964 209.94 16.2484 207.381C14.8003 204.824 12.3176 194.13 19.3722 191.125C23.897 183.573 38.437 187.185 40.1227 194.846Z" fill="black"/>
<path d="M33.5471 206.699C33.5594 206.008 33.3713 205.072 32.1658 205.34C30.9628 205.607 30.2474 208.038 30.8514 209.899C31.4529 211.761 32.5099 212.956 33.0248 212.115C33.5396 211.273 33.5891 207.798 33.5891 207.798L33.5471 206.699Z" fill="#FF9C78"/>
<mask id="path-56-inside-8_4131_170882" fill="white">
<path fill-rule="evenodd" clip-rule="evenodd" d="M34.9656 228.316C33.572 228.868 30.8937 231.891 30.5224 232.661C30.1536 233.43 29.0719 236.515 30.4036 244.173C31.2501 249.037 36.6562 260.527 36.6562 260.527C36.6562 260.527 36.7644 260.578 36.9599 260.664C39.2035 265.845 41.4263 268.181 43.7973 270.232C43.9172 270.358 44.0657 270.457 44.246 270.526C46.7248 271.475 49.5451 269.78 51.0761 268.861C51.2987 268.727 51.494 268.609 51.6571 268.519C52.9418 267.806 58.7216 263.229 59.3156 262.271C59.7142 261.583 59.5409 260.427 59.5409 260.427C59.1523 258.076 56.7116 256.251 55.9294 256.452C55.2469 256.629 51.4638 258.272 48.835 259.568C48.7609 259.334 48.6808 259.082 48.5957 258.813L48.5955 258.813L48.5953 258.812C47.6559 255.849 46.095 250.925 44.9416 247.447C43.0634 240.156 40.9217 232.663 39.9013 231.277C38.6414 229.564 36.7998 228.774 36.7998 228.774L34.9656 228.316Z"/>
</mask>
<path fill-rule="evenodd" clip-rule="evenodd" d="M34.9656 228.316C33.572 228.868 30.8937 231.891 30.5224 232.661C30.1536 233.43 29.0719 236.515 30.4036 244.173C31.2501 249.037 36.6562 260.527 36.6562 260.527C36.6562 260.527 36.7644 260.578 36.9599 260.664C39.2035 265.845 41.4263 268.181 43.7973 270.232C43.9172 270.358 44.0657 270.457 44.246 270.526C46.7248 271.475 49.5451 269.78 51.0761 268.861C51.2987 268.727 51.494 268.609 51.6571 268.519C52.9418 267.806 58.7216 263.229 59.3156 262.271C59.7142 261.583 59.5409 260.427 59.5409 260.427C59.1523 258.076 56.7116 256.251 55.9294 256.452C55.2469 256.629 51.4638 258.272 48.835 259.568C48.7609 259.334 48.6808 259.082 48.5957 258.813L48.5955 258.813L48.5953 258.812C47.6559 255.849 46.095 250.925 44.9416 247.447C43.0634 240.156 40.9217 232.663 39.9013 231.277C38.6414 229.564 36.7998 228.774 36.7998 228.774L34.9656 228.316Z" fill="#3B4157"/>
<path d="M30.5224 232.661L29.6217 232.226L29.6206 232.228L30.5224 232.661ZM34.9656 228.316L35.2079 227.346L34.8961 227.268L34.5973 227.387L34.9656 228.316ZM30.4036 244.173L29.4184 244.344L29.4184 244.345L30.4036 244.173ZM36.6562 260.527L35.7513 260.953L35.9057 261.281L36.2345 261.434L36.6562 260.527ZM36.9599 260.664L37.8776 260.266L37.7217 259.907L37.3627 259.749L36.9599 260.664ZM43.7973 270.232L44.5219 269.543L44.4884 269.507L44.4516 269.476L43.7973 270.232ZM44.246 270.526L43.8883 271.46L43.8885 271.46L44.246 270.526ZM51.0761 268.861L50.5611 268.003L50.5611 268.003L51.0761 268.861ZM51.6571 268.519L51.1719 267.645H51.1719L51.6571 268.519ZM59.3156 262.271L60.1655 262.798L60.1734 262.785L60.181 262.772L59.3156 262.271ZM59.5409 260.427L60.5299 260.279L60.5287 260.272L60.5275 260.264L59.5409 260.427ZM55.9294 256.452L55.6811 255.483L55.6782 255.484L55.9294 256.452ZM48.835 259.568L47.8818 259.871L48.2336 260.98L49.2772 260.465L48.835 259.568ZM48.5957 258.813L47.6418 259.114L47.6424 259.115L48.5957 258.813ZM48.5955 258.813L49.5493 258.512L49.5484 258.509L48.5955 258.813ZM48.5953 258.812L47.6421 259.114L47.6424 259.115L48.5953 258.812ZM44.9416 247.447L43.9732 247.697L43.9817 247.73L43.9924 247.762L44.9416 247.447ZM39.9013 231.277L39.0958 231.869L39.0961 231.87L39.9013 231.277ZM36.7998 228.774L37.1938 227.855L37.12 227.824L37.0421 227.804L36.7998 228.774ZM31.4231 233.095C31.4231 233.095 31.4233 233.095 31.4238 233.094C31.4243 233.093 31.425 233.091 31.426 233.089C31.428 233.086 31.4307 233.081 31.4345 233.074C31.442 233.061 31.4524 233.043 31.4662 233.021C31.4939 232.977 31.5312 232.921 31.5788 232.854C31.6742 232.719 31.8006 232.553 31.9535 232.365C32.2592 231.989 32.653 231.543 33.0796 231.102C33.5072 230.66 33.956 230.234 34.3714 229.892C34.8053 229.534 35.1357 229.325 35.3339 229.246L34.5973 227.387C34.0987 227.584 33.5718 227.959 33.0999 228.348C32.6095 228.752 32.1043 229.233 31.6417 229.712C31.1781 230.191 30.7456 230.68 30.4011 231.104C30.079 231.501 29.7714 231.916 29.6217 232.226L31.4231 233.095ZM31.3888 244.002C30.0783 236.465 31.1758 233.611 31.4242 233.093L29.6206 232.228C29.1314 233.25 28.0654 236.564 29.4184 244.344L31.3888 244.002ZM36.6562 260.527C37.561 260.102 37.561 260.102 37.561 260.102C37.561 260.102 37.5609 260.102 37.5609 260.101C37.5607 260.101 37.5605 260.101 37.5602 260.1C37.5596 260.099 37.5587 260.097 37.5575 260.094C37.555 260.089 37.5512 260.081 37.5462 260.07C37.5362 260.049 37.5212 260.017 37.5016 259.975C37.4623 259.89 37.4043 259.766 37.3301 259.605C37.1817 259.284 36.9685 258.819 36.7099 258.245C36.1924 257.097 35.494 255.518 34.7697 253.788C33.3043 250.288 31.7894 246.304 31.3888 244.002L29.4184 244.345C29.8643 246.907 31.4757 251.099 32.9249 254.561C33.658 256.311 34.3641 257.908 34.8867 259.067C35.1481 259.647 35.3638 260.117 35.5144 260.443C35.5897 260.607 35.6487 260.733 35.689 260.82C35.7091 260.863 35.7246 260.896 35.7351 260.919C35.7403 260.93 35.7443 260.938 35.7471 260.944C35.7484 260.947 35.7495 260.949 35.7502 260.951C35.7505 260.951 35.7508 260.952 35.751 260.952C35.7511 260.953 35.7512 260.953 35.7512 260.953C35.7513 260.953 35.7513 260.953 36.6562 260.527ZM37.3627 259.749C37.2685 259.707 37.1959 259.674 37.1475 259.653C37.1234 259.642 37.1052 259.633 37.0935 259.628C37.0876 259.625 37.0834 259.623 37.0807 259.622C37.0794 259.621 37.0785 259.621 37.078 259.621C37.0778 259.621 37.0777 259.621 37.0776 259.621C37.0776 259.621 37.0776 259.621 37.0777 259.621C37.0777 259.621 37.0777 259.621 37.0777 259.621C37.0777 259.621 37.0778 259.621 37.0778 259.621C37.0778 259.621 37.0778 259.621 37.0778 259.621C37.0778 259.621 37.0778 259.621 36.6562 260.527C36.2345 261.434 36.2346 261.434 36.2346 261.434C36.2346 261.434 36.2346 261.434 36.2346 261.434C36.2346 261.434 36.2347 261.434 36.2347 261.434C36.2347 261.434 36.2348 261.434 36.2349 261.434C36.235 261.434 36.2352 261.435 36.2354 261.435C36.2358 261.435 36.2363 261.435 36.2369 261.435C36.238 261.436 36.2397 261.437 36.2417 261.438C36.2457 261.439 36.2515 261.442 36.2588 261.445C36.2735 261.452 36.2946 261.462 36.3219 261.474C36.3766 261.499 36.4558 261.535 36.557 261.579L37.3627 259.749ZM44.4516 269.476C42.1754 267.506 40.0524 265.289 37.8776 260.266L36.0422 261.061C38.3547 266.402 40.6771 268.855 43.1431 270.988L44.4516 269.476ZM43.0728 270.921C43.2997 271.16 43.5754 271.34 43.8883 271.46L44.6037 269.593C44.556 269.574 44.5346 269.556 44.5219 269.543L43.0728 270.921ZM43.8885 271.46C45.4403 272.054 47.0313 271.796 48.3453 271.339C49.6626 270.88 50.8334 270.173 51.5911 269.718L50.5611 268.003C49.7878 268.468 48.7829 269.068 47.6876 269.45C46.5891 269.832 45.5305 269.947 44.6034 269.592L43.8885 271.46ZM51.5911 269.718C51.8188 269.581 51.9976 269.474 52.1423 269.393L51.1719 267.645C50.9904 267.745 50.7786 267.873 50.5611 268.003L51.5911 269.718ZM52.1423 269.393C52.8747 268.987 54.7109 267.604 56.3726 266.266C57.2201 265.583 58.0521 264.888 58.7142 264.298C59.0445 264.004 59.3402 263.729 59.5771 263.491C59.7935 263.274 60.0243 263.026 60.1655 262.798L58.4658 261.744C58.4703 261.737 58.4532 261.764 58.3922 261.834C58.3361 261.899 58.2592 261.98 58.1603 262.08C57.9623 262.278 57.699 262.524 57.3839 262.805C56.755 263.365 55.9504 264.038 55.118 264.708C53.4202 266.076 51.7242 267.338 51.1719 267.645L52.1423 269.393ZM60.181 262.772C60.5119 262.201 60.5703 261.527 60.5776 261.108C60.5815 260.88 60.5704 260.679 60.5582 260.535C60.5521 260.462 60.5457 260.402 60.5404 260.359C60.5378 260.337 60.5355 260.319 60.5337 260.306C60.5328 260.299 60.532 260.293 60.5313 260.289C60.531 260.287 60.5307 260.285 60.5305 260.283C60.5303 260.282 60.5302 260.281 60.5301 260.281C60.5301 260.28 60.53 260.28 60.53 260.28C60.53 260.28 60.5299 260.279 60.5299 260.279C60.5299 260.279 60.5299 260.279 59.5409 260.427C58.552 260.575 58.5519 260.575 58.5519 260.575C58.5519 260.575 58.5519 260.575 58.5518 260.575C58.5518 260.574 58.5518 260.574 58.5517 260.574C58.5517 260.574 58.5516 260.573 58.5516 260.573C58.5515 260.572 58.5515 260.572 58.5515 260.572C58.5514 260.572 58.5516 260.573 58.5518 260.575C58.5524 260.579 58.5534 260.586 58.5547 260.597C58.5574 260.62 58.5614 260.656 58.5653 260.702C58.5732 260.796 58.5804 260.928 58.5779 261.074C58.5721 261.405 58.5179 261.653 58.4503 261.77L60.181 262.772ZM60.5275 260.264C60.2874 258.811 59.4326 257.583 58.5746 256.76C58.1406 256.345 57.6742 256.002 57.2309 255.771C57.0096 255.656 56.7732 255.557 56.5338 255.498C56.3072 255.442 56.0011 255.401 55.6811 255.483L56.1777 257.421C56.0532 257.452 55.9946 257.425 56.0526 257.439C56.0979 257.451 56.1836 257.48 56.3072 257.545C56.5536 257.673 56.8683 257.895 57.1909 258.205C57.8459 258.832 58.4058 259.692 58.5543 260.59L60.5275 260.264ZM55.6782 255.484C55.4319 255.548 55.0038 255.711 54.5271 255.904C54.0242 256.108 53.3963 256.375 52.7111 256.674C51.3415 257.274 49.7242 258.015 48.3929 258.671L49.2772 260.465C50.5746 259.826 52.1632 259.097 53.5129 258.507C54.1875 258.212 54.7976 257.953 55.2781 257.758C55.7849 257.553 56.0856 257.444 56.1806 257.42L55.6782 255.484ZM47.6424 259.115C47.7276 259.384 47.8076 259.637 47.8818 259.871L49.7882 259.266C49.7141 259.032 49.6341 258.78 49.5489 258.511L47.6424 259.115ZM47.6416 259.113L47.6418 259.114L49.5495 258.513L49.5493 258.512L47.6416 259.113ZM47.6424 259.115L47.6425 259.116L49.5484 258.509L49.5482 258.509L47.6424 259.115ZM43.9924 247.762C45.1433 251.232 46.7021 256.149 47.6421 259.114L49.5485 258.51C48.6098 255.549 47.0467 250.618 45.8907 247.132L43.9924 247.762ZM39.0961 231.87C39.2545 232.085 39.5369 232.68 39.9172 233.709C40.281 234.694 40.6966 235.968 41.1429 237.438C42.0348 240.377 43.0357 244.058 43.9732 247.697L45.9099 247.198C44.9693 243.546 43.9603 239.835 43.0567 236.857C42.6052 235.37 42.1766 234.054 41.7932 233.016C41.4262 232.023 41.0583 231.162 40.7066 230.684L39.0961 231.87ZM36.7998 228.774C36.4057 229.693 36.4055 229.693 36.4053 229.693C36.4052 229.693 36.405 229.693 36.4048 229.693C36.4046 229.693 36.4043 229.693 36.4041 229.693C36.4037 229.693 36.4034 229.692 36.4032 229.692C36.4028 229.692 36.4028 229.692 36.4032 229.692C36.4041 229.693 36.4066 229.694 36.4108 229.696C36.4191 229.7 36.4339 229.706 36.4545 229.716C36.4957 229.735 36.5601 229.767 36.6431 229.81C36.8095 229.898 37.0483 230.032 37.3238 230.216C37.8801 230.586 38.5564 231.136 39.0958 231.869L40.7069 230.684C39.9863 229.705 39.1118 229.003 38.4324 228.551C38.09 228.323 37.7896 228.153 37.5714 228.039C37.462 227.981 37.3727 227.938 37.3083 227.907C37.2761 227.892 37.25 227.88 37.2308 227.872C37.2211 227.867 37.2132 227.864 37.207 227.861C37.2039 227.86 37.2013 227.859 37.1991 227.858C37.198 227.857 37.197 227.857 37.1961 227.856C37.1957 227.856 37.1953 227.856 37.1949 227.856C37.1947 227.856 37.1944 227.856 37.1944 227.856C37.1941 227.855 37.1938 227.855 36.7998 228.774ZM34.7233 229.287L36.5575 229.745L37.0421 227.804L35.2079 227.346L34.7233 229.287Z" fill="black" mask="url(#path-56-inside-8_4131_170882)"/>
<path d="M22.0177 222.194L21.9991 222.187C20.2747 221.54 18.9757 220.973 18.1398 220.475C17.727 220.229 17.3865 219.976 17.1688 219.71C17.1411 219.677 17.1143 219.641 17.0889 219.604C16.9232 220.017 16.7825 220.452 16.7197 220.821L22.0177 222.194ZM22.0177 222.194L22.0367 222.2M22.0177 222.194L22.0367 222.2M22.0367 222.2C25.4021 223.168 27.7796 223.466 29.33 223.519C30.1053 223.546 30.6736 223.511 31.055 223.467C31.127 223.459 31.1923 223.45 31.2511 223.442M22.0367 222.2L31.2511 223.442M31.2511 223.442C31.2634 223.464 31.2755 223.485 31.2873 223.505C31.2888 223.509 31.2906 223.515 31.2927 223.522C31.3042 223.559 31.3193 223.615 31.3371 223.689C31.3723 223.836 31.4137 224.037 31.4528 224.27C31.5094 224.607 31.5591 224.996 31.5803 225.373C28.5547 225.739 24.5324 225.42 20.1394 223.592L31.2511 223.442ZM17.4416 222.056C18.0377 222.573 18.9604 223.101 20.1392 223.592L17.4416 222.056ZM17.4416 222.056C16.8255 221.523 16.6713 221.106 16.7197 220.821L17.4416 222.056Z" fill="#EAEEF9" stroke="black"/>
<path d="M14.4826 285.518L15.2644 281.779C15.2134 282.29 15.1617 282.778 15.1102 283.225C15.0432 283.805 14.9771 284.311 14.9137 284.708C14.8475 285.121 14.7912 285.368 14.7545 285.463C14.7124 285.571 14.6759 285.632 14.6516 285.665C14.5995 285.633 14.5399 285.58 14.4826 285.518ZM14.6938 285.686C14.6938 285.686 14.6929 285.685 14.691 285.685C14.6928 285.685 14.6938 285.686 14.6938 285.686ZM14.3618 285.367C14.3616 285.367 14.3616 285.367 14.3617 285.367L14.3618 285.367Z" fill="#252C45" stroke="black"/>
<defs>
<linearGradient id="paint0_linear_4131_170882" x1="60.6132" y1="307.787" x2="181.598" y2="98.235" gradientUnits="userSpaceOnUse">
<stop offset="0.0309" stop-color="#97BDF8"/>
<stop offset="0.9356" stop-color="#D2E2FC"/>
</linearGradient>
<linearGradient id="paint1_linear_4131_170882" x1="56.3483" y1="211.374" x2="176.972" y2="211.374" gradientUnits="userSpaceOnUse">
<stop stop-color="#F2F4F5"/>
<stop offset="0.8943" stop-color="#FCFCFC"/>
</linearGradient>
</defs>
</svg>
