<svg width="368" height="367" viewBox="0 0 368 367" fill="none" xmlns="http://www.w3.org/2000/svg">
<path d="M244.558 46.8505C228.543 56.0131 217.252 71.4205 203.557 83.7854C186.648 99.0534 165.694 109.8 143.429 114.623C125.112 118.591 105.911 118.647 88.2275 124.857C53.7589 136.961 30.0984 172.885 29.4708 209.411C28.8433 245.937 49.6544 281.321 80.1946 301.368C90.5653 308.176 101.986 313.381 113.928 316.742C136.392 323.064 160.209 322.784 183.42 320.368C223.513 316.193 265.541 293.428 290.808 261.328C302.078 247.01 311.593 231.321 319.173 214.754C331.619 187.549 338.867 157.935 340.106 128.031C341.171 102.335 340.085 73.8617 319.725 55.1418C299.41 36.4637 268.455 33.1783 244.558 46.8505Z" fill="#EBEBEB"/>
<path d="M202.424 340.975C275.122 340.975 334.055 325.104 334.055 305.525C334.055 285.947 275.122 270.076 202.424 270.076C129.726 270.076 70.793 285.947 70.793 305.525C70.793 325.104 129.726 340.975 202.424 340.975Z" fill="#EBEBEB"/>
<path d="M225.038 56.6999V143.447C225.038 147.076 222.097 150.017 218.468 150.017H63.7185C60.0896 150.017 57.1484 147.076 57.1484 143.447V56.6999C57.1484 53.071 60.0896 50.1299 63.7185 50.1299H218.468C222.097 50.1299 225.038 53.071 225.038 56.6999Z" fill="white"/>
<path d="M225.038 56.6999V59.3012H57.1484V56.6999C57.1484 53.071 60.0896 50.1299 63.7185 50.1299H218.468C222.097 50.1299 225.038 53.071 225.038 56.6999Z" fill="#E5E5E5"/>
<path d="M225.038 56.6999V143.447C225.038 147.076 222.097 150.017 218.468 150.017H63.7185C60.0896 150.017 57.1484 147.076 57.1484 143.447V56.6999C57.1484 53.071 60.0896 50.1299 63.7185 50.1299H218.468C222.097 50.1299 225.038 53.071 225.038 56.6999Z" stroke="#263238" stroke-miterlimit="10" stroke-linecap="round" stroke-linejoin="round"/>
<path d="M225.038 56.6999V59.3012H57.1484V56.6999C57.1484 53.071 60.0896 50.1299 63.7185 50.1299H218.468C222.097 50.1299 225.038 53.071 225.038 56.6999Z" stroke="#263238" stroke-miterlimit="10" stroke-linecap="round" stroke-linejoin="round"/>
<path d="M76.0028 54.7153C76.0028 55.6416 75.2519 56.3925 74.3256 56.3925C73.3993 56.3925 72.6484 55.6416 72.6484 54.7153C72.6484 53.789 73.3993 53.0381 74.3256 53.0381C75.2519 53.0381 76.0028 53.789 76.0028 54.7153Z" fill="#FF6B6B"/>
<path d="M84.7763 54.7153C84.7763 55.6416 84.0254 56.3925 83.0991 56.3925C82.1728 56.3925 81.4219 55.6416 81.4219 54.7153C81.4219 53.789 82.1728 53.0381 83.0991 53.0381C84.0254 53.0381 84.7763 53.789 84.7763 54.7153Z" fill="#1C74D0"/>
<path d="M91.8686 56.3925C92.7949 56.3925 93.5458 55.6416 93.5458 54.7153C93.5458 53.789 92.7949 53.0381 91.8686 53.0381C90.9423 53.0381 90.1914 53.789 90.1914 54.7153C90.1914 55.6416 90.9423 56.3925 91.8686 56.3925Z" fill="#EEBD34"/>
<path d="M117.28 94.8222H69.8139C68.318 94.8222 67.1055 93.6096 67.1055 92.1138V69.2798C67.1055 67.7839 68.318 66.5713 69.8139 66.5713H117.28C118.776 66.5713 119.989 67.7839 119.989 69.2798V92.1138C119.989 93.6096 118.776 94.8222 117.28 94.8222Z" stroke="#263238" stroke-miterlimit="10" stroke-linecap="round" stroke-linejoin="round"/>
<path d="M70.2148 91.2705H116.07" stroke="#263238" stroke-miterlimit="10" stroke-linecap="round" stroke-linejoin="round"/>
<path d="M78.9372 85.876H73.6172V91.196H78.9372V85.876Z" fill="#FF6B6B" stroke="#263238" stroke-miterlimit="10"/>
<path d="M86.7263 78.8818H81.4062V91.271H86.7263V78.8818Z" fill="#92E3A9" stroke="#263238" stroke-miterlimit="10"/>
<path d="M95.4997 81.0127H90.1797V91.3959H95.4997V81.0127Z" fill="#E46464" stroke="#263238" stroke-miterlimit="10"/>
<path d="M104.715 70.6709H99.3945V91.0401H104.715V70.6709Z" fill="#92E3A9" stroke="#263238" stroke-miterlimit="10"/>
<path d="M113.929 70.8271H108.609V91.1964H113.929V70.8271Z" fill="#92E3A9" stroke="#263238" stroke-miterlimit="10"/>
<path d="M185.55 96.2866C193.767 96.2866 200.428 89.6254 200.428 81.4085C200.428 73.1915 193.767 66.5303 185.55 66.5303C177.333 66.5303 170.672 73.1915 170.672 81.4085C170.672 89.6254 177.333 96.2866 185.55 96.2866Z" fill="#EEBD34" stroke="#263238" stroke-miterlimit="10"/>
<path d="M186.844 89.0178C186.675 89.0178 186.541 88.9825 186.443 88.9118C186.344 88.8412 186.253 88.7564 186.168 88.6575L181.335 83.1045C181.223 82.9915 181.145 82.8926 181.103 82.8078C181.075 82.7089 181.061 82.5605 181.061 82.3627V81.8964C181.061 81.7552 181.103 81.6421 181.188 81.5573C181.286 81.4584 181.406 81.409 181.546 81.409H182.686C183.671 81.409 184.424 81.2818 184.944 81.0275C185.465 80.7731 185.816 80.434 185.999 80.0101C186.196 79.5862 186.295 79.0988 186.295 78.5477C186.295 78.0249 186.196 77.5516 185.999 77.1277C185.816 76.6897 185.479 76.3435 184.986 76.0891C184.494 75.8348 183.798 75.7076 182.897 75.7076H181.356C181.216 75.7076 181.096 75.6653 180.998 75.5805C180.913 75.4816 180.871 75.3615 180.871 75.2202V74.6691C180.871 74.5278 180.913 74.4148 180.998 74.33C181.096 74.2311 181.216 74.1816 181.356 74.1816H189.756C189.897 74.1816 190.009 74.2311 190.094 74.33C190.192 74.4148 190.241 74.5278 190.241 74.6691V75.2202C190.241 75.3615 190.192 75.4816 190.094 75.5805C190.009 75.6653 189.897 75.7076 189.756 75.7076H186.548L186.02 75.1354C186.935 75.3615 187.561 75.7924 187.899 76.4283C188.236 77.0641 188.405 77.7988 188.405 78.6325C188.405 79.4096 188.236 80.1232 187.899 80.7731C187.575 81.4231 187.055 81.9459 186.337 82.3415C185.634 82.723 184.726 82.9279 183.615 82.9562L182.982 82.9774L183.003 82.1296L188.405 88.3608C188.518 88.4738 188.574 88.5798 188.574 88.6787C188.574 88.7917 188.532 88.8765 188.447 88.933C188.363 88.9896 188.258 89.0178 188.131 89.0178H186.844ZM181.356 79.0988C181.202 79.0988 181.082 79.0564 180.998 78.9716C180.913 78.8868 180.871 78.7667 180.871 78.6113V78.0814C180.871 77.926 180.913 77.8059 180.998 77.7211C181.096 77.6363 181.216 77.594 181.356 77.594H189.756C189.897 77.594 190.009 77.6363 190.094 77.7211C190.192 77.8059 190.241 77.926 190.241 78.0814V78.6113C190.241 78.7667 190.192 78.8868 190.094 78.9716C190.009 79.0564 189.897 79.0988 189.756 79.0988H181.356Z" fill="black"/>
<path d="M65.8672 109.259H70.2147" stroke="#263238" stroke-miterlimit="10" stroke-linecap="round" stroke-linejoin="round"/>
<path d="M65.8672 117.656H70.2147" stroke="#263238" stroke-miterlimit="10" stroke-linecap="round" stroke-linejoin="round"/>
<path d="M65.8672 126.054H70.2147" stroke="#263238" stroke-miterlimit="10" stroke-linecap="round" stroke-linejoin="round"/>
<path d="M65.8672 134.452H70.2147" stroke="#263238" stroke-miterlimit="10" stroke-linecap="round" stroke-linejoin="round"/>
<path d="M79.7891 140.799V137.423" stroke="#263238" stroke-miterlimit="10" stroke-linecap="round" stroke-linejoin="round"/>
<path d="M86.6758 140.799V137.423" stroke="#263238" stroke-miterlimit="10" stroke-linecap="round" stroke-linejoin="round"/>
<path d="M93.5625 140.799V137.423" stroke="#263238" stroke-miterlimit="10" stroke-linecap="round" stroke-linejoin="round"/>
<path d="M100.449 140.799V137.423" stroke="#263238" stroke-miterlimit="10" stroke-linecap="round" stroke-linejoin="round"/>
<path d="M107.336 140.799V137.423" stroke="#263238" stroke-miterlimit="10" stroke-linecap="round" stroke-linejoin="round"/>
<path d="M114.223 140.799V137.423" stroke="#263238" stroke-miterlimit="10" stroke-linecap="round" stroke-linejoin="round"/>
<path d="M121.109 140.799V137.423" stroke="#263238" stroke-miterlimit="10" stroke-linecap="round" stroke-linejoin="round"/>
<path d="M127.996 140.799V137.423" stroke="#263238" stroke-miterlimit="10" stroke-linecap="round" stroke-linejoin="round"/>
<path d="M134.883 140.799V137.423" stroke="#263238" stroke-miterlimit="10" stroke-linecap="round" stroke-linejoin="round"/>
<path d="M141.77 140.799V137.423" stroke="#263238" stroke-miterlimit="10" stroke-linecap="round" stroke-linejoin="round"/>
<path d="M148.656 140.799V137.423" stroke="#263238" stroke-miterlimit="10" stroke-linecap="round" stroke-linejoin="round"/>
<path d="M155.543 140.799V137.423" stroke="#263238" stroke-miterlimit="10" stroke-linecap="round" stroke-linejoin="round"/>
<path d="M162.43 140.799V137.423" stroke="#263238" stroke-miterlimit="10" stroke-linecap="round" stroke-linejoin="round"/>
<path d="M169.316 140.799V137.423" stroke="#263238" stroke-miterlimit="10" stroke-linecap="round" stroke-linejoin="round"/>
<path d="M176.203 140.799V137.423" stroke="#263238" stroke-miterlimit="10" stroke-linecap="round" stroke-linejoin="round"/>
<path d="M182.832 140.799V137.423" stroke="#263238" stroke-miterlimit="10" stroke-linecap="round" stroke-linejoin="round"/>
<path d="M189.457 140.799V137.423" stroke="#263238" stroke-miterlimit="10" stroke-linecap="round" stroke-linejoin="round"/>
<path d="M196.082 140.799V137.423" stroke="#263238" stroke-miterlimit="10" stroke-linecap="round" stroke-linejoin="round"/>
<path d="M213.61 104.116V136.753C213.61 138.988 211.335 140.798 208.527 140.798H70.9501C69.0836 140.798 67.4482 139.999 66.5689 138.804C66.1248 138.203 65.8672 137.502 65.8672 136.753V104.116C65.8672 101.881 68.1426 100.071 70.9509 100.071H208.528C211.335 100.071 213.61 101.881 213.61 104.116Z" stroke="#92E3A9" stroke-miterlimit="10" stroke-linecap="round" stroke-linejoin="round"/>
<path d="M171.742 40.9149L127.825 100.072L111.029 122.695L92.6839 111.012L70.2374 140.799H69.9123C68.4274 140.799 67.126 140 66.4258 138.805L91.6512 105.326L109.981 116.995L122.541 100.072L168.331 38.3906L171.742 40.9149Z" fill="#1C74D0"/>
<path d="M160.598 41.6648L176.743 31.877L172.277 48.803L169.432 40.9727L160.598 41.6648Z" fill="#1C74D0"/>
<path d="M313.348 227.923H55.2094L26.2773 253.647" stroke="#263238" stroke-miterlimit="10" stroke-linecap="round" stroke-linejoin="round"/>
<path d="M55.3711 209.908V159.885" stroke="#263238" stroke-miterlimit="10" stroke-linecap="round" stroke-linejoin="round"/>
<path d="M55.3711 225.018V215.343" stroke="#263238" stroke-miterlimit="10" stroke-linecap="round" stroke-linejoin="round"/>
<path d="M297.813 106.226C297.813 106.226 297.813 103.203 293.579 98.9689C289.344 94.7344 286.628 92.3203 286.628 92.3203C286.628 92.3203 284.511 99.2706 288.438 103.504C291.329 106.489 294.465 109.227 297.812 111.687V106.226H297.813Z" fill="#0DBF8D"/>
<path d="M291.672 125.107C291.672 125.107 291.672 122.084 287.438 117.85C283.203 113.616 280.488 111.202 280.488 111.202C280.488 111.202 278.37 118.152 282.298 122.387C285.19 125.37 288.326 128.107 291.672 130.569V125.107Z" fill="#0DBF8D"/>
<path d="M297.547 111.375C297.547 111.375 297.864 108.368 302.523 104.604C307.182 100.84 310.137 98.7285 310.137 98.7285C310.137 98.7285 311.508 105.888 307.151 109.657C303.962 112.314 300.557 114.699 296.969 116.786L297.547 111.375Z" fill="#0DBF8D"/>
<path d="M290.125 133.673C290.125 133.673 290.759 130.717 295.781 127.465C300.803 124.212 303.964 122.417 303.964 122.417C303.964 122.417 304.578 129.659 299.873 132.977C296.423 135.282 292.786 137.293 289 138.991L290.125 133.673Z" fill="#0DBF8D"/>
<path d="M291.523 157.98C291.523 157.98 291.523 154.957 295.753 150.728C299.982 146.499 302.708 144.08 302.708 144.08C302.708 144.08 304.825 151.035 300.893 155.264C298.005 158.249 294.871 160.986 291.524 163.447V157.98H291.523Z" fill="#0DBF8D"/>
<path d="M291.452 163.917C291.452 163.917 291.882 160.925 288.292 156.134C284.702 151.342 282.354 148.56 282.354 148.56C282.354 148.56 279.286 155.141 282.564 159.892C285.003 163.249 287.718 166.397 290.68 169.302L291.452 163.917Z" fill="#0DBF8D"/>
<path d="M287.277 181.499C287.277 181.499 287.277 178.477 291.507 174.247C295.736 170.018 298.461 167.6 298.461 167.6C298.461 167.6 300.578 174.554 296.646 178.784C293.759 181.769 290.624 184.506 287.277 186.966V181.499Z" fill="#0DBF8D"/>
<path d="M290.101 197.444C290.101 197.444 289.339 194.519 292.367 189.344C295.395 184.168 297.409 181.161 297.409 181.161C297.409 181.161 301.215 187.354 298.488 192.443C296.445 196.055 294.104 199.49 291.488 202.711L290.101 197.444Z" fill="#0DBF8D"/>
<path d="M298.197 105.475C297.982 108.621 297.595 111.754 297.036 114.859C295.364 123.502 291.18 129.081 289.508 136.885C287.836 144.689 292.638 154.753 291.354 164.782C290.071 174.81 286.164 180.384 287.263 187.079C288.363 193.773 294.233 211.891 294.233 211.891" stroke="#263238" stroke-width="1.1775" stroke-linecap="round" stroke-linejoin="round"/>
<path d="M297.504 113.386L302.066 109.883" stroke="#263238" stroke-width="1.1775" stroke-linecap="round" stroke-linejoin="round"/>
<path d="M297.716 109.355L295.809 105.96" stroke="#263238" stroke-width="1.1775" stroke-linecap="round" stroke-linejoin="round"/>
<path d="M289.762 136.507C289.762 136.507 293.577 133.643 297.504 130.779" stroke="#263238" stroke-width="1.1775" stroke-linecap="round" stroke-linejoin="round"/>
<path d="M291.669 130.533C291.669 130.533 288.488 124.294 284.883 120.156" stroke="#263238" stroke-width="1.1775" stroke-linecap="round" stroke-linejoin="round"/>
<path d="M291.672 162.281C293.858 158.264 296.614 154.584 299.855 151.357" stroke="#263238" stroke-width="1.1775" stroke-linecap="round" stroke-linejoin="round"/>
<path d="M290.929 166.525C289.769 163.794 288.386 161.164 286.792 158.66C284.562 155.372 284.234 154.947 284.234 154.947" stroke="#263238" stroke-width="1.1775" stroke-linecap="round" stroke-linejoin="round"/>
<path d="M287.277 187.058C288.243 184.656 289.393 182.331 290.714 180.103C292.036 178.039 293.526 176.087 295.168 174.268" stroke="#263238" stroke-width="1.1775" stroke-linecap="round" stroke-linejoin="round"/>
<path d="M291.483 202.707C291.483 202.707 291.038 199.086 292.629 196.013C294.219 192.94 296.019 188.904 296.766 187.319" stroke="#263238" stroke-width="1.1775" stroke-linecap="round" stroke-linejoin="round"/>
<path d="M270.1 146.611C270.1 146.611 269.767 144.719 271.967 141.605C274.166 138.49 275.603 136.67 275.603 136.67C275.603 136.67 277.684 140.797 275.679 143.881C274.19 146.062 272.52 148.115 270.688 150.018L270.1 146.611Z" fill="#0DBF8D"/>
<path d="M276.002 157.786C276.002 157.786 275.67 155.888 277.864 152.774C280.058 149.659 281.505 147.849 281.505 147.849C281.505 147.849 283.587 151.981 281.582 155.059C280.094 157.242 278.424 159.295 276.591 161.196L276.002 157.786Z" fill="#0DBF8D"/>
<path d="M270.826 149.813C270.826 149.813 270.314 147.962 266.97 146.111C263.625 144.26 261.555 143.247 261.555 143.247C261.555 143.247 261.473 147.849 264.623 149.783C266.912 151.099 269.307 152.223 271.782 153.142L270.826 149.813Z" fill="#0DBF8D"/>
<path d="M277.899 162.987C277.899 162.987 277.179 161.202 273.675 159.709C270.172 158.216 267.988 157.438 267.988 157.438C267.988 157.438 268.392 162.041 271.716 163.611C274.13 164.682 276.63 165.549 279.188 166.204L277.899 162.987Z" fill="#0DBF8D"/>
<path d="M279.664 178.384C279.664 178.384 279.336 176.487 276.222 174.293C273.108 172.099 271.139 170.877 271.139 170.877C271.139 170.877 270.567 175.48 273.492 177.694C275.627 179.244 277.888 180.613 280.252 181.785L279.664 178.384Z" fill="#0DBF8D"/>
<path d="M280.348 182.097C280.348 182.097 279.755 180.266 281.484 176.875C283.212 173.485 284.388 171.48 284.388 171.48C284.388 171.48 287.032 175.275 285.488 178.609C284.315 180.979 282.947 183.248 281.396 185.391L280.348 182.097Z" fill="#0DBF8D"/>
<path d="M285.662 197.389C285.662 197.389 285.882 195.476 288.864 193.108C291.845 190.74 293.743 189.411 293.743 189.411C293.743 189.411 294.577 193.958 291.784 196.351C289.741 198.022 287.562 199.521 285.27 200.831L285.662 197.389Z" fill="#0DBF8D"/>
<path d="M284.874 192.673C284.874 192.673 284.546 190.776 281.432 188.582C278.317 186.388 276.354 185.166 276.354 185.166C276.354 185.166 275.782 189.769 278.701 191.983C280.838 193.534 283.101 194.902 285.467 196.074L284.874 192.673Z" fill="#0DBF8D"/>
<path d="M284.832 202.978C284.832 202.978 284.996 201.06 282.541 198.151C280.087 195.241 278.491 193.548 278.491 193.548C278.491 193.548 276.773 197.844 279.039 200.738C280.712 202.785 282.552 204.689 284.542 206.43L284.832 202.978Z" fill="#0DBF8D"/>
<path d="M269.773 146.167C270.25 148.119 270.833 150.043 271.523 151.93C273.507 157.167 276.734 160.21 278.631 164.925C280.529 169.64 278.631 176.467 280.503 182.614C282.375 188.762 285.453 191.82 285.479 196.157C285.505 200.493 283.802 212.476 283.802 212.476" stroke="#263238" stroke-width="1.1775" stroke-linecap="round" stroke-linejoin="round"/>
<path d="M271.065 151.066L267.828 149.368" stroke="#263238" stroke-width="1.1775" stroke-linecap="round" stroke-linejoin="round"/>
<path d="M270.5 148.566L271.329 146.229" stroke="#263238" stroke-width="1.1775" stroke-linecap="round" stroke-linejoin="round"/>
<path d="M278.434 164.725C278.434 164.725 275.729 163.344 272.957 161.974" stroke="#263238" stroke-width="1.1775" stroke-linecap="round" stroke-linejoin="round"/>
<path d="M276.59 161.217C277.385 158.703 278.434 156.277 279.72 153.976" stroke="#263238" stroke-width="1.1775" stroke-linecap="round" stroke-linejoin="round"/>
<path d="M280.038 181.096C278.233 178.813 276.108 176.805 273.727 175.133" stroke="#263238" stroke-width="1.1775" stroke-linecap="round" stroke-linejoin="round"/>
<path d="M280.961 183.678C281.39 181.843 281.972 180.047 282.7 178.308C283.722 176.002 283.896 175.7 283.896 175.7" stroke="#263238" stroke-width="1.1775" stroke-linecap="round" stroke-linejoin="round"/>
<path d="M285.336 199.428C285.336 199.428 287.478 196.8 288.819 195.812C289.623 195.217 290.379 194.559 291.079 193.844" stroke="#263238" stroke-width="1.1775" stroke-linecap="round" stroke-linejoin="round"/>
<path d="M285.477 196.156C284.609 194.754 283.636 193.421 282.567 192.166C281.514 191.016 280.368 189.954 279.141 188.99" stroke="#263238" stroke-width="1.1775" stroke-linecap="round" stroke-linejoin="round"/>
<path d="M284.543 206.43C284.436 204.962 283.939 203.55 283.101 202.339C281.767 200.579 280.197 198.247 279.562 197.332" stroke="#263238" stroke-width="1.1775" stroke-linecap="round" stroke-linejoin="round"/>
<path d="M298.635 233.151H279.36C278.566 233.151 277.923 232.507 277.923 231.714L275.156 210.383H302.838L300.072 231.714C300.072 232.507 299.428 233.151 298.635 233.151Z" fill="#1C74D0"/>
<path d="M302.593 213.993H275.157C273.967 213.993 272.999 213.035 272.988 211.846C272.988 210.651 273.956 209.683 275.151 209.683C275.153 209.683 275.155 209.683 275.157 209.683H302.593C303.788 209.68 304.759 210.646 304.762 211.841C304.762 211.842 304.762 211.844 304.762 211.846C304.751 213.036 303.783 213.993 302.593 213.993Z" fill="#175392"/>
<path d="M247.55 293.424C240.676 301.585 232.605 308.736 223.443 314.233C220.574 315.949 217.642 317.478 214.638 318.827C193.786 328.203 170.018 328.811 147.789 323.421C101.058 312.097 76.2626 270.847 73.1166 225.055C72.2674 212.676 70.3729 199.312 75.3869 187.541C80.3568 175.867 90.5374 168.466 102.005 163.371C110.327 159.671 119.319 157.177 127.488 155.148C142.362 151.457 157.781 153.146 171.59 159.698C181.199 164.257 188.046 172.149 196.126 178.844C196.984 179.55 197.842 180.256 198.709 180.954C206.87 187.524 215.469 193.566 224.416 199.018C238.002 207.304 251.91 215.125 260.59 229.042C274.427 251.218 262.745 275.369 247.55 293.424Z" fill="#FF6B6B"/>
<path d="M198.709 180.95C197.842 180.254 196.982 179.551 196.126 178.842C188.043 172.15 181.196 164.256 171.59 159.697C157.779 153.143 142.356 151.458 127.487 155.149C108.06 159.97 83.9602 167.394 75.3849 187.542C70.3738 199.315 72.2668 212.675 73.1175 225.052C76.2649 270.846 101.054 312.097 147.786 323.423C173.217 329.587 200.65 327.901 223.444 314.232C232.601 308.74 240.677 301.582 247.544 293.424C262.74 275.37 274.429 251.216 260.593 229.041C251.912 215.126 238.005 207.306 224.414 199.02C215.465 193.563 206.874 187.522 198.709 180.95Z" stroke="#263238" stroke-miterlimit="10"/>
<path d="M127.885 262.611C124.03 263.802 120.146 265.291 116.605 267.148" stroke="#263238" stroke-miterlimit="10" stroke-linecap="round" stroke-linejoin="round"/>
<path d="M151.735 258.078C151.735 258.078 144.093 258.6 134.812 260.752" stroke="#263238" stroke-miterlimit="10" stroke-linecap="round" stroke-linejoin="round"/>
<path d="M146.747 256.898C146.747 256.898 124.813 244.141 98.3438 254.366" stroke="#263238" stroke-miterlimit="10" stroke-linecap="round" stroke-linejoin="round"/>
<path opacity="0.1" d="M247.548 293.424C240.674 301.585 232.603 308.735 223.441 314.232C220.572 315.948 217.64 317.477 214.637 318.826C212.251 318.093 209.908 317.244 207.611 316.252C193.917 310.371 182.422 300.449 171.187 290.652C164.411 284.753 157.529 278.765 149.422 274.894C138.588 269.719 125.833 268.673 114.303 272.007C120.255 265.241 128.622 260.638 137.525 259.225C131.733 253.952 123.662 251.735 115.823 251.592C107.984 251.44 103.666 252.414 96.015 254.13C98.5715 249.419 105.374 245.156 110.737 245.281C105.374 245.155 99.2512 244.798 95.488 244.2C88.5605 243.083 85.4682 234.94 84.431 228.012C81.5706 208.938 84.467 188.603 94.8802 172.379C97.061 168.982 99.4391 165.997 102.004 163.369C110.326 159.669 119.318 157.175 127.487 155.146C142.361 151.455 157.78 153.144 171.589 159.696C181.198 164.255 188.045 172.147 196.125 178.842C196.983 179.548 197.841 180.254 198.708 180.952C206.869 187.522 215.468 193.564 224.415 199.016C238.001 207.302 251.909 215.123 260.589 229.04C274.425 251.217 262.743 275.369 247.548 293.424Z" fill="black"/>
<path d="M255.169 292.883C255.169 292.883 261.336 298.074 268.061 302.384C276.791 302.971 272.876 313.524 272.876 313.524L265.404 318.326C265.404 318.326 252.641 308.182 245.676 304.887C238.71 301.591 255.169 292.883 255.169 292.883Z" fill="white"/>
<path opacity="0.3" d="M193.18 181.815C193.18 181.815 191.982 169.974 190.076 166.647L161.097 160.725V158.481C161.097 158.481 161.766 154.574 155.306 152.13C148.846 149.687 135.389 152.863 131.917 155.49C128.445 158.116 129.717 162.638 129.717 162.638C129.717 162.638 118.041 168.554 112.79 170.805C107.539 173.054 100.254 177.411 100.254 177.411C100.254 177.411 97.8808 204.621 98.3455 210.941C98.8101 217.261 97.9682 223.207 98.5077 226.709C99.0479 230.212 99.4765 232.202 103.151 235.181C106.825 238.16 110.155 242.558 119.782 238.195L118.439 237.133L181.814 215.824L193.18 181.815Z" fill="black"/>
<path d="M193.18 181.815C193.18 181.815 191.982 169.974 190.076 166.647L161.097 160.725V158.481C161.097 158.481 161.766 154.574 155.306 152.13C148.846 149.687 135.389 152.863 131.917 155.49C128.445 158.116 129.717 162.638 129.717 162.638C129.717 162.638 118.041 168.554 112.79 170.805C107.539 173.054 100.254 177.411 100.254 177.411C100.254 177.411 97.8808 204.621 98.3455 210.941C98.8101 217.261 97.9682 223.207 98.5077 226.709C99.0479 230.212 99.4765 232.202 103.151 235.181C106.825 238.16 110.155 242.558 119.782 238.195L118.439 237.133L181.814 215.824L193.18 181.815Z" fill="#EEBD34"/>
<path opacity="0.1" d="M190.457 168.075H178.333C175.978 168.075 173.968 169.779 173.582 172.102L167.606 208.094C167.606 208.094 159.38 208.778 153.552 213.032C147.725 217.286 133.39 186.96 110.735 186.945C110.735 186.945 117.254 201.842 118.7 213.733C118.7 213.733 104.541 212.192 102.19 217.732C99.838 223.273 103.258 233.66 109.244 229.642C115.23 225.624 120.839 218.897 124.875 223.116C128.912 227.334 146.747 229.642 146.747 229.642L174.251 215.825L184.918 210.811L190.457 168.075Z" fill="black"/>
<path opacity="0.4" d="M151.957 150.259C151.957 150.259 158.844 152.169 159.959 154.478C161.074 156.786 160.959 162.639 160.959 162.639C160.959 162.639 159.083 167.837 153.552 172.828L148.411 162.639L148.871 174.197C148.871 174.197 139.125 172.575 134.989 169.457C130.853 166.339 130.853 166.339 130.853 166.339C130.853 166.339 129.073 160.488 129.325 158.482C129.578 156.475 137.037 152.451 137.037 152.451L151.957 150.259Z" fill="white"/>
<path d="M266.638 328.409C266.45 327.985 269.466 322.662 267.104 317.234C264.742 311.807 260.975 313.899 260.975 313.899C260.975 313.899 250.252 307.075 245.744 304.92C241.237 302.764 236.386 299.356 236.386 299.356L231.625 305.769L236.026 319.395L266.638 328.409Z" fill="black"/>
<path d="M260.582 313.57L274.354 321.986C274.354 321.986 284.033 315.774 288.654 311.486C293.275 307.198 303.605 298.074 303.605 298.074L310.2 289.182C310.2 289.182 305.616 283.516 297.983 288.07C288.118 293.956 276.089 302.467 268.061 302.385C268.061 302.385 269.644 312.244 260.582 313.57Z" fill="black"/>
<path d="M149.625 114.67C149.625 114.67 155.875 124.123 157.012 127.185C158.149 130.246 159.066 134.777 158.835 136.954C158.604 139.131 156.323 150.811 155.143 151.153L154.035 152.406L154.745 157.353C154.745 157.353 149.857 165.806 135.483 159.61C135.483 159.61 134.923 149.74 133.176 146.644C131.429 143.549 128.814 147.232 126.199 138.284C123.584 129.337 131.923 119.973 131.923 119.973L149.625 114.67Z" fill="#FFD4B2"/>
<path opacity="0.5" d="M304.246 286.424C304.246 286.424 297.17 287.652 294.87 291.843C292.57 296.034 288.162 303.825 286.657 307.592C285.151 311.359 272.699 320.454 272.699 320.454L274.353 321.986C274.353 321.986 284.485 315.722 290.595 309.77C296.705 303.818 310.196 288.845 310.196 288.845C310.196 288.845 309.233 287.881 304.246 286.424Z" fill="white"/>
<path opacity="0.5" d="M233.372 303.417L231.625 305.77L237.01 316.943L266.639 327.593L268.013 323.253C268.013 323.253 268.471 318.834 258.07 315.505C247.67 312.177 241.328 309.95 238.37 307.649C235.412 305.346 233.372 303.417 233.372 303.417Z" fill="white"/>
<path d="M135.55 220.439C135.55 220.439 126.477 219.078 122.241 226.498C118.005 233.92 118.438 237.133 118.438 237.133C118.438 237.133 124.431 242.58 132.673 242.301C140.916 242.022 152.93 232.522 156.841 229.449C160.753 226.376 170.619 217.574 177.351 219.391L178.093 213.027C178.093 213.027 177.439 210.173 171.68 210.941C165.921 211.708 163.664 214.994 161.812 214.994C159.96 214.994 158.201 213.208 154.447 219.583C154.447 219.583 141.36 221.906 135.55 220.439Z" fill="#FFD4B2"/>
<path d="M147.344 128.27C147.532 129.459 147.808 130.634 148.166 131.782C148.339 132.337 148.542 132.903 148.934 133.332C149.627 134.092 150.739 134.26 151.756 134.414C151.923 134.44 152.106 134.474 152.215 134.604C152.313 134.722 152.323 134.889 152.323 135.043C152.321 136.19 151.97 137.334 151.329 138.285" stroke="#263238" stroke-miterlimit="10" stroke-linecap="round" stroke-linejoin="round"/>
<path d="M143.066 139.951C143.066 139.951 147.829 143.686 152.779 142.286C152.779 142.286 148.11 151.531 143.066 139.951Z" fill="#FB9B9B" stroke="#263238" stroke-miterlimit="10" stroke-linecap="round" stroke-linejoin="round"/>
<path d="M142.92 131.877C143.058 132.905 142.749 133.795 142.23 133.865C141.711 133.934 141.179 133.157 141.041 132.128C140.903 131.1 141.212 130.21 141.731 130.14C142.25 130.07 142.783 130.848 142.92 131.877Z" fill="#263238"/>
<path d="M153.264 130.011C153.402 131.039 153.093 131.929 152.573 131.999C152.055 132.069 151.522 131.291 151.384 130.262C151.246 129.234 151.556 128.344 152.075 128.274C152.595 128.204 153.127 128.981 153.264 130.011Z" fill="#263238"/>
<path d="M142.171 127.519C142.171 127.519 139.394 126.088 137.418 129.154" stroke="#263238" stroke-miterlimit="10" stroke-linecap="round" stroke-linejoin="round"/>
<path d="M149.273 125.611C149.273 125.611 152.203 123.091 153.906 125.611" stroke="#263238" stroke-miterlimit="10" stroke-linecap="round" stroke-linejoin="round"/>
<path d="M132.737 136.965C132.737 136.965 130.951 134.328 129.08 134.413C127.209 134.498 126.443 137.135 127.124 139.686C127.804 142.238 130.611 145.81 132.737 145.469C134.863 145.129 135.798 143.768 135.798 143.768" stroke="#263238" stroke-miterlimit="10" stroke-linecap="round" stroke-linejoin="round"/>
<path d="M149.835 116.805C151.842 118.466 153.961 120.285 155.01 122.733C155.904 124.818 156.108 127.125 156.927 129.241C157.8 131.496 158.76 133.855 158.832 136.314C158.898 138.552 158.389 140.879 157.943 143.058C157.558 144.945 157.26 146.89 156.583 148.699C155.596 151.334 153.765 152.955 151.312 154.207C149.527 155.118 146.555 156.425 144.628 155.192C143.504 154.473 141.819 152.36 140.414 150.428" stroke="#263238" stroke-miterlimit="10" stroke-linecap="round" stroke-linejoin="round"/>
<path d="M132.734 145.469C132.734 145.469 135.889 153.207 135.124 158.65" stroke="#263238" stroke-miterlimit="10" stroke-linecap="round" stroke-linejoin="round"/>
<path d="M131.924 135.664C132.768 135.053 133.251 133.978 133.148 132.942C133.029 131.752 132.203 130.653 132.368 129.468C132.448 128.886 132.761 128.368 132.998 127.832C133.867 125.872 133.721 123.494 132.619 121.656C132.619 121.656 142.644 122.125 147.343 119.136C152.042 116.148 155.618 108.511 152.779 104.858C149.939 101.206 144.405 106.187 140.31 106.739C136.215 107.293 121.606 109.617 119.281 115.262C116.956 120.906 120.499 122.904 120.609 128.269C120.72 133.635 120.714 143.798 128.741 142.867C128.741 142.867 125.74 138.984 127.823 134.982C129.243 133.277 131.924 135.664 131.924 135.664Z" fill="#263238"/>
<path d="M151.589 111.2C151.589 111.2 155.716 113.954 156.39 120.014C156.837 124.038 163.976 131.853 158.832 136.312C158.832 136.312 157.631 131.575 156.927 129.239C156.222 126.904 155.324 122.644 154.141 121.155C152.957 119.667 146.688 114.579 146.688 114.579L151.589 111.2Z" fill="#263238"/>
<path d="M133.662 158.481C133.662 158.481 138.609 161.735 147.798 161.871L148.872 174.196C148.872 174.196 138.544 173.407 130.854 166.338C130.854 166.338 128.778 160.841 129.327 158.481C129.874 156.12 134.797 153.774 134.797 153.774" stroke="#263238" stroke-miterlimit="10" stroke-linecap="round" stroke-linejoin="round"/>
<path d="M154.446 152.966L154.742 157.353C151.402 160.777 147.797 161.873 147.797 161.873L153.551 172.828C153.551 172.828 160.41 167.487 161.095 161.873C161.095 161.873 161.151 156.121 159.959 154.478C158.767 152.835 154.403 152.061 154.403 152.061" stroke="#263238" stroke-miterlimit="10" stroke-linecap="round" stroke-linejoin="round"/>
<path opacity="0.8" d="M126.602 118.905C127.346 117.061 129.344 116.001 131.305 115.672C133.266 115.342 135.273 115.587 137.261 115.534C139.986 115.463 142.736 114.806 145.039 113.348C147.342 111.89 149.163 109.583 149.739 106.919" stroke="white" stroke-miterlimit="10" stroke-linecap="round" stroke-linejoin="round"/>
<path opacity="0.8" d="M121.863 118.551C123.108 114.781 127.129 112.458 131.085 112.123C133.044 111.956 135.025 112.187 136.977 111.958C138.93 111.728 140.962 110.922 141.982 109.241" stroke="white" stroke-miterlimit="10" stroke-linecap="round" stroke-linejoin="round"/>
<path d="M119.781 238.196C110.254 243.143 106.848 238.054 101.535 233.84C96.2216 229.626 99.7029 222.115 98.6034 210.023C97.5039 197.931 100.252 177.411 100.252 177.411C100.252 177.411 102.634 176.861 109.23 172.827C115.825 168.793 129.716 162.639 129.716 162.639" stroke="#263238" stroke-miterlimit="10" stroke-linecap="round" stroke-linejoin="round"/>
<path d="M129.234 219.924C129.234 219.924 127.721 215.131 123.446 215.001C119.171 214.872 112.437 216.8 107.641 225.883" stroke="#263238" stroke-miterlimit="10" stroke-linecap="round" stroke-linejoin="round"/>
<path d="M122.472 214.717C122.206 214.721 121.951 214.624 121.701 214.533C118.208 213.268 114.328 213.093 110.734 214.038" stroke="#263238" stroke-miterlimit="10" stroke-linecap="round" stroke-linejoin="round"/>
<path d="M108.281 183.963C116.048 192.55 119.838 203.912 123.428 214.92" stroke="#263238" stroke-miterlimit="10" stroke-linecap="round" stroke-linejoin="round"/>
<path d="M161.098 160.725C161.098 160.725 175.193 164.086 182.075 164.886C188.957 165.686 190.077 166.646 190.077 166.646L191.357 171.448" stroke="#263238" stroke-miterlimit="10" stroke-linecap="round" stroke-linejoin="round"/>
<path d="M226.772 169.097L178.773 170.943L174.852 220.306H183.075L224.749 210.971L229.993 170.284L226.772 169.097Z" fill="white"/>
<path d="M177.352 221.767L229.843 171.447L224.75 210.971L177.352 221.767Z" fill="#EBEBEB"/>
<path d="M177.352 220.44L181.546 172.827L229.993 170.284L224.75 210.971L177.352 220.44Z" stroke="#263238" stroke-miterlimit="10" stroke-linecap="round" stroke-linejoin="round"/>
<path d="M209.57 193.347C209.242 196.247 207.694 198.452 206.111 198.273C204.529 198.093 203.511 195.599 203.839 192.7C204.166 189.801 205.715 187.596 207.297 187.775C208.88 187.954 209.898 190.449 209.57 193.347Z" fill="#263238"/>
<path d="M253.592 215.337L253.868 214.92L253.592 215.337C255.205 216.401 256.712 218.586 258.043 221.552C259.367 224.499 260.487 228.146 261.365 232.046C263.121 239.849 263.891 248.59 263.418 254.63C262.943 260.68 260.623 270.687 258.408 279.216C257.303 283.473 256.227 287.349 255.428 290.162C255.028 291.568 254.698 292.707 254.467 293.496C254.43 293.624 254.395 293.744 254.362 293.853L239.008 276.437C238.994 276.384 238.975 276.314 238.951 276.226C238.895 276.014 238.813 275.702 238.709 275.3C238.502 274.496 238.212 273.334 237.876 271.904C237.205 269.044 236.355 265.115 235.64 260.837C234.924 256.557 234.345 251.939 234.211 247.696C234.077 243.441 234.394 239.62 235.434 236.904L235.71 236.183L234.939 236.226L234.967 236.725C234.939 236.226 234.939 236.226 234.939 236.226L234.938 236.226L234.936 236.226L234.924 236.227L234.879 236.229L234.7 236.239C234.543 236.247 234.311 236.258 234.013 236.272C233.416 236.3 232.554 236.336 231.493 236.371C229.37 236.442 226.453 236.51 223.276 236.495C216.984 236.465 209.759 236.113 205.625 234.866C205.565 234.773 205.479 234.641 205.368 234.475C205.133 234.125 204.785 233.622 204.327 233.007C203.411 231.777 202.056 230.096 200.295 228.286C197.094 224.998 192.531 221.265 186.807 219.06L224.804 211.469L224.825 211.469C224.866 211.468 224.928 211.466 225.01 211.465C225.173 211.461 225.413 211.457 225.722 211.453C226.339 211.444 227.23 211.438 228.32 211.444C230.501 211.456 233.48 211.52 236.674 211.727C239.87 211.934 243.27 212.282 246.297 212.862C249.339 213.444 251.944 214.249 253.592 215.337Z" fill="black" stroke="black"/>
<path d="M257.971 295.337C251.197 289.202 244.661 280.758 242.722 277.756C234.964 265.769 224.238 254.239 213.208 245.292C204.314 238.079 202.303 226.333 191.336 220.443C173.173 210.7 157.468 230.06 151.595 233.975C145.723 237.891 135.551 242.306 135.551 242.306C135.551 242.306 139.26 256.224 150.165 257.904C161.07 259.584 172.108 252.031 177.355 255.67C182.602 259.298 186.436 275.521 203.67 285.032C217.757 292.799 236.947 300.379 246.851 305.482C249.068 306.627 250.698 307.832 251.946 308.512C255.366 310.378 259.021 312.577 262.469 314.748L274.352 321.986C274.352 321.986 286.278 314.932 290.858 308.427C291.474 307.553 292.739 305.225 293.928 302.978C296.523 298.074 299.786 293.669 304.344 291.219C307.489 289.53 310.286 289.011 310.197 288.844C309.893 288.284 304.201 285.373 300.329 286.967C292.139 290.346 275.766 303.347 268.061 302.385C268.061 302.385 262.446 299.391 257.971 295.337Z" stroke="#263238" stroke-miterlimit="10"/>
<path d="M136.211 242.751C136.192 242.69 136.175 242.634 136.159 242.583C136.174 242.576 136.19 242.569 136.206 242.562C136.496 242.433 136.918 242.245 137.442 242.007C138.491 241.531 139.95 240.856 141.593 240.057C144.873 238.464 148.91 236.371 151.876 234.393C152.644 233.881 153.522 233.128 154.495 232.242C154.993 231.788 155.533 231.284 156.103 230.751C156.635 230.255 157.192 229.734 157.765 229.208C160.171 227.001 163.021 224.543 166.31 222.512C172.871 218.461 181.153 216.114 191.119 220.892C196.598 223.52 199.78 227.825 202.724 232.449C203.146 233.111 203.563 233.781 203.982 234.453C206.471 238.448 209.017 242.536 212.893 245.679C223.886 254.597 234.575 266.089 242.302 278.026C244.207 280.976 250.438 289.083 257.055 295.179C250.698 297.952 247.834 301.965 246.597 304.79C242.626 302.772 237.287 300.385 231.44 297.772C229.998 297.128 228.525 296.469 227.035 295.8C219.238 292.296 210.936 288.466 203.912 284.594C195.393 279.892 190.18 273.53 186.436 267.869C185.236 266.055 184.198 264.331 183.244 262.747C182.7 261.844 182.184 260.987 181.681 260.185C180.32 258.014 179.048 256.232 177.641 255.258C176.189 254.252 174.376 254.047 172.384 254.222C170.393 254.396 168.139 254.959 165.758 255.568C165.642 255.598 165.525 255.628 165.408 255.658C160.696 256.866 155.445 258.211 150.242 257.409C144.999 256.601 141.452 252.846 139.195 249.209C138.071 247.396 137.28 245.633 136.77 244.322C136.515 243.667 136.331 243.126 136.211 242.751Z" fill="black" stroke="black"/>
<path d="M175.485 210.87C169.42 209.547 162.762 216.25 159.96 214.995C157.875 214.062 154.447 219.584 154.447 219.584C154.447 219.584 145.57 220.955 137.402 220.439C129.234 219.924 125.362 221.51 122.472 225.883L118.438 236.572C118.438 236.572 129.083 246.126 140.46 240.56C151.837 234.993 166.942 218.244 177.35 218.302" stroke="#263238" stroke-miterlimit="10" stroke-linecap="round" stroke-linejoin="round"/>
<path d="M260.117 313.284C260.117 313.284 270.077 314.102 267.738 302.209" stroke="#263238" stroke-miterlimit="10"/>
<path d="M307.024 294.863C306.269 296.361 297.162 304.096 289.301 310.886C289.324 310.78 291.475 306.637 292.419 304.868C294.505 300.961 299.907 290.252 310.195 288.844C311.654 289.722 307.024 294.863 307.024 294.863Z" fill="#263238"/>
<path d="M303.111 286.5C292.712 288.576 290.35 301.9 286.657 307.593C282.963 313.286 272.699 320.979 272.699 320.979" stroke="#263238" stroke-miterlimit="10"/>
<path d="M267.101 317.57C268.792 320.671 267.992 324.265 267.101 326.517C266.353 328.412 265.469 329.725 265.469 329.725C250.746 327.306 236.022 319.394 236.022 319.394L232.226 307.648L231.621 305.769L237.335 298.073" stroke="#263238" stroke-miterlimit="10"/>
<path d="M267.102 326.518C266.354 328.413 265.47 329.726 265.47 329.726C250.747 327.306 236.023 319.395 236.023 319.395L232.227 307.648C234.128 310.132 237.654 313.76 242.939 315.257C250.11 317.286 263.346 319.665 267.102 326.518Z" fill="#263238"/>
<path d="M174.852 218.588L178.773 170.943L226.772 169.097L229.993 170.284" stroke="#263238" stroke-miterlimit="10" stroke-linecap="round" stroke-linejoin="round"/>
<path d="M267.637 307.593C267.637 307.593 274.202 308.764 279.241 304.65C284.28 300.536 292.41 291.24 292.41 291.24" stroke="#263238" stroke-miterlimit="10"/>
<path d="M274.352 301.657C274.352 301.657 272.769 304.043 274.352 308.834" stroke="#263238" stroke-miterlimit="10" stroke-linecap="round" stroke-linejoin="round"/>
<path d="M279.008 299.391C279.008 299.391 277.739 302.959 279.601 306.565" stroke="#263238" stroke-miterlimit="10" stroke-linecap="round" stroke-linejoin="round"/>
<path d="M284.552 296.175C284.552 296.175 283.222 300.163 284.552 303.68" stroke="#263238" stroke-miterlimit="10" stroke-linecap="round" stroke-linejoin="round"/>
<path d="M238.639 297.081L233.371 303.417C233.371 303.417 238.678 309.205 246.151 311.612C253.624 314.019 266.994 318.108 268.099 322.46" stroke="#263238" stroke-miterlimit="10"/>
</svg>
