<svg width="509" height="300" viewBox="0 0 509 300" fill="none" xmlns="http://www.w3.org/2000/svg">
<path d="M480.752 223.868C480.752 223.868 505.171 115.92 438.65 54.6735C379.929 0.608658 286.961 -20.4193 211.181 24.2878C184.18 40.2178 164.527 71.1438 132.985 80.7024C97.6192 91.4209 52.1485 95.2485 19.3079 141.183C-13.532 187.118 -1.74318 246.069 42.0436 277.458C85.8303 308.847 162.457 278.224 231.505 275.927C300.552 273.631 444.543 357.08 480.752 223.868Z" fill="#EBEBEB"/>
<path d="M497.523 296.783H507.973" stroke="#263238" stroke-miterlimit="10" stroke-linecap="round" stroke-linejoin="round"/>
<path d="M7.875 296.783H492.296" stroke="#263238" stroke-miterlimit="10" stroke-linecap="round" stroke-linejoin="round"/>
<path d="M487.83 227.024C487.845 227.064 490.105 225.304 490.235 225.177C491.739 223.702 493.776 219.967 492.719 217.859C491.959 216.34 490.061 216 488.684 216.874C487.278 217.766 486.679 219.727 486.55 221.295C486.399 223.134 487.829 227.021 487.83 227.024Z" fill="#0DBF8D"/>
<path d="M506.775 222.68C505.072 221.049 500.903 221.894 499.051 222.895C498.891 222.982 496.542 224.623 496.576 224.649C496.576 224.649 496.608 224.673 496.617 224.679C495.958 224.808 495.252 224.953 494.485 225.127C493.07 225.46 491.475 225.849 489.768 226.39C488.061 226.925 486.221 227.556 484.342 228.395C482.458 229.233 480.519 230.211 478.651 231.477C478.63 231.491 478.61 231.509 478.589 231.523C479.021 230.983 480.175 229.434 480.251 229.304C481.311 227.484 482.289 223.345 480.714 221.59C479.579 220.326 477.659 220.499 476.562 221.705C475.442 222.936 475.381 224.987 475.672 226.533C475.999 228.276 478.209 231.424 478.386 231.674C476.619 232.896 474.904 234.293 473.247 235.803C472.299 236.665 471.371 237.563 470.451 238.475C470.809 237.997 471.125 237.565 471.163 237.5C472.223 235.681 473.202 231.541 471.626 229.786C470.491 228.522 468.571 228.696 467.474 229.901C466.353 231.133 466.293 233.183 466.583 234.729C466.877 236.298 468.708 239.019 469.202 239.733C468.853 240.087 468.501 240.435 468.153 240.791C466.485 242.493 464.827 244.199 463.15 245.823C462.559 246.395 461.956 246.937 461.355 247.482C461.673 247.057 461.936 246.695 461.97 246.636C463.03 244.817 464.01 240.677 462.433 238.922C461.298 237.658 459.378 237.831 458.281 239.037C457.161 240.269 457.1 242.319 457.39 243.865C457.671 245.362 459.339 247.89 459.922 248.741C459.29 249.28 458.657 249.821 458.02 250.315C457.578 250.642 457.174 250.988 456.711 251.292C456.259 251.602 455.812 251.91 455.368 252.215C454.494 252.771 453.594 253.349 452.727 253.869C452.127 254.236 451.548 254.574 450.965 254.916C451.56 254.353 452.701 253.227 452.786 253.121C453.665 252.033 454.659 249.927 454.852 248.058C454.983 247.898 455.099 247.727 455.198 247.545C455.976 246.112 455.507 244.242 453.939 243.587C451.763 242.677 448.177 244.964 446.808 246.564C446.727 246.659 445.965 247.781 445.496 248.497C445.708 248.034 445.919 247.587 446.131 247.108C446.556 246.164 446.954 245.209 447.385 244.183C447.576 243.681 447.768 243.172 447.963 242.66C448.166 242.155 448.318 241.597 448.499 241.061C448.894 239.809 449.234 238.521 449.547 237.218C450.375 237.588 453.334 238.863 454.914 238.866C456.487 238.869 458.491 238.435 459.498 237.109C460.484 235.81 460.304 233.891 458.854 233.005C456.841 231.775 452.95 233.493 451.354 234.868C451.254 234.954 450.22 236.068 449.664 236.692C449.846 235.906 450.032 235.123 450.191 234.322C450.648 232.011 451.04 229.656 451.44 227.31C451.562 226.591 451.693 225.877 451.821 225.16C452.114 225.295 455.598 226.886 457.368 226.89C458.941 226.893 460.946 226.459 461.953 225.133C462.938 223.834 462.759 221.915 461.308 221.03C459.295 219.801 455.404 221.518 453.808 222.892C453.688 222.996 452.201 224.602 451.844 225.029C452.127 223.453 452.422 221.884 452.777 220.349C453.264 218.231 453.858 216.179 454.581 214.235C454.718 214.297 458.347 215.975 460.159 215.978C461.732 215.981 463.736 215.548 464.743 214.222C465.729 212.923 465.549 211.004 464.099 210.119C462.086 208.89 458.195 210.607 456.599 211.982C456.474 212.09 454.877 213.819 454.609 214.153C454.653 214.038 454.685 213.913 454.729 213.798C455.527 211.732 456.56 209.83 457.614 208.097C458.224 207.089 458.865 206.159 459.507 205.269C460.151 205.65 463.113 207.363 464.744 207.545C466.307 207.721 468.348 207.51 469.494 206.303C470.615 205.12 470.648 203.192 469.304 202.153C467.438 200.711 463.382 201.991 461.644 203.181C461.549 203.246 460.663 204.01 460.024 204.576C460.32 204.179 460.619 203.763 460.911 203.388C462.001 201.977 463.087 200.752 464.058 199.675C464.615 199.068 465.131 198.529 465.618 198.029C466.446 198.074 469.782 198.213 471.286 197.635C472.755 197.071 474.468 195.944 474.929 194.344C475.38 192.777 474.52 191.051 472.849 190.749C470.528 190.328 467.518 193.333 466.524 195.191C466.438 195.351 465.385 198.016 465.428 198.019C465.428 198.019 465.468 198.021 465.478 198.022C464.999 198.493 464.491 199.003 463.948 199.571C462.952 200.629 461.836 201.834 460.71 203.227C459.581 204.616 458.394 206.156 457.29 207.892C456.181 209.63 455.103 211.516 454.244 213.602C454.234 213.626 454.226 213.651 454.217 213.675C454.279 212.987 454.388 211.057 454.379 210.908C454.259 208.805 452.793 204.813 450.51 204.218C448.866 203.79 447.36 204.993 447.11 206.605C446.856 208.25 447.936 209.993 449.031 211.123C450.265 212.397 453.846 213.803 454.132 213.914C453.331 215.908 452.672 218.019 452.123 220.193C451.807 221.435 451.528 222.696 451.265 223.963C451.299 223.367 451.325 222.833 451.321 222.758C451.2 220.655 449.733 216.663 447.451 216.069C445.807 215.64 444.301 216.844 444.051 218.455C443.796 220.1 444.877 221.844 445.972 222.974C447.082 224.119 450.111 225.38 450.917 225.703C450.821 226.19 450.719 226.676 450.625 227.163C450.173 229.504 449.732 231.842 449.228 234.121C449.051 234.925 448.847 235.709 448.646 236.495C448.676 235.965 448.697 235.518 448.693 235.45C448.574 233.347 447.106 229.355 444.824 228.761C443.18 228.332 441.674 229.536 441.425 231.148C441.169 232.793 442.25 234.536 443.345 235.666C444.406 236.759 447.19 237.948 448.146 238.336C447.916 239.134 447.687 239.934 447.427 240.698C447.238 241.215 447.093 241.727 446.875 242.236C446.669 242.744 446.466 243.248 446.264 243.746C445.84 244.692 445.41 245.671 444.973 246.583C444.675 247.219 444.378 247.821 444.081 248.428C444.267 247.631 444.597 246.061 444.61 245.927C444.81 243.83 443.965 239.662 441.798 238.728C440.237 238.056 438.567 239.018 438.076 240.572C437.575 242.16 438.379 244.046 439.29 245.329C440.293 246.74 443.48 248.611 443.88 248.843C443.386 249.845 442.895 250.815 442.418 251.723C441.794 252.917 441.193 254.022 440.63 255.034C440.884 255.41 441.204 255.872 441.578 256.401C442.225 255.193 442.927 253.843 443.663 252.358C444.169 251.343 444.69 250.247 445.214 249.118C445.499 249.199 447.124 249.652 448.695 249.884C448.854 251.656 450.37 254.756 450.569 255.155C449.604 255.717 448.66 256.255 447.76 256.75C446.211 257.605 444.778 258.357 443.496 259.01C443.794 259.401 444.107 259.803 444.431 260.213C445.651 259.556 446.996 258.81 448.448 257.966C449.431 257.399 450.47 256.772 451.53 256.119C451.825 256.463 454.251 259.263 455.824 259.992C457.252 260.653 459.253 261.1 460.723 260.317C462.162 259.551 462.803 257.733 461.857 256.321C460.545 254.362 456.291 254.291 454.267 254.87C454.147 254.904 452.893 255.42 452.107 255.758C452.539 255.489 452.961 255.233 453.402 254.95C454.278 254.397 455.136 253.82 456.061 253.202C456.498 252.888 456.938 252.57 457.384 252.25C457.832 251.942 458.266 251.56 458.713 251.213C459.733 250.387 460.726 249.5 461.707 248.585C462.193 249.351 463.957 252.047 465.274 252.921C466.584 253.792 468.496 254.536 470.067 253.985C471.605 253.445 472.514 251.746 471.793 250.207C470.792 248.071 466.599 247.357 464.51 247.622C464.379 247.639 462.902 247.999 462.094 248.211C462.679 247.657 463.266 247.106 463.84 246.525C465.497 244.85 467.122 243.102 468.751 241.366C469.249 240.834 469.753 240.31 470.255 239.783C470.424 240.058 472.453 243.307 473.927 244.286C475.237 245.156 477.149 245.901 478.72 245.35C480.258 244.81 481.167 243.11 480.446 241.571C479.445 239.436 475.252 238.722 473.163 238.987C473.005 239.007 470.88 239.528 470.346 239.686C471.452 238.527 472.564 237.382 473.707 236.297C475.281 234.798 476.909 233.415 478.585 232.192C478.664 232.32 480.765 235.721 482.275 236.724C483.585 237.594 485.497 238.339 487.068 237.788C488.606 237.248 489.515 235.549 488.794 234.01C487.793 231.874 483.6 231.16 481.511 231.426C481.347 231.447 479.061 232.008 478.653 232.139C478.754 232.067 478.849 231.981 478.949 231.909C480.755 230.626 482.665 229.609 484.5 228.746C485.565 228.242 486.612 227.819 487.64 227.431C487.966 228.105 489.492 231.166 490.751 232.219C491.958 233.228 493.777 234.177 495.398 233.803C496.986 233.435 498.077 231.846 497.529 230.237C496.768 228.005 492.679 226.834 490.574 226.869C490.459 226.87 489.297 227.019 488.452 227.138C488.919 226.97 489.397 226.788 489.847 226.636C491.535 226.061 493.116 225.638 494.52 225.276C495.32 225.076 496.047 224.911 496.729 224.764C497.394 225.258 500.099 227.214 501.674 227.562C503.21 227.901 505.261 227.906 506.527 226.826C507.768 225.768 508.003 223.855 506.775 222.68Z" fill="#0DBF8D"/>
<path d="M455.218 200.75C456.108 202.368 459.444 204.821 459.446 204.823C459.481 204.848 460.395 202.133 460.433 201.955C460.873 199.895 460.512 195.657 458.468 194.481C456.995 193.634 455.225 194.398 454.559 195.885C453.879 197.404 454.46 199.37 455.218 200.75Z" fill="#0DBF8D"/>
<path d="M95.8573 45.2488C95.9297 45.2436 94.1167 40.7755 93.9697 40.5068C92.2708 37.3965 87.1601 32.3851 83.2616 33.1278C80.4529 33.6622 79.0325 36.5792 79.8147 39.2081C80.6141 41.8937 83.5139 43.7642 85.9935 44.692C88.9038 45.7817 95.8521 45.2495 95.8573 45.2488Z" fill="#0DBF8D"/>
<path d="M97.5119 12.5856C94.0897 14.5957 93.5455 21.7321 94.3166 25.1917C94.3837 25.4903 95.9624 30.0464 96.0206 30.0024C96.0206 30.0024 96.0744 29.9613 96.0878 29.9509C95.993 31.0765 95.9049 32.2856 95.8348 33.6075C95.725 36.0498 95.6228 38.8115 95.7146 41.8233C95.7982 44.8336 95.9743 48.1021 96.4707 51.5281C96.9633 54.9631 97.6567 58.5511 98.8495 62.1548C98.8629 62.1959 98.8824 62.2362 98.8951 62.2772C98.2188 61.3315 96.2401 58.7497 96.0654 58.569C93.6052 56.0178 87.3525 52.5343 83.7884 54.2794C81.2215 55.5379 80.6207 58.7258 82.0694 61.0546C83.5496 63.4334 86.8405 64.4717 89.4768 64.712C92.4498 64.9822 98.5607 62.8475 99.0466 62.6758C100.214 66.0981 101.69 69.5144 103.374 72.8905C104.334 74.8214 105.362 76.736 106.417 78.6438C105.805 77.8451 105.253 77.1353 105.165 77.0442C102.705 74.493 96.452 71.0095 92.8879 72.7554C90.3195 74.0138 89.7202 77.201 91.1689 79.5305C92.6483 81.9101 95.94 82.9476 98.5763 83.188C101.251 83.4313 106.498 81.716 107.88 81.2428C108.292 81.9698 108.695 82.7013 109.11 83.4268C111.101 86.9088 113.103 90.3759 114.962 93.8363C115.618 95.0552 116.219 96.28 116.825 97.5034C116.28 96.795 115.818 96.2016 115.737 96.1188C113.278 93.5668 107.025 90.0833 103.461 91.8292C100.893 93.0869 100.293 96.2748 101.742 98.6043C103.221 100.983 106.514 102.021 109.149 102.262C111.701 102.495 116.559 100.954 118.205 100.4C118.787 101.671 119.373 102.944 119.88 104.202C120.207 105.069 120.581 105.881 120.861 106.769C121.157 107.644 121.449 108.509 121.74 109.366C122.237 111.037 122.761 112.759 123.205 114.401C123.523 115.542 123.804 116.634 124.091 117.733C123.453 116.513 122.152 114.148 122.021 113.963C120.662 112.04 117.711 109.465 114.771 108.295C114.572 108.01 114.35 107.743 114.1 107.499C112.137 105.583 108.894 105.484 107.114 107.721C104.642 110.826 106.699 117.682 108.662 120.632C108.778 120.806 110.245 122.555 111.188 123.643C110.536 123.087 109.91 122.542 109.231 121.978C107.898 120.856 106.534 119.774 105.071 118.605C104.345 118.066 103.611 117.521 102.87 116.971C102.146 116.409 101.311 115.908 100.527 115.369C98.6816 114.155 96.7528 113.015 94.7846 111.909C95.7646 110.739 99.1861 106.533 99.9161 103.976C100.642 101.431 100.861 97.9863 99.1757 95.7486C97.5254 93.5571 94.336 92.9674 92.2363 94.9089C89.3231 97.6042 90.3173 104.692 91.8109 107.906C91.9042 108.107 93.2343 110.292 93.9881 111.479C92.7991 110.823 91.6168 110.164 90.3934 109.539C86.8614 107.737 83.2294 106.024 79.6137 104.298C78.5061 103.77 77.4088 103.231 76.3079 102.695C76.6617 102.282 80.8364 97.3705 81.6537 94.5073C82.3799 91.962 82.5986 88.5173 80.9132 86.2788C79.2629 84.0874 76.0735 83.497 73.9746 85.4391C71.0606 88.1344 72.0556 95.2224 73.5484 98.4364C73.6611 98.679 75.5801 101.821 76.1071 102.596C73.6842 101.415 71.28 100.216 68.958 98.9372C65.7514 97.1772 62.703 95.2739 59.8861 93.21C60.0503 93.0182 64.4317 87.912 65.2685 84.9793C65.9955 82.4341 66.2134 78.9901 64.528 76.7516C62.8777 74.5602 59.6883 73.9705 57.5894 75.9119C54.6754 78.6072 55.6703 85.6952 57.1639 88.9092C57.2811 89.1622 59.3472 92.5412 59.7659 93.1272C59.598 93.004 59.4114 92.895 59.2464 92.7711C56.2675 90.5297 53.6625 87.9859 51.3404 85.4839C49.9887 84.0329 48.7772 82.5699 47.6307 81.1204C48.5443 80.2531 52.6742 76.2433 53.7192 73.6869C54.7202 71.2364 55.3158 67.8372 53.8872 65.4271C52.4876 63.0677 49.3811 62.1309 47.0821 63.8305C43.8905 66.1892 44.101 73.3435 45.2318 76.7024C45.293 76.8853 46.1237 78.6729 46.747 79.9664C46.2402 79.3044 45.7042 78.6304 45.2303 77.9862C43.4464 75.5723 41.9617 73.2525 40.663 71.1871C39.9345 70.0063 39.2985 68.9248 38.7148 67.9067C39.1672 66.5878 40.9227 61.2502 40.6772 58.5496C40.4368 55.9133 39.3986 52.6224 37.0197 51.1423C34.6902 49.6935 31.5023 50.2936 30.2446 52.8612C28.4987 56.4254 31.9822 62.6781 34.5334 65.1382C34.7544 65.3502 38.5842 68.2791 38.6089 68.2105C38.6089 68.2105 38.6312 68.1463 38.6357 68.1306C39.1784 69.1218 39.771 70.178 40.4428 71.3193C41.6983 73.4174 43.1366 75.7761 44.875 78.2385C46.6059 80.7031 48.5555 83.3328 50.859 85.9161C53.1646 88.5091 55.7218 91.1193 58.7053 93.4675C58.7388 93.4937 58.7777 93.5176 58.8112 93.5437C57.726 93.1272 54.6507 92.0665 54.4052 92.012C50.9463 91.241 43.8091 91.7844 41.799 95.2067C40.3517 97.6728 41.6094 100.662 44.1032 101.806C46.65 102.974 49.9677 102.024 52.2988 100.77C54.9277 99.356 58.8471 94.2043 59.1576 93.793C62.0193 96.0039 65.1348 98.0393 68.4019 99.9255C70.2679 101.006 72.1817 102.036 74.1134 103.045C73.1632 102.716 72.3108 102.429 72.1877 102.401C68.7281 101.63 61.5916 102.174 59.5815 105.597C58.1335 108.063 59.392 111.052 61.8857 112.196C64.4325 113.364 67.751 112.414 70.0821 111.16C72.4467 109.887 75.8765 105.562 76.7684 104.405C77.5141 104.785 78.253 105.172 78.9994 105.548C82.5815 107.355 86.1635 109.141 89.6224 111.002C90.8428 111.658 92.0184 112.347 93.1992 113.033C92.3542 112.741 91.6407 112.503 91.5287 112.478C88.0698 111.707 80.9326 112.25 78.9226 115.673C77.4753 118.139 78.733 121.129 81.2267 122.272C83.7735 123.44 87.0913 122.49 89.4231 121.236C91.681 120.021 94.8816 116.058 95.9482 114.688C97.135 115.427 98.3263 116.165 99.4429 116.935C100.194 117.477 100.954 117.948 101.678 118.535C102.408 119.102 103.129 119.662 103.844 120.217C105.181 121.337 106.567 122.484 107.844 123.608C108.738 124.384 109.575 125.139 110.421 125.898C109.215 125.232 106.826 123.977 106.614 123.895C103.312 122.609 96.1759 122.065 93.6702 125.144C91.8661 127.362 92.6558 130.507 94.948 132.015C97.288 133.555 100.713 133.119 103.206 132.233C105.952 131.257 110.444 126.955 111.001 126.414C112.397 127.674 113.742 128.914 114.993 130.104C116.638 131.661 118.153 133.141 119.533 134.519C120.258 134.278 121.153 133.975 122.181 133.611C120.522 132.009 118.659 130.253 116.592 128.379C115.18 127.094 113.646 125.748 112.057 124.382C112.319 123.957 113.799 121.534 114.895 119.099C117.837 119.655 123.552 118.622 124.288 118.483C124.756 120.303 125.195 122.08 125.582 123.761C126.256 126.662 126.817 129.327 127.285 131.702C128.054 131.399 128.848 131.078 129.661 130.74C129.157 128.464 128.566 125.945 127.867 123.205C127.399 121.354 126.861 119.385 126.291 117.368C126.983 117.049 132.628 114.407 134.532 112.194C136.257 110.186 137.899 107.151 137.307 104.412C136.727 101.731 134.077 99.8591 131.357 100.743C127.583 101.969 125.517 108.822 125.526 112.366C125.526 112.575 125.785 114.843 125.973 116.271C125.735 115.449 125.514 114.647 125.258 113.803C124.766 112.131 124.225 110.477 123.648 108.694C123.341 107.844 123.029 106.984 122.715 106.116C122.421 105.25 122.001 104.37 121.645 103.487C120.775 101.458 119.796 99.4426 118.765 97.4347C120.227 96.9996 125.402 95.3791 127.421 93.6489C129.43 91.9269 131.513 89.1742 131.342 86.3774C131.174 83.6388 128.839 81.3876 126.017 81.8489C122.1 82.4893 119.02 88.951 118.492 92.4554C118.459 92.6741 118.363 95.2313 118.338 96.6368C117.708 95.4343 117.086 94.2311 116.409 93.0354C114.457 89.584 112.373 86.1512 110.31 82.7177C109.677 81.666 109.06 80.6106 108.437 79.5567C108.959 79.4081 115.151 77.6145 117.413 75.6768C119.423 73.9548 121.505 71.2021 121.334 68.406C121.166 65.6682 118.832 63.4162 116.01 63.8783C112.093 64.5187 109.013 70.9796 108.485 74.484C108.445 74.7483 108.312 78.4273 108.324 79.3656C106.955 77.0435 105.611 74.7169 104.38 72.3695C102.676 69.133 101.184 65.863 99.9714 62.5885C100.215 62.5198 106.685 60.6777 109.002 58.6929C111.012 56.971 113.095 54.2182 112.924 51.4214C112.757 48.6836 110.421 46.4316 107.6 46.8929C103.683 47.5333 100.602 53.9943 100.074 57.4987C100.033 57.7741 99.8915 61.7331 99.9176 62.4526C99.846 62.2578 99.7504 62.0638 99.681 61.8682C98.4323 58.3556 97.6635 54.7967 97.1066 51.4289C96.779 49.4725 96.5759 47.5841 96.4192 45.7427C97.6597 45.5233 103.316 44.4574 105.599 42.9019C107.786 41.4105 110.158 38.9033 110.295 36.1058C110.429 33.3657 108.355 30.8712 105.5 31.0197C101.537 31.2265 97.765 37.3097 96.8559 40.735C96.8066 40.9209 96.5132 42.8705 96.3192 44.2932C96.2617 43.4609 96.1863 42.6033 96.146 41.8046C95.99 38.8078 96.0311 36.0535 96.0878 33.6143C96.1311 32.2274 96.1983 30.9742 96.2722 29.8031C97.3769 28.9529 101.786 25.4702 103.071 23.0816C104.325 20.7506 105.275 17.432 104.107 14.8853C102.967 12.396 99.9773 11.1376 97.5119 12.5856Z" fill="#0DBF8D"/>
<path d="M38.3527 85.9993C41.3808 85.3021 46.8827 81.0252 46.8871 81.0222C46.9446 80.9782 42.9677 78.2515 42.6968 78.1082C39.5633 76.4512 32.5366 75.0912 29.6943 77.8612C27.6469 79.8571 28.0708 83.0726 30.1742 84.8341C32.3224 86.633 35.7731 86.5934 38.3527 85.9993Z" fill="#0DBF8D"/>
<path d="M448.62 280.29H106.492V67.7251C106.492 62.4748 110.748 58.2188 115.998 58.2188H439.114C444.365 58.2188 448.621 62.4748 448.621 67.7251L448.62 280.29Z" fill="#263238" stroke="#263238" stroke-miterlimit="10" stroke-linecap="round" stroke-linejoin="round"/>
<path d="M395.909 269.599H160.781V281.184H395.909V269.599Z" fill="#263238" stroke="#263238" stroke-miterlimit="10" stroke-linecap="round" stroke-linejoin="round"/>
<path d="M395.909 275.177H160.781V281.184H395.909V275.177Z" fill="white" stroke="#263238" stroke-miterlimit="10" stroke-linecap="round" stroke-linejoin="round"/>
<path d="M78.8203 288.05C78.8203 288.05 82.6823 292.769 94.2673 296.631H462.405C462.405 296.631 470.987 294.485 474.849 288.479L78.8203 288.05Z" fill="#263238" stroke="#263238" stroke-miterlimit="10" stroke-linecap="round" stroke-linejoin="round"/>
<path d="M472.803 288.618H80.9202C79.3289 288.618 78.0391 287.328 78.0391 285.736V282.477C78.0391 280.885 79.3289 279.596 80.9202 279.596H472.804C474.395 279.596 475.685 280.885 475.685 282.477V285.736C475.684 287.328 474.394 288.618 472.803 288.618Z" fill="#EBEBEB" stroke="#263238" stroke-miterlimit="10" stroke-linecap="round" stroke-linejoin="round"/>
<path d="M280.484 64.9352C280.484 63.2767 279.139 61.9316 277.48 61.9316C275.822 61.9316 274.477 63.2767 274.477 64.9352C274.477 66.5937 275.821 67.9388 277.48 67.9388C279.139 67.938 280.484 66.5937 280.484 64.9352Z" fill="#263238"/>
<path d="M109.718 120.712C109.244 120.712 108.859 120.328 108.859 119.855V94.9687C108.859 94.4947 109.244 94.1104 109.718 94.1104C110.192 94.1104 110.576 94.4947 110.576 94.9687V119.855C110.576 120.329 110.192 120.712 109.718 120.712Z" fill="#263238" stroke="white" stroke-width="0.6917" stroke-miterlimit="10" stroke-linejoin="round"/>
<path d="M434.736 75.5693H120.367V253.226H434.736V75.5693Z" fill="white" stroke="#263238" stroke-miterlimit="10" stroke-linecap="round" stroke-linejoin="round"/>
<path d="M134.18 185.644H351.833" stroke="#CCCCCC" stroke-miterlimit="10" stroke-linecap="round" stroke-linejoin="round"/>
<path d="M134.18 181.149H351.833" stroke="#CCCCCC" stroke-miterlimit="10" stroke-linecap="round" stroke-linejoin="round"/>
<path d="M134.18 176.657H351.833" stroke="#CCCCCC" stroke-miterlimit="10" stroke-linecap="round" stroke-linejoin="round"/>
<path d="M134.18 172.164H351.833" stroke="#CCCCCC" stroke-miterlimit="10" stroke-linecap="round" stroke-linejoin="round"/>
<path d="M134.18 167.672H351.833" stroke="#CCCCCC" stroke-miterlimit="10" stroke-linecap="round" stroke-linejoin="round"/>
<path d="M134.18 163.179H351.833" stroke="#CCCCCC" stroke-miterlimit="10" stroke-linecap="round" stroke-linejoin="round"/>
<path d="M134.18 158.686H351.833" stroke="#CCCCCC" stroke-miterlimit="10" stroke-linecap="round" stroke-linejoin="round"/>
<path d="M134.18 154.193H351.833" stroke="#CCCCCC" stroke-miterlimit="10" stroke-linecap="round" stroke-linejoin="round"/>
<path d="M134.18 149.7H351.833" stroke="#CCCCCC" stroke-miterlimit="10" stroke-linecap="round" stroke-linejoin="round"/>
<path d="M134.18 145.207H351.833" stroke="#CCCCCC" stroke-miterlimit="10" stroke-linecap="round" stroke-linejoin="round"/>
<path d="M134.18 140.714H351.833" stroke="#CCCCCC" stroke-miterlimit="10" stroke-linecap="round" stroke-linejoin="round"/>
<path d="M134.18 136.222H351.833" stroke="#CCCCCC" stroke-miterlimit="10" stroke-linecap="round" stroke-linejoin="round"/>
<path d="M134.18 131.729H351.833" stroke="#CCCCCC" stroke-miterlimit="10" stroke-linecap="round" stroke-linejoin="round"/>
<path d="M134.18 127.234H351.833" stroke="#CCCCCC" stroke-miterlimit="10" stroke-linecap="round" stroke-linejoin="round"/>
<path d="M134.18 122.743H351.833" stroke="#CCCCCC" stroke-miterlimit="10" stroke-linecap="round" stroke-linejoin="round"/>
<path d="M134.18 118.25H351.833" stroke="#CCCCCC" stroke-miterlimit="10" stroke-linecap="round" stroke-linejoin="round"/>
<path d="M150.159 113.257H141.672V185.142H150.159V113.257Z" fill="#0DBF8D"/>
<path d="M161.393 152.195H152.906V185.143H161.393V152.195Z" fill="#FF6B6B"/>
<path d="M172.627 158.186H164.141V185.143H172.627V158.186Z" fill="#FF6B6B"/>
<path d="M183.854 123.74H175.367V185.142H183.854V123.74Z" fill="#0DBF8D"/>
<path d="M195.088 154.191H186.602V185.142H195.088V154.191Z" fill="#FF6B6B"/>
<path d="M206.323 140.214H197.836V185.143H206.323V140.214Z" fill="#0DBF8D"/>
<path d="M217.549 122.741H209.062V185.142H217.549V122.741Z" fill="#0DBF8D"/>
<path d="M228.784 103.771H220.297V185.142H228.784V103.771Z" fill="#0DBF8D"/>
<path d="M240.018 142.709H231.531V185.142H240.018V142.709Z" fill="#FF6B6B"/>
<path d="M251.245 160.682H242.758V185.142H251.245V160.682Z" fill="#FF6B6B"/>
<path d="M262.479 170.665H253.992V185.142H262.479V170.665Z" fill="#FF6B6B"/>
<path d="M273.713 159.184H265.227V185.142H273.713V159.184Z" fill="#0DBF8D"/>
<path d="M284.94 134.223H276.453V185.141H284.94V134.223Z" fill="#0DBF8D"/>
<path d="M296.174 176.155H287.688V185.141H296.174V176.155Z" fill="#FF6B6B"/>
<path d="M307.409 158.186H298.922V185.143H307.409V158.186Z" fill="#0DBF8D"/>
<path d="M318.643 170.166H310.156V185.142H318.643V170.166Z" fill="#FF6B6B"/>
<path d="M329.87 104.271H321.383V185.142H329.87V104.271Z" fill="#0DBF8D"/>
<path d="M341.104 118.249H332.617V185.142H341.104V118.249Z" fill="#FF6B6B"/>
<path d="M137.555 103.006C137.434 103.006 137.338 102.984 137.268 102.942C137.197 102.899 137.132 102.848 137.071 102.788L133.606 99.4358C133.526 99.3675 133.47 99.3078 133.44 99.2566C133.42 99.1969 133.41 99.1074 133.41 98.9879V98.7064C133.41 98.6211 133.44 98.5529 133.5 98.5017C133.571 98.442 133.657 98.4121 133.758 98.4121H134.575C135.281 98.4121 135.82 98.3354 136.194 98.1818C136.567 98.0283 136.819 97.8235 136.95 97.5676C137.091 97.3117 137.162 97.0174 137.162 96.6847C137.162 96.3691 137.091 96.0833 136.95 95.8274C136.819 95.563 136.577 95.354 136.224 95.2004C135.871 95.0469 135.371 94.9701 134.726 94.9701H133.621C133.521 94.9701 133.435 94.9445 133.364 94.8933C133.304 94.8336 133.273 94.7611 133.273 94.6758V94.3431C133.273 94.2578 133.304 94.1896 133.364 94.1384C133.435 94.0787 133.521 94.0488 133.621 94.0488H139.643C139.744 94.0488 139.825 94.0787 139.885 94.1384C139.956 94.1896 139.991 94.2578 139.991 94.3431V94.6758C139.991 94.7611 139.956 94.8336 139.885 94.8933C139.825 94.9445 139.744 94.9701 139.643 94.9701H137.343L136.965 94.6246C137.621 94.7611 138.07 95.0213 138.312 95.4052C138.554 95.789 138.675 96.2326 138.675 96.7359C138.675 97.2051 138.554 97.6359 138.312 98.0283C138.08 98.4207 137.707 98.7363 137.192 98.9751C136.688 99.2055 136.037 99.3292 135.24 99.3462L134.786 99.359L134.802 98.8472L138.675 102.609C138.756 102.677 138.796 102.741 138.796 102.801C138.796 102.869 138.766 102.92 138.705 102.955C138.645 102.989 138.569 103.006 138.478 103.006H137.555ZM133.621 97.0174C133.51 97.0174 133.425 96.9918 133.364 96.9406C133.304 96.8895 133.273 96.8169 133.273 96.7231V96.4032C133.273 96.3094 133.304 96.2369 133.364 96.1857C133.435 96.1345 133.521 96.1089 133.621 96.1089H139.643C139.744 96.1089 139.825 96.1345 139.885 96.1857C139.956 96.2369 139.991 96.3094 139.991 96.4032V96.7231C139.991 96.8169 139.956 96.8895 139.885 96.9406C139.825 96.9918 139.744 97.0174 139.643 97.0174H133.621Z" fill="#263238"/>
<path d="M143.422 95.1301C142.953 95.1301 142.658 95.3846 142.658 96.0541V97.0588H141.266V96.1482C141.266 94.6479 142.016 93.791 143.462 93.791C144.909 93.791 145.659 94.6479 145.659 96.1482C145.659 99.095 142.726 100.193 142.726 101.734C142.726 101.801 142.726 101.867 142.739 101.934H145.525V103.273H141.266V102.122C141.266 99.3622 144.186 98.9069 144.186 96.2012C144.186 95.3577 143.891 95.1301 143.422 95.1301Z" fill="#263238"/>
<path d="M146.453 96.1482C146.453 94.6479 147.244 93.791 148.69 93.791C150.137 93.791 150.927 94.6479 150.927 96.1482V101.024C150.927 102.524 150.137 103.381 148.69 103.381C147.244 103.381 146.453 102.524 146.453 101.024V96.1482ZM147.927 101.117C147.927 101.787 148.222 102.041 148.69 102.041C149.159 102.041 149.454 101.787 149.454 101.117V96.0541C149.454 95.3839 149.159 95.1301 148.69 95.1301C148.221 95.1301 147.927 95.3846 147.927 96.0541V101.117Z" fill="#263238"/>
<path d="M171.881 101.853V103.272H170.461V101.853H171.881Z" fill="#263238"/>
<path d="M157.201 96.2009C157.201 95.3575 156.906 95.1291 156.438 95.1291C155.969 95.1291 155.674 95.3836 155.674 96.0532V96.6563H154.281V96.1472C154.281 94.6469 155.031 93.79 156.478 93.79C157.925 93.79 158.674 94.6469 158.674 96.1472V96.3883C158.674 97.393 158.352 98.0222 157.643 98.317C158.38 98.6387 158.674 99.3351 158.674 100.286V101.023C158.674 102.523 157.924 103.38 156.478 103.38C155.031 103.38 154.281 102.523 154.281 101.023V100.246H155.674V101.117C155.674 101.786 155.969 102.041 156.438 102.041C156.906 102.041 157.201 101.813 157.201 100.983V100.246C157.201 99.3762 156.906 99.0545 156.237 99.0545H155.741V97.7154H156.317C156.866 97.7154 157.201 97.4743 157.201 96.7242V96.2009Z" fill="#263238"/>
<path d="M159.57 96.2278C159.57 94.6469 160.294 93.79 161.821 93.79C163.267 93.79 164.017 94.6469 164.017 96.1472V96.3883H162.625V96.0539C162.625 95.3836 162.33 95.1298 161.861 95.1298C161.339 95.1298 161.044 95.3844 161.044 96.2816V97.9961C161.298 97.4601 161.754 97.1661 162.41 97.1661C163.496 97.1661 164.044 97.9296 164.044 99.309V101.024C164.044 102.524 163.254 103.381 161.807 103.381C160.361 103.381 159.57 102.524 159.57 101.024V96.2278ZM161.044 99.4292V101.117C161.044 101.786 161.339 102.027 161.807 102.027C162.276 102.027 162.571 101.786 162.571 101.117V99.4292C162.571 98.7589 162.276 98.5051 161.807 98.5051C161.339 98.5051 161.044 98.7597 161.044 99.4292Z" fill="#263238"/>
<path d="M167.085 103.38C165.598 103.38 164.781 102.523 164.781 101.023V100.286C164.781 99.3881 165.048 98.6925 165.692 98.3305C165.076 97.9953 164.781 97.3661 164.781 96.442V96.1472C164.781 94.6469 165.598 93.79 167.085 93.79C168.572 93.79 169.389 94.6469 169.389 96.1472V96.442C169.389 97.3661 169.081 97.9953 168.477 98.3305C169.12 98.6925 169.389 99.3889 169.389 100.286V101.023C169.389 102.523 168.572 103.38 167.085 103.38ZM166.255 96.7234C166.255 97.4736 166.603 97.7147 167.085 97.7147C167.553 97.7147 167.915 97.4736 167.915 96.7234V96.2009C167.915 95.3575 167.554 95.1291 167.085 95.1291C166.616 95.1291 166.255 95.3568 166.255 96.2009V96.7234ZM167.085 102.041C167.553 102.041 167.902 101.813 167.915 100.983V100.112C167.915 99.3754 167.607 99.0545 167.085 99.0545C166.562 99.0545 166.255 99.3762 166.255 100.112V100.983C166.255 101.813 166.617 102.041 167.085 102.041Z" fill="#263238"/>
<path d="M151.875 103.272V101.853H153.295V103.125L152.652 104.612H152.049L152.438 103.273L151.875 103.272Z" fill="#263238"/>
<path d="M174.915 95.1301C174.446 95.1301 174.151 95.3846 174.151 96.0541V97.0588H172.759V96.1482C172.759 94.6479 173.509 93.791 174.955 93.791C176.402 93.791 177.152 94.6479 177.152 96.1482C177.152 99.095 174.219 100.193 174.219 101.734C174.219 101.801 174.219 101.867 174.232 101.934H177.018V103.273H172.758V102.122C172.758 99.3622 175.678 98.9069 175.678 96.2012C175.678 95.3577 175.384 95.1301 174.915 95.1301Z" fill="#263238"/>
<path d="M180.897 96.2009C180.897 95.3575 180.602 95.1291 180.133 95.1291C179.664 95.1291 179.369 95.3836 179.369 96.0532V96.6563H177.977V96.1472C177.977 94.6469 178.727 93.79 180.173 93.79C181.62 93.79 182.369 94.6469 182.369 96.1472V96.3883C182.369 97.393 182.047 98.0222 181.338 98.317C182.075 98.6387 182.369 99.3351 182.369 100.286V101.023C182.369 102.523 181.619 103.38 180.173 103.38C178.726 103.38 177.977 102.523 177.977 101.023V100.246H179.369V101.117C179.369 101.786 179.664 102.041 180.133 102.041C180.602 102.041 180.897 101.813 180.897 100.983V100.246C180.897 99.3762 180.602 99.0545 179.932 99.0545H179.437V97.7154H180.012C180.561 97.7154 180.897 97.4743 180.897 96.7242V96.2009Z" fill="#263238"/>
<path d="M426.259 95.1094H356.742V185.425H426.259V95.1094Z" fill="#ECECEC"/>
<path d="M368.773 100.651H377.976" stroke="#757575" stroke-miterlimit="10"/>
<path d="M383.156 100.651H392.359" stroke="#757575" stroke-miterlimit="10"/>
<path d="M397.539 100.651H406.742" stroke="#757575" stroke-miterlimit="10"/>
<path d="M411.922 100.651H421.124" stroke="#757575" stroke-miterlimit="10"/>
<path d="M380.609 96.457V184.172" stroke="white" stroke-miterlimit="10"/>
<path d="M366.211 96.457V184.172" stroke="white" stroke-miterlimit="10"/>
<path d="M395.234 96.457V184.172" stroke="white" stroke-miterlimit="10"/>
<path d="M409.867 96.457V184.172" stroke="white" stroke-miterlimit="10"/>
<path d="M361.98 98.8711L360.289 101.801H363.672L361.98 98.8711Z" fill="#0DBF8D"/>
<path d="M368.773 107.449H377.976" stroke="#757575" stroke-miterlimit="10"/>
<path d="M383.156 107.449H392.359" stroke="#757575" stroke-miterlimit="10"/>
<path d="M397.539 107.449H406.742" stroke="#757575" stroke-miterlimit="10"/>
<path d="M411.922 107.449H421.124" stroke="#757575" stroke-miterlimit="10"/>
<path d="M361.98 108.601L363.672 105.671H360.289L361.98 108.601Z" fill="#FF6B6B"/>
<path d="M368.773 114.248H377.976" stroke="#757575" stroke-miterlimit="10"/>
<path d="M383.156 114.248H392.359" stroke="#757575" stroke-miterlimit="10"/>
<path d="M397.539 114.248H406.742" stroke="#757575" stroke-miterlimit="10"/>
<path d="M411.922 114.248H421.124" stroke="#757575" stroke-miterlimit="10"/>
<path d="M361.98 112.469L360.289 115.399H363.672L361.98 112.469Z" fill="#0DBF8D"/>
<path d="M368.773 121.047H377.976" stroke="#757575" stroke-miterlimit="10"/>
<path d="M383.156 121.047H392.359" stroke="#757575" stroke-miterlimit="10"/>
<path d="M397.539 121.047H406.742" stroke="#757575" stroke-miterlimit="10"/>
<path d="M411.922 121.047H421.124" stroke="#757575" stroke-miterlimit="10"/>
<path d="M361.98 122.196L363.672 119.267H360.289L361.98 122.196Z" fill="#FF6B6B"/>
<path d="M368.773 127.846H377.976" stroke="#757575" stroke-miterlimit="10"/>
<path d="M383.156 127.846H392.359" stroke="#757575" stroke-miterlimit="10"/>
<path d="M397.539 127.846H406.742" stroke="#757575" stroke-miterlimit="10"/>
<path d="M411.922 127.846H421.124" stroke="#757575" stroke-miterlimit="10"/>
<path d="M361.98 128.997L363.672 126.066H360.289L361.98 128.997Z" fill="#FF6B6B"/>
<path d="M368.773 134.645H377.976" stroke="#757575" stroke-miterlimit="10"/>
<path d="M383.156 134.645H392.359" stroke="#757575" stroke-miterlimit="10"/>
<path d="M397.539 134.645H406.742" stroke="#757575" stroke-miterlimit="10"/>
<path d="M411.922 134.645H421.124" stroke="#757575" stroke-miterlimit="10"/>
<path d="M361.98 135.794L363.672 132.864H360.289L361.98 135.794Z" fill="#FF6B6B"/>
<path d="M368.773 141.442H377.976" stroke="#757575" stroke-miterlimit="10"/>
<path d="M383.156 141.442H392.359" stroke="#757575" stroke-miterlimit="10"/>
<path d="M397.539 141.442H406.742" stroke="#757575" stroke-miterlimit="10"/>
<path d="M411.922 141.442H421.124" stroke="#757575" stroke-miterlimit="10"/>
<path d="M361.98 139.664L360.289 142.594H363.672L361.98 139.664Z" fill="#0DBF8D"/>
<path d="M368.773 148.242H377.976" stroke="#757575" stroke-miterlimit="10"/>
<path d="M383.156 148.242H392.359" stroke="#757575" stroke-miterlimit="10"/>
<path d="M397.539 148.242H406.742" stroke="#757575" stroke-miterlimit="10"/>
<path d="M411.922 148.242H421.124" stroke="#757575" stroke-miterlimit="10"/>
<path d="M361.98 146.463L360.289 149.393H363.672L361.98 146.463Z" fill="#0DBF8D"/>
<path d="M368.773 155.04H377.976" stroke="#757575" stroke-miterlimit="10"/>
<path d="M383.156 155.04H392.359" stroke="#757575" stroke-miterlimit="10"/>
<path d="M397.539 155.04H406.742" stroke="#757575" stroke-miterlimit="10"/>
<path d="M411.922 155.04H421.124" stroke="#757575" stroke-miterlimit="10"/>
<path d="M361.98 156.19L363.672 153.261H360.289L361.98 156.19Z" fill="#FF6B6B"/>
<path d="M368.773 161.839H377.976" stroke="#757575" stroke-miterlimit="10"/>
<path d="M383.156 161.839H392.359" stroke="#757575" stroke-miterlimit="10"/>
<path d="M397.539 161.839H406.742" stroke="#757575" stroke-miterlimit="10"/>
<path d="M411.922 161.839H421.124" stroke="#757575" stroke-miterlimit="10"/>
<path d="M361.98 160.06L360.289 162.989H363.672L361.98 160.06Z" fill="#0DBF8D"/>
<path d="M368.773 168.638H377.976" stroke="#757575" stroke-miterlimit="10"/>
<path d="M383.156 168.638H392.359" stroke="#757575" stroke-miterlimit="10"/>
<path d="M397.539 168.638H406.742" stroke="#757575" stroke-miterlimit="10"/>
<path d="M411.922 168.638H421.124" stroke="#757575" stroke-miterlimit="10"/>
<path d="M361.98 169.787L363.672 166.857H360.289L361.98 169.787Z" fill="#FF6B6B"/>
<path d="M359.367 103.799H424.458" stroke="white" stroke-miterlimit="10"/>
<path d="M359.367 110.598H424.458" stroke="white" stroke-miterlimit="10"/>
<path d="M359.367 117.396H424.458" stroke="white" stroke-miterlimit="10"/>
<path d="M359.367 124.194H424.458" stroke="white" stroke-miterlimit="10"/>
<path d="M359.367 130.993H424.458" stroke="white" stroke-miterlimit="10"/>
<path d="M359.367 137.792H424.458" stroke="white" stroke-miterlimit="10"/>
<path d="M359.367 144.591H424.458" stroke="white" stroke-miterlimit="10"/>
<path d="M359.367 151.39H424.458" stroke="white" stroke-miterlimit="10"/>
<path d="M359.367 158.188H424.458" stroke="white" stroke-miterlimit="10"/>
<path d="M359.367 164.986H424.458" stroke="white" stroke-miterlimit="10"/>
<path d="M359.367 171.785H424.458" stroke="white" stroke-miterlimit="10"/>
<path d="M359.367 178.585H424.458" stroke="white" stroke-miterlimit="10"/>
<path d="M368.773 175.436H377.976" stroke="#757575" stroke-miterlimit="10"/>
<path d="M383.156 175.436H392.359" stroke="#757575" stroke-miterlimit="10"/>
<path d="M397.539 175.436H406.742" stroke="#757575" stroke-miterlimit="10"/>
<path d="M411.922 175.436H421.124" stroke="#757575" stroke-miterlimit="10"/>
<path d="M361.98 173.656L360.289 176.587H363.672L361.98 173.656Z" fill="#0DBF8D"/>
<path d="M368.773 182.235H377.976" stroke="#757575" stroke-miterlimit="10"/>
<path d="M383.156 182.235H392.359" stroke="#757575" stroke-miterlimit="10"/>
<path d="M397.539 182.235H406.742" stroke="#757575" stroke-miterlimit="10"/>
<path d="M411.922 182.235H421.124" stroke="#757575" stroke-miterlimit="10"/>
<path d="M361.98 183.386L363.672 180.456H360.289L361.98 183.386Z" fill="#FF6B6B"/>
<path d="M345.039 211.361C345.039 210.203 345.568 209.575 346.686 209.575C347.746 209.575 348.294 210.203 348.294 211.302V211.478H347.275V211.233C347.275 210.743 347.059 210.557 346.716 210.557C346.333 210.557 346.118 210.743 346.118 211.399V212.655C346.303 212.263 346.637 212.047 347.118 212.047C347.912 212.047 348.314 212.606 348.314 213.617V214.872C348.314 215.971 347.736 216.599 346.677 216.599C345.618 216.599 345.039 215.971 345.039 214.872V211.361ZM346.118 213.704V214.94C346.118 215.43 346.333 215.607 346.677 215.607C347.019 215.607 347.235 215.431 347.235 214.94V213.704C347.235 213.214 347.019 213.028 346.677 213.028C346.333 213.027 346.118 213.213 346.118 213.704Z" fill="#263238"/>
<path d="M348.898 211.302C348.898 210.203 349.477 209.575 350.536 209.575C351.595 209.575 352.173 210.203 352.173 211.302V214.871C352.173 215.97 351.595 216.597 350.536 216.597C349.478 216.597 348.898 215.97 348.898 214.871V211.302ZM349.978 214.94C349.978 215.43 350.193 215.616 350.537 215.616C350.88 215.616 351.096 215.43 351.096 214.94V211.233C351.096 210.743 350.88 210.557 350.537 210.557C350.193 210.557 349.978 210.743 349.978 211.233V214.94Z" fill="#263238"/>
<path d="M352.82 210.703C352.82 209.998 353.183 209.605 353.86 209.605C354.537 209.605 354.9 209.997 354.9 210.703V212.959C354.9 213.664 354.538 214.057 353.86 214.057C353.184 214.057 352.82 213.665 352.82 212.959V210.703ZM353.506 213.008C353.506 213.312 353.634 213.44 353.859 213.44C354.075 213.44 354.213 213.312 354.213 213.008V210.655C354.213 210.351 354.075 210.223 353.859 210.223C353.634 210.223 353.506 210.351 353.506 210.655V213.008ZM356.567 209.655H357.204L354.497 216.519H353.86L356.567 209.655ZM356.223 213.214C356.223 212.508 356.585 212.116 357.263 212.116C357.939 212.116 358.302 212.508 358.302 213.214V215.47C358.302 216.175 357.939 216.568 357.263 216.568C356.586 216.568 356.223 216.176 356.223 215.47V213.214ZM356.909 215.519C356.909 215.822 357.037 215.95 357.263 215.95C357.479 215.95 357.616 215.822 357.616 215.519V213.165C357.616 212.861 357.479 212.734 357.263 212.734C357.037 212.734 356.909 212.861 356.909 213.165V215.519Z" fill="#263238"/>
<path d="M347.192 222.122C347.192 221.504 346.977 221.338 346.633 221.338C346.29 221.338 346.075 221.524 346.075 222.014V222.455H345.055V222.083C345.055 220.984 345.604 220.356 346.663 220.356C347.722 220.356 348.271 220.984 348.271 222.083V222.259C348.271 222.994 348.036 223.456 347.516 223.671C348.055 223.906 348.271 224.417 348.271 225.113V225.653C348.271 226.752 347.722 227.379 346.663 227.379C345.604 227.379 345.055 226.752 345.055 225.653V225.084H346.075V225.721C346.075 226.211 346.29 226.397 346.633 226.397C346.977 226.397 347.192 226.231 347.192 225.623V225.083C347.192 224.445 346.977 224.21 346.487 224.21H346.124V223.23H346.546C346.948 223.23 347.193 223.054 347.193 222.504V222.122H347.192Z" fill="#263238"/>
<path d="M348.906 222.083C348.906 220.984 349.485 220.356 350.544 220.356C351.603 220.356 352.181 220.984 352.181 222.083V225.652C352.181 226.751 351.602 227.379 350.544 227.379C349.485 227.379 348.906 226.751 348.906 225.652V222.083ZM349.986 225.721C349.986 226.211 350.201 226.397 350.545 226.397C350.888 226.397 351.104 226.211 351.104 225.721V222.014C351.104 221.524 350.888 221.338 350.545 221.338C350.201 221.338 349.986 221.524 349.986 222.014V225.721Z" fill="#263238"/>
<path d="M352.828 221.485C352.828 220.779 353.191 220.387 353.868 220.387C354.545 220.387 354.908 220.779 354.908 221.485V223.74C354.908 224.446 354.546 224.838 353.868 224.838C353.192 224.838 352.828 224.446 352.828 223.74V221.485ZM353.514 223.79C353.514 224.093 353.642 224.221 353.867 224.221C354.083 224.221 354.221 224.093 354.221 223.79V221.436C354.221 221.132 354.083 221.005 353.867 221.005C353.642 221.005 353.514 221.132 353.514 221.436V223.79ZM356.574 220.436H357.212L354.505 227.3H353.868L356.574 220.436ZM356.231 223.996C356.231 223.29 356.593 222.898 357.271 222.898C357.947 222.898 358.31 223.29 358.31 223.996V226.251C358.31 226.957 357.947 227.349 357.271 227.349C356.594 227.349 356.231 226.957 356.231 226.251V223.996ZM356.917 226.301C356.917 226.604 357.045 226.732 357.271 226.732C357.486 226.732 357.624 226.604 357.624 226.301V223.947C357.624 223.643 357.486 223.516 357.271 223.516C357.045 223.516 356.917 223.643 356.917 223.947V226.301Z" fill="#263238"/>
<path d="M346.696 232.119C346.352 232.119 346.137 232.305 346.137 232.795V233.53H345.117V232.863C345.117 231.764 345.667 231.137 346.725 231.137C347.784 231.137 348.333 231.764 348.333 232.863C348.333 235.021 346.186 235.825 346.186 236.953C346.186 237.001 346.186 237.051 346.196 237.1H348.236V238.081H345.117V237.237C345.117 235.217 347.255 234.884 347.255 232.903C347.255 232.285 347.039 232.119 346.696 232.119Z" fill="#263238"/>
<path d="M348.914 232.864C348.914 231.765 349.493 231.138 350.552 231.138C351.611 231.138 352.189 231.765 352.189 232.864V236.433C352.189 237.532 351.61 238.16 350.552 238.16C349.493 238.16 348.914 237.532 348.914 236.433V232.864ZM349.993 236.503C349.993 236.993 350.209 237.179 350.552 237.179C350.896 237.179 351.112 236.993 351.112 236.503V232.796C351.112 232.306 350.896 232.12 350.552 232.12C350.209 232.12 349.993 232.306 349.993 232.796V236.503Z" fill="#263238"/>
<path d="M352.828 232.266C352.828 231.561 353.191 231.168 353.868 231.168C354.545 231.168 354.908 231.56 354.908 232.266V234.522C354.908 235.227 354.546 235.62 353.868 235.62C353.192 235.62 352.828 235.228 352.828 234.522V232.266ZM353.514 234.571C353.514 234.875 353.642 235.002 353.867 235.002C354.083 235.002 354.221 234.875 354.221 234.571V232.217C354.221 231.914 354.083 231.786 353.867 231.786C353.642 231.786 353.514 231.914 353.514 232.217V234.571ZM356.574 231.217H357.212L354.505 238.081H353.868L356.574 231.217ZM356.231 234.776C356.231 234.071 356.593 233.678 357.271 233.678C357.947 233.678 358.31 234.07 358.31 234.776V237.032C358.31 237.737 357.947 238.13 357.271 238.13C356.594 238.13 356.231 237.738 356.231 237.032V234.776ZM356.917 237.081C356.917 237.385 357.045 237.512 357.271 237.512C357.486 237.512 357.624 237.385 357.624 237.081V234.728C357.624 234.424 357.486 234.296 357.271 234.296C357.045 234.296 356.917 234.424 356.917 234.728V237.081Z" fill="#263238"/>
<path d="M299.248 239.156C294.615 236.163 291.547 230.953 291.547 225.027C291.547 215.744 299.071 208.22 308.354 208.22C312.361 208.22 316.04 209.622 318.929 211.963" stroke="#1C74D0" stroke-width="6" stroke-miterlimit="10" stroke-linejoin="round"/>
<path d="M321.724 235.212C318.654 239.236 313.807 241.833 308.355 241.833C305 241.833 301.874 240.849 299.25 239.154" stroke="#FF6B6B" stroke-width="6" stroke-miterlimit="10" stroke-linejoin="round"/>
<path d="M318.93 211.962C322.731 215.043 325.161 219.751 325.161 225.026C325.161 228.855 323.881 232.386 321.724 235.212" stroke="#EEBD34" stroke-width="6" stroke-miterlimit="10" stroke-linejoin="round"/>
<path d="M337.526 216.371C339.103 216.371 340.38 215.093 340.38 213.516C340.38 211.94 339.103 210.662 337.526 210.662C335.95 210.662 334.672 211.94 334.672 213.516C334.672 215.093 335.95 216.371 337.526 216.371Z" fill="#1C74D0"/>
<path d="M337.526 226.836C339.103 226.836 340.38 225.558 340.38 223.981C340.38 222.405 339.103 221.127 337.526 221.127C335.95 221.127 334.672 222.405 334.672 223.981C334.672 225.558 335.95 226.836 337.526 226.836Z" fill="#FF6B6B"/>
<path d="M337.526 237.3C339.103 237.3 340.38 236.022 340.38 234.446C340.38 232.87 339.103 231.592 337.526 231.592C335.95 231.592 334.672 232.87 334.672 234.446C334.672 236.022 335.95 237.3 337.526 237.3Z" fill="#EEBD34"/>
<path d="M359.752 195.294H293.75V197.554H359.752V195.294Z" fill="#CCCCCC"/>
<path d="M144.016 202.778H275.571" stroke="#CCCCCC" stroke-miterlimit="10" stroke-linecap="round" stroke-linejoin="round"/>
<path d="M144.016 208.937H275.571" stroke="#CCCCCC" stroke-miterlimit="10" stroke-linecap="round" stroke-linejoin="round"/>
<path d="M144.016 215.095H275.571" stroke="#CCCCCC" stroke-miterlimit="10" stroke-linecap="round" stroke-linejoin="round"/>
<path d="M144.016 221.252H275.571" stroke="#CCCCCC" stroke-miterlimit="10" stroke-linecap="round" stroke-linejoin="round"/>
<path d="M144.016 227.409H275.571" stroke="#CCCCCC" stroke-miterlimit="10" stroke-linecap="round" stroke-linejoin="round"/>
<path d="M144.016 233.567H275.571" stroke="#CCCCCC" stroke-miterlimit="10" stroke-linecap="round" stroke-linejoin="round"/>
<path d="M144.016 239.726H275.571" stroke="#CCCCCC" stroke-miterlimit="10" stroke-linecap="round" stroke-linejoin="round"/>
<path d="M144.016 245.884H275.571" stroke="#CCCCCC" stroke-miterlimit="10" stroke-linecap="round" stroke-linejoin="round"/>
<path d="M134.695 202.778H141.032" stroke="#CCCCCC" stroke-miterlimit="10" stroke-linecap="round" stroke-linejoin="round"/>
<path d="M134.695 208.937H141.032" stroke="#CCCCCC" stroke-miterlimit="10" stroke-linecap="round" stroke-linejoin="round"/>
<path d="M134.695 215.095H141.032" stroke="#CCCCCC" stroke-miterlimit="10" stroke-linecap="round" stroke-linejoin="round"/>
<path d="M134.695 221.252H141.032" stroke="#CCCCCC" stroke-miterlimit="10" stroke-linecap="round" stroke-linejoin="round"/>
<path d="M134.695 227.409H141.032" stroke="#CCCCCC" stroke-miterlimit="10" stroke-linecap="round" stroke-linejoin="round"/>
<path d="M134.695 233.567H141.032" stroke="#CCCCCC" stroke-miterlimit="10" stroke-linecap="round" stroke-linejoin="round"/>
<path d="M134.695 239.726H141.032" stroke="#CCCCCC" stroke-miterlimit="10" stroke-linecap="round" stroke-linejoin="round"/>
<path d="M134.695 245.884H141.032" stroke="#CCCCCC" stroke-miterlimit="10" stroke-linecap="round" stroke-linejoin="round"/>
<path d="M146.352 216.955L147.921 215.56L148.794 217.653L150.887 216.258L151.585 218.002L153.504 212.943L154.376 214.513L154.899 217.827L156.818 218.525L157.69 221.491L158.911 222.712L159.958 220.27L162.4 225.328L163.447 224.98L165.714 237.888L166.587 235.969L168.156 239.807L170.599 224.805L172.692 228.294L174.437 224.98L175.658 227.77L177.228 226.375L178.449 229.341L181.24 226.375L182.461 230.213L185.252 231.608L186.647 228.294L188.043 228.12L189.264 226.026H190.485L191.357 231.085L192.753 225.851L194.497 225.503L196.242 224.282L197.811 225.328L199.033 230.038L200.254 229.166L202.347 232.655L203.568 230.561L204.615 232.655L205.487 231.957L206.883 232.306L209.499 228.817L211.243 230.736L212.464 227.247L213.86 228.294L215.256 219.92L216.302 221.141L218.57 213.292H219.442L219.966 209.454L221.71 209.28L222.407 205.442L224.152 210.152L225.199 208.059L226.42 215.908L227.99 216.432L228.862 213.815L231.828 211.722L233.397 215.56L233.572 222.363L235.665 223.409L237.584 219.92L239.154 220.444L241.073 220.27L242.294 222.712L243.689 219.397H244.736L248.05 226.899L248.923 224.282L250.318 224.456L252.062 228.643L253.981 225.677L255.377 211.548L257.295 213.815L257.993 202.651L259.737 204.744L260.61 210.675L262.703 209.803L264.273 214.687L265.495 215.21L266.192 224.282L267.239 222.189L267.762 219.746L270.553 220.444L271.774 219.746L274.042 222.886" stroke="#FF6B6B" stroke-width="2" stroke-miterlimit="10"/>
<path d="M221.877 195.294H155.875V197.554H221.877V195.294Z" fill="#CCCCCC"/>
<path opacity="0.5" d="M424.728 202.194H373.039V207.123H424.728V202.194Z" fill="#CCCCCC"/>
<path d="M388.662 202.042H372.172V206.971H388.662V202.042Z" fill="#EEBD34"/>
<path opacity="0.5" d="M424.728 214.928H373.039V219.856H424.728V214.928Z" fill="#CCCCCC"/>
<path d="M407.604 214.928H373.039V219.856H407.604V214.928Z" fill="#EEBD34"/>
<path opacity="0.5" d="M424.728 227.66H373.039V232.589H424.728V227.66Z" fill="#CCCCCC"/>
<path d="M380.332 227.66H373.039V232.589H380.332V227.66Z" fill="#EEBD34"/>
<path opacity="0.5" d="M424.728 240.393H373.039V245.321H424.728V240.393Z" fill="#CCCCCC"/>
<path d="M418.386 240.393H373.039V245.321H418.386V240.393Z" fill="#EEBD34"/>
<path d="M424.395 195.294H372.859V197.554H424.395V195.294Z" fill="#CCCCCC"/>
<path d="M48.3144 195.273H112.195V189.595H48.3144V195.273Z" fill="#FFA300" stroke="#263238" stroke-miterlimit="10" stroke-linecap="round" stroke-linejoin="round"/>
<path d="M108.812 189.722V195.028" stroke="#263238" stroke-miterlimit="10" stroke-linecap="round" stroke-linejoin="round"/>
<path d="M110.664 189.722V195.028" stroke="#263238" stroke-miterlimit="10" stroke-linecap="round" stroke-linejoin="round"/>
<path d="M105.125 189.722V195.028" stroke="#263238" stroke-miterlimit="10" stroke-linecap="round" stroke-linejoin="round"/>
<path d="M101.438 189.722V195.028" stroke="#263238" stroke-miterlimit="10" stroke-linecap="round" stroke-linejoin="round"/>
<path d="M97.7422 189.722V195.028" stroke="#263238" stroke-miterlimit="10" stroke-linecap="round" stroke-linejoin="round"/>
<path d="M94.0547 189.722V195.028" stroke="#263238" stroke-miterlimit="10" stroke-linecap="round" stroke-linejoin="round"/>
<path d="M88.5156 189.722V195.028" stroke="#263238" stroke-miterlimit="10" stroke-linecap="round" stroke-linejoin="round"/>
<path d="M79.2891 189.722V195.028" stroke="#263238" stroke-miterlimit="10" stroke-linecap="round" stroke-linejoin="round"/>
<path d="M48.3144 201.245H112.195V195.566H48.3144V201.245Z" fill="#FFA300" stroke="#263238" stroke-miterlimit="10" stroke-linecap="round" stroke-linejoin="round"/>
<path d="M108.812 195.693V201" stroke="#263238" stroke-miterlimit="10" stroke-linecap="round" stroke-linejoin="round"/>
<path d="M110.664 195.693V201" stroke="#263238" stroke-miterlimit="10" stroke-linecap="round" stroke-linejoin="round"/>
<path d="M105.125 195.693V201" stroke="#263238" stroke-miterlimit="10" stroke-linecap="round" stroke-linejoin="round"/>
<path d="M101.438 195.693V201" stroke="#263238" stroke-miterlimit="10" stroke-linecap="round" stroke-linejoin="round"/>
<path d="M97.7422 195.693V201" stroke="#263238" stroke-miterlimit="10" stroke-linecap="round" stroke-linejoin="round"/>
<path d="M94.0547 195.693V201" stroke="#263238" stroke-miterlimit="10" stroke-linecap="round" stroke-linejoin="round"/>
<path d="M88.5156 195.693V201" stroke="#263238" stroke-miterlimit="10" stroke-linecap="round" stroke-linejoin="round"/>
<path d="M79.2891 195.693V201" stroke="#263238" stroke-miterlimit="10" stroke-linecap="round" stroke-linejoin="round"/>
<path d="M48.3144 189.39H112.195V183.711H48.3144V189.39Z" fill="#FFA300" stroke="#263238" stroke-miterlimit="10" stroke-linecap="round" stroke-linejoin="round"/>
<path d="M108.812 183.838V189.143" stroke="#263238" stroke-miterlimit="10" stroke-linecap="round" stroke-linejoin="round"/>
<path d="M110.664 183.838V189.143" stroke="#263238" stroke-miterlimit="10" stroke-linecap="round" stroke-linejoin="round"/>
<path d="M105.125 183.838V189.143" stroke="#263238" stroke-miterlimit="10" stroke-linecap="round" stroke-linejoin="round"/>
<path d="M101.438 183.838V189.143" stroke="#263238" stroke-miterlimit="10" stroke-linecap="round" stroke-linejoin="round"/>
<path d="M97.7422 183.838V189.143" stroke="#263238" stroke-miterlimit="10" stroke-linecap="round" stroke-linejoin="round"/>
<path d="M94.0547 183.838V189.143" stroke="#263238" stroke-miterlimit="10" stroke-linecap="round" stroke-linejoin="round"/>
<path d="M88.5156 183.838V189.143" stroke="#263238" stroke-miterlimit="10" stroke-linecap="round" stroke-linejoin="round"/>
<path d="M79.2891 183.838V189.143" stroke="#263238" stroke-miterlimit="10" stroke-linecap="round" stroke-linejoin="round"/>
<path d="M48.3144 207.216H112.195V201.537H48.3144V207.216Z" fill="#FFA300" stroke="#263238" stroke-miterlimit="10" stroke-linecap="round" stroke-linejoin="round"/>
<path d="M108.812 201.664V206.97" stroke="#263238" stroke-miterlimit="10" stroke-linecap="round" stroke-linejoin="round"/>
<path d="M110.664 201.664V206.97" stroke="#263238" stroke-miterlimit="10" stroke-linecap="round" stroke-linejoin="round"/>
<path d="M105.125 201.664V206.97" stroke="#263238" stroke-miterlimit="10" stroke-linecap="round" stroke-linejoin="round"/>
<path d="M101.438 201.664V206.97" stroke="#263238" stroke-miterlimit="10" stroke-linecap="round" stroke-linejoin="round"/>
<path d="M97.7422 201.664V206.97" stroke="#263238" stroke-miterlimit="10" stroke-linecap="round" stroke-linejoin="round"/>
<path d="M94.0547 201.664V206.97" stroke="#263238" stroke-miterlimit="10" stroke-linecap="round" stroke-linejoin="round"/>
<path d="M88.5156 201.664V206.97" stroke="#263238" stroke-miterlimit="10" stroke-linecap="round" stroke-linejoin="round"/>
<path d="M79.2891 201.664V206.97" stroke="#263238" stroke-miterlimit="10" stroke-linecap="round" stroke-linejoin="round"/>
<path d="M49.8066 213.188H113.688V207.509H49.8066V213.188Z" fill="#FFA300" stroke="#263238" stroke-miterlimit="10" stroke-linecap="round" stroke-linejoin="round"/>
<path d="M110.305 207.636V212.942" stroke="#263238" stroke-miterlimit="10" stroke-linecap="round" stroke-linejoin="round"/>
<path d="M112.156 207.636V212.942" stroke="#263238" stroke-miterlimit="10" stroke-linecap="round" stroke-linejoin="round"/>
<path d="M106.617 207.636V212.942" stroke="#263238" stroke-miterlimit="10" stroke-linecap="round" stroke-linejoin="round"/>
<path d="M102.93 207.636V212.942" stroke="#263238" stroke-miterlimit="10" stroke-linecap="round" stroke-linejoin="round"/>
<path d="M99.2344 207.636V212.942" stroke="#263238" stroke-miterlimit="10" stroke-linecap="round" stroke-linejoin="round"/>
<path d="M95.5469 207.636V212.942" stroke="#263238" stroke-miterlimit="10" stroke-linecap="round" stroke-linejoin="round"/>
<path d="M90.0078 207.636V212.942" stroke="#263238" stroke-miterlimit="10" stroke-linecap="round" stroke-linejoin="round"/>
<path d="M80.7812 207.636V212.942" stroke="#263238" stroke-miterlimit="10" stroke-linecap="round" stroke-linejoin="round"/>
<path d="M48.3144 219.159H112.195V213.48H48.3144V219.159Z" fill="#FFA300" stroke="#263238" stroke-miterlimit="10" stroke-linecap="round" stroke-linejoin="round"/>
<path d="M108.812 213.607V218.914" stroke="#263238" stroke-miterlimit="10" stroke-linecap="round" stroke-linejoin="round"/>
<path d="M110.664 213.607V218.914" stroke="#263238" stroke-miterlimit="10" stroke-linecap="round" stroke-linejoin="round"/>
<path d="M105.125 213.607V218.914" stroke="#263238" stroke-miterlimit="10" stroke-linecap="round" stroke-linejoin="round"/>
<path d="M101.438 213.607V218.914" stroke="#263238" stroke-miterlimit="10" stroke-linecap="round" stroke-linejoin="round"/>
<path d="M97.7422 213.607V218.914" stroke="#263238" stroke-miterlimit="10" stroke-linecap="round" stroke-linejoin="round"/>
<path d="M94.0547 213.607V218.914" stroke="#263238" stroke-miterlimit="10" stroke-linecap="round" stroke-linejoin="round"/>
<path d="M88.5156 213.607V218.914" stroke="#263238" stroke-miterlimit="10" stroke-linecap="round" stroke-linejoin="round"/>
<path d="M79.2891 213.607V218.914" stroke="#263238" stroke-miterlimit="10" stroke-linecap="round" stroke-linejoin="round"/>
<path d="M51.2988 225.13H115.18V219.451H51.2988V225.13Z" fill="#FFA300" stroke="#263238" stroke-miterlimit="10" stroke-linecap="round" stroke-linejoin="round"/>
<path d="M111.797 219.578V224.884" stroke="#263238" stroke-miterlimit="10" stroke-linecap="round" stroke-linejoin="round"/>
<path d="M113.648 219.578V224.884" stroke="#263238" stroke-miterlimit="10" stroke-linecap="round" stroke-linejoin="round"/>
<path d="M108.109 219.578V224.884" stroke="#263238" stroke-miterlimit="10" stroke-linecap="round" stroke-linejoin="round"/>
<path d="M104.422 219.578V224.884" stroke="#263238" stroke-miterlimit="10" stroke-linecap="round" stroke-linejoin="round"/>
<path d="M100.727 219.578V224.884" stroke="#263238" stroke-miterlimit="10" stroke-linecap="round" stroke-linejoin="round"/>
<path d="M97.0391 219.578V224.884" stroke="#263238" stroke-miterlimit="10" stroke-linecap="round" stroke-linejoin="round"/>
<path d="M91.5 219.578V224.884" stroke="#263238" stroke-miterlimit="10" stroke-linecap="round" stroke-linejoin="round"/>
<path d="M82.2734 219.578V224.884" stroke="#263238" stroke-miterlimit="10" stroke-linecap="round" stroke-linejoin="round"/>
<path d="M52.4238 231.102H116.305V225.423H52.4238V231.102Z" fill="#FFA300" stroke="#263238" stroke-miterlimit="10" stroke-linecap="round" stroke-linejoin="round"/>
<path d="M112.922 225.55V230.856" stroke="#263238" stroke-miterlimit="10" stroke-linecap="round" stroke-linejoin="round"/>
<path d="M114.773 225.55V230.856" stroke="#263238" stroke-miterlimit="10" stroke-linecap="round" stroke-linejoin="round"/>
<path d="M109.234 225.55V230.856" stroke="#263238" stroke-miterlimit="10" stroke-linecap="round" stroke-linejoin="round"/>
<path d="M105.547 225.55V230.856" stroke="#263238" stroke-miterlimit="10" stroke-linecap="round" stroke-linejoin="round"/>
<path d="M101.852 225.55V230.856" stroke="#263238" stroke-miterlimit="10" stroke-linecap="round" stroke-linejoin="round"/>
<path d="M98.1641 225.55V230.856" stroke="#263238" stroke-miterlimit="10" stroke-linecap="round" stroke-linejoin="round"/>
<path d="M92.625 225.55V230.856" stroke="#263238" stroke-miterlimit="10" stroke-linecap="round" stroke-linejoin="round"/>
<path d="M83.3984 225.55V230.856" stroke="#263238" stroke-miterlimit="10" stroke-linecap="round" stroke-linejoin="round"/>
<path d="M49.4394 237.072H113.32V231.394H49.4394V237.072Z" fill="#FFA300" stroke="#263238" stroke-miterlimit="10" stroke-linecap="round" stroke-linejoin="round"/>
<path d="M109.938 231.521V236.827" stroke="#263238" stroke-miterlimit="10" stroke-linecap="round" stroke-linejoin="round"/>
<path d="M111.789 231.521V236.827" stroke="#263238" stroke-miterlimit="10" stroke-linecap="round" stroke-linejoin="round"/>
<path d="M106.25 231.521V236.827" stroke="#263238" stroke-miterlimit="10" stroke-linecap="round" stroke-linejoin="round"/>
<path d="M102.562 231.521V236.827" stroke="#263238" stroke-miterlimit="10" stroke-linecap="round" stroke-linejoin="round"/>
<path d="M98.8672 231.521V236.827" stroke="#263238" stroke-miterlimit="10" stroke-linecap="round" stroke-linejoin="round"/>
<path d="M95.1797 231.521V236.827" stroke="#263238" stroke-miterlimit="10" stroke-linecap="round" stroke-linejoin="round"/>
<path d="M89.6406 231.521V236.827" stroke="#263238" stroke-miterlimit="10" stroke-linecap="round" stroke-linejoin="round"/>
<path d="M80.4141 231.521V236.827" stroke="#263238" stroke-miterlimit="10" stroke-linecap="round" stroke-linejoin="round"/>
<path d="M51.0878 243.044H114.969V237.365H51.0878V243.044Z" fill="#FFA300" stroke="#263238" stroke-miterlimit="10" stroke-linecap="round" stroke-linejoin="round"/>
<path d="M111.586 237.492V242.798" stroke="#263238" stroke-miterlimit="10" stroke-linecap="round" stroke-linejoin="round"/>
<path d="M113.438 237.492V242.798" stroke="#263238" stroke-miterlimit="10" stroke-linecap="round" stroke-linejoin="round"/>
<path d="M107.898 237.492V242.798" stroke="#263238" stroke-miterlimit="10" stroke-linecap="round" stroke-linejoin="round"/>
<path d="M104.211 237.492V242.798" stroke="#263238" stroke-miterlimit="10" stroke-linecap="round" stroke-linejoin="round"/>
<path d="M100.516 237.492V242.798" stroke="#263238" stroke-miterlimit="10" stroke-linecap="round" stroke-linejoin="round"/>
<path d="M96.8281 237.492V242.798" stroke="#263238" stroke-miterlimit="10" stroke-linecap="round" stroke-linejoin="round"/>
<path d="M91.2891 237.492V242.798" stroke="#263238" stroke-miterlimit="10" stroke-linecap="round" stroke-linejoin="round"/>
<path d="M82.0625 237.492V242.798" stroke="#263238" stroke-miterlimit="10" stroke-linecap="round" stroke-linejoin="round"/>
<path d="M48.3144 249.016H112.195V243.337H48.3144V249.016Z" fill="#FFA300" stroke="#263238" stroke-miterlimit="10" stroke-linecap="round" stroke-linejoin="round"/>
<path d="M108.812 243.464V248.77" stroke="#263238" stroke-miterlimit="10" stroke-linecap="round" stroke-linejoin="round"/>
<path d="M110.664 243.464V248.77" stroke="#263238" stroke-miterlimit="10" stroke-linecap="round" stroke-linejoin="round"/>
<path d="M105.125 243.464V248.77" stroke="#263238" stroke-miterlimit="10" stroke-linecap="round" stroke-linejoin="round"/>
<path d="M101.438 243.464V248.77" stroke="#263238" stroke-miterlimit="10" stroke-linecap="round" stroke-linejoin="round"/>
<path d="M97.7422 243.464V248.77" stroke="#263238" stroke-miterlimit="10" stroke-linecap="round" stroke-linejoin="round"/>
<path d="M94.0547 243.464V248.77" stroke="#263238" stroke-miterlimit="10" stroke-linecap="round" stroke-linejoin="round"/>
<path d="M88.5156 243.464V248.77" stroke="#263238" stroke-miterlimit="10" stroke-linecap="round" stroke-linejoin="round"/>
<path d="M79.2891 243.464V248.77" stroke="#263238" stroke-miterlimit="10" stroke-linecap="round" stroke-linejoin="round"/>
<path d="M48.3144 254.986H112.195V249.308H48.3144V254.986Z" fill="#FFA300" stroke="#263238" stroke-miterlimit="10" stroke-linecap="round" stroke-linejoin="round"/>
<path d="M108.812 249.435V254.741" stroke="#263238" stroke-miterlimit="10" stroke-linecap="round" stroke-linejoin="round"/>
<path d="M110.664 249.435V254.741" stroke="#263238" stroke-miterlimit="10" stroke-linecap="round" stroke-linejoin="round"/>
<path d="M105.125 249.435V254.741" stroke="#263238" stroke-miterlimit="10" stroke-linecap="round" stroke-linejoin="round"/>
<path d="M101.438 249.435V254.741" stroke="#263238" stroke-miterlimit="10" stroke-linecap="round" stroke-linejoin="round"/>
<path d="M97.7422 249.435V254.741" stroke="#263238" stroke-miterlimit="10" stroke-linecap="round" stroke-linejoin="round"/>
<path d="M94.0547 249.435V254.741" stroke="#263238" stroke-miterlimit="10" stroke-linecap="round" stroke-linejoin="round"/>
<path d="M88.5156 249.435V254.741" stroke="#263238" stroke-miterlimit="10" stroke-linecap="round" stroke-linejoin="round"/>
<path d="M79.2891 249.435V254.741" stroke="#263238" stroke-miterlimit="10" stroke-linecap="round" stroke-linejoin="round"/>
<path d="M44.955 260.958H108.836V255.279H44.955V260.958Z" fill="#FFA300" stroke="#263238" stroke-miterlimit="10" stroke-linecap="round" stroke-linejoin="round"/>
<path d="M105.453 255.406V260.712" stroke="#263238" stroke-miterlimit="10" stroke-linecap="round" stroke-linejoin="round"/>
<path d="M107.305 255.406V260.712" stroke="#263238" stroke-miterlimit="10" stroke-linecap="round" stroke-linejoin="round"/>
<path d="M101.766 255.406V260.712" stroke="#263238" stroke-miterlimit="10" stroke-linecap="round" stroke-linejoin="round"/>
<path d="M98.0781 255.406V260.712" stroke="#263238" stroke-miterlimit="10" stroke-linecap="round" stroke-linejoin="round"/>
<path d="M94.3828 255.406V260.712" stroke="#263238" stroke-miterlimit="10" stroke-linecap="round" stroke-linejoin="round"/>
<path d="M90.6953 255.406V260.712" stroke="#263238" stroke-miterlimit="10" stroke-linecap="round" stroke-linejoin="round"/>
<path d="M85.1562 255.406V260.712" stroke="#263238" stroke-miterlimit="10" stroke-linecap="round" stroke-linejoin="round"/>
<path d="M75.9297 255.406V260.712" stroke="#263238" stroke-miterlimit="10" stroke-linecap="round" stroke-linejoin="round"/>
<path d="M46.4472 266.929H110.328V261.25H46.4472V266.929Z" fill="#FFA300" stroke="#263238" stroke-miterlimit="10" stroke-linecap="round" stroke-linejoin="round"/>
<path d="M106.945 261.377V266.683" stroke="#263238" stroke-miterlimit="10" stroke-linecap="round" stroke-linejoin="round"/>
<path d="M108.797 261.377V266.683" stroke="#263238" stroke-miterlimit="10" stroke-linecap="round" stroke-linejoin="round"/>
<path d="M103.258 261.377V266.683" stroke="#263238" stroke-miterlimit="10" stroke-linecap="round" stroke-linejoin="round"/>
<path d="M99.5703 261.377V266.683" stroke="#263238" stroke-miterlimit="10" stroke-linecap="round" stroke-linejoin="round"/>
<path d="M95.875 261.377V266.683" stroke="#263238" stroke-miterlimit="10" stroke-linecap="round" stroke-linejoin="round"/>
<path d="M92.1875 261.377V266.683" stroke="#263238" stroke-miterlimit="10" stroke-linecap="round" stroke-linejoin="round"/>
<path d="M86.6484 261.377V266.683" stroke="#263238" stroke-miterlimit="10" stroke-linecap="round" stroke-linejoin="round"/>
<path d="M77.4219 261.377V266.683" stroke="#263238" stroke-miterlimit="10" stroke-linecap="round" stroke-linejoin="round"/>
<path d="M46.8222 272.9H110.703V267.222H46.8222V272.9Z" fill="#FFA300" stroke="#263238" stroke-miterlimit="10" stroke-linecap="round" stroke-linejoin="round"/>
<path d="M107.32 267.349V272.655" stroke="#263238" stroke-miterlimit="10" stroke-linecap="round" stroke-linejoin="round"/>
<path d="M109.172 267.349V272.655" stroke="#263238" stroke-miterlimit="10" stroke-linecap="round" stroke-linejoin="round"/>
<path d="M103.633 267.349V272.655" stroke="#263238" stroke-miterlimit="10" stroke-linecap="round" stroke-linejoin="round"/>
<path d="M99.9453 267.349V272.655" stroke="#263238" stroke-miterlimit="10" stroke-linecap="round" stroke-linejoin="round"/>
<path d="M96.25 267.349V272.655" stroke="#263238" stroke-miterlimit="10" stroke-linecap="round" stroke-linejoin="round"/>
<path d="M92.5625 267.349V272.655" stroke="#263238" stroke-miterlimit="10" stroke-linecap="round" stroke-linejoin="round"/>
<path d="M87.0234 267.349V272.655" stroke="#263238" stroke-miterlimit="10" stroke-linecap="round" stroke-linejoin="round"/>
<path d="M77.7969 267.349V272.655" stroke="#263238" stroke-miterlimit="10" stroke-linecap="round" stroke-linejoin="round"/>
<path d="M48.3144 278.872H112.195V273.193H48.3144V278.872Z" fill="#FFA300" stroke="#263238" stroke-miterlimit="10" stroke-linecap="round" stroke-linejoin="round"/>
<path d="M108.812 273.32V278.627" stroke="#263238" stroke-miterlimit="10" stroke-linecap="round" stroke-linejoin="round"/>
<path d="M110.664 273.32V278.627" stroke="#263238" stroke-miterlimit="10" stroke-linecap="round" stroke-linejoin="round"/>
<path d="M105.125 273.32V278.627" stroke="#263238" stroke-miterlimit="10" stroke-linecap="round" stroke-linejoin="round"/>
<path d="M101.438 273.32V278.627" stroke="#263238" stroke-miterlimit="10" stroke-linecap="round" stroke-linejoin="round"/>
<path d="M97.7422 273.32V278.627" stroke="#263238" stroke-miterlimit="10" stroke-linecap="round" stroke-linejoin="round"/>
<path d="M94.0547 273.32V278.627" stroke="#263238" stroke-miterlimit="10" stroke-linecap="round" stroke-linejoin="round"/>
<path d="M88.5156 273.32V278.627" stroke="#263238" stroke-miterlimit="10" stroke-linecap="round" stroke-linejoin="round"/>
<path d="M79.2891 273.32V278.627" stroke="#263238" stroke-miterlimit="10" stroke-linecap="round" stroke-linejoin="round"/>
<path d="M48.3144 284.843H112.195V279.164H48.3144V284.843Z" fill="#FFA300" stroke="#263238" stroke-miterlimit="10" stroke-linecap="round" stroke-linejoin="round"/>
<path d="M108.812 279.291V284.597" stroke="#263238" stroke-miterlimit="10" stroke-linecap="round" stroke-linejoin="round"/>
<path d="M110.664 279.291V284.597" stroke="#263238" stroke-miterlimit="10" stroke-linecap="round" stroke-linejoin="round"/>
<path d="M105.125 279.291V284.597" stroke="#263238" stroke-miterlimit="10" stroke-linecap="round" stroke-linejoin="round"/>
<path d="M101.438 279.291V284.597" stroke="#263238" stroke-miterlimit="10" stroke-linecap="round" stroke-linejoin="round"/>
<path d="M97.7422 279.291V284.597" stroke="#263238" stroke-miterlimit="10" stroke-linecap="round" stroke-linejoin="round"/>
<path d="M94.0547 279.291V284.597" stroke="#263238" stroke-miterlimit="10" stroke-linecap="round" stroke-linejoin="round"/>
<path d="M88.5156 279.291V284.597" stroke="#263238" stroke-miterlimit="10" stroke-linecap="round" stroke-linejoin="round"/>
<path d="M79.2891 279.291V284.597" stroke="#263238" stroke-miterlimit="10" stroke-linecap="round" stroke-linejoin="round"/>
<path d="M46.8222 290.814H110.703V285.136H46.8222V290.814Z" fill="#FFA300" stroke="#263238" stroke-miterlimit="10" stroke-linecap="round" stroke-linejoin="round"/>
<path d="M107.32 285.263V290.569" stroke="#263238" stroke-miterlimit="10" stroke-linecap="round" stroke-linejoin="round"/>
<path d="M109.172 285.263V290.569" stroke="#263238" stroke-miterlimit="10" stroke-linecap="round" stroke-linejoin="round"/>
<path d="M103.633 285.263V290.569" stroke="#263238" stroke-miterlimit="10" stroke-linecap="round" stroke-linejoin="round"/>
<path d="M99.9453 285.263V290.569" stroke="#263238" stroke-miterlimit="10" stroke-linecap="round" stroke-linejoin="round"/>
<path d="M96.25 285.263V290.569" stroke="#263238" stroke-miterlimit="10" stroke-linecap="round" stroke-linejoin="round"/>
<path d="M92.5625 285.263V290.569" stroke="#263238" stroke-miterlimit="10" stroke-linecap="round" stroke-linejoin="round"/>
<path d="M87.0234 285.263V290.569" stroke="#263238" stroke-miterlimit="10" stroke-linecap="round" stroke-linejoin="round"/>
<path d="M77.7969 285.263V290.569" stroke="#263238" stroke-miterlimit="10" stroke-linecap="round" stroke-linejoin="round"/>
<path d="M48.3144 296.785H112.195V291.106H48.3144V296.785Z" fill="#FFA300" stroke="#263238" stroke-miterlimit="10" stroke-linecap="round" stroke-linejoin="round"/>
<path d="M108.812 291.233V296.54" stroke="#263238" stroke-miterlimit="10" stroke-linecap="round" stroke-linejoin="round"/>
<path d="M110.664 291.233V296.54" stroke="#263238" stroke-miterlimit="10" stroke-linecap="round" stroke-linejoin="round"/>
<path d="M105.125 291.233V296.54" stroke="#263238" stroke-miterlimit="10" stroke-linecap="round" stroke-linejoin="round"/>
<path d="M101.438 291.233V296.54" stroke="#263238" stroke-miterlimit="10" stroke-linecap="round" stroke-linejoin="round"/>
<path d="M97.7422 291.233V296.54" stroke="#263238" stroke-miterlimit="10" stroke-linecap="round" stroke-linejoin="round"/>
<path d="M94.0547 291.233V296.54" stroke="#263238" stroke-miterlimit="10" stroke-linecap="round" stroke-linejoin="round"/>
<path d="M88.5156 291.233V296.54" stroke="#263238" stroke-miterlimit="10" stroke-linecap="round" stroke-linejoin="round"/>
<path d="M79.2891 291.233V296.54" stroke="#263238" stroke-miterlimit="10" stroke-linecap="round" stroke-linejoin="round"/>
</svg>
