<svg width="352" height="312" viewBox="0 0 352 312" fill="none" xmlns="http://www.w3.org/2000/svg">
<path opacity="0.3" d="M279.333 60.6102C266.464 41.5371 255.784 17.6723 234.974 5.88113C205.378 -10.8885 176.929 11.913 152.935 28.0078C140.349 36.4501 126.93 45.2474 111.699 47.697C89.8857 51.2058 67.7376 41.4963 46.11 47.4416C9.60247 57.4776 -0.421669 102.077 11.8671 133.833C28.9191 177.897 67.0831 225.225 74.3911 261.129C81.6991 297.033 115.803 322.329 174.267 306.009C232.731 289.689 229.483 252.153 281.451 243.993C333.419 235.833 358.591 198.297 349.659 150.969C345.262 127.669 331.023 110.572 312.499 96.8529C299.278 87.0617 288.54 74.2562 279.333 60.6102Z" fill="#DADADA"/>
<path d="M164.026 289.345L67.313 111.918L0.5 134.649L22.1723 176.997L20.8 174.633L16.7619 175.986C15.0429 176.562 14.2399 178.543 15.0681 180.162L25.7548 201.044C27.1563 203.783 30.1591 205.298 33.1822 204.791L36.1427 204.295L88.196 306.008L164.026 289.345Z" fill="#AFAFAF"/>
<path d="M226.497 35.3128C224.334 36.5033 221.619 35.7069 220.435 33.5331L217.959 28.9912L67.3125 111.918L164.026 289.346L314.672 206.42L262.024 109.833C260.84 107.659 261.632 104.931 263.795 103.741C265.959 102.55 266.752 99.8225 265.566 97.6486L232.559 37.0933C231.375 34.9195 228.66 34.1222 226.497 35.3128Z" fill="#EEBD34" stroke="#263238" stroke-miterlimit="10" stroke-linecap="round" stroke-linejoin="round"/>
<path d="M233.999 41.8935L111.646 85.7109L170.047 250.396L292.4 206.578L233.999 41.8935Z" fill="white" stroke="#263238" stroke-miterlimit="10" stroke-linecap="round" stroke-linejoin="round"/>
<path d="M233.999 41.8944L111.646 85.7119L133.163 146.387L255.516 102.57L233.999 41.8944Z" fill="white" stroke="#263238" stroke-miterlimit="10" stroke-linecap="round" stroke-linejoin="round"/>
<path d="M224.529 104.227C233.666 98.3991 236.371 86.2314 230.572 77.0496C224.773 67.8679 212.665 65.149 203.528 70.9769C194.391 76.8048 191.686 88.9726 197.485 98.1543C203.284 107.336 215.392 110.055 224.529 104.227Z" fill="#263238" stroke="#263238" stroke-miterlimit="10" stroke-linecap="round" stroke-linejoin="round"/>
<path d="M220.601 106.145C226.319 104.097 230.502 99.6523 232.432 94.3369C229.036 86.6844 220.715 82.6917 213.234 85.3715C205.752 88.0512 201.82 96.4315 204.005 104.518C208.846 107.409 214.883 108.193 220.601 106.145Z" fill="white" stroke="#263238" stroke-miterlimit="10" stroke-linecap="round" stroke-linejoin="round"/>
<path d="M222.059 80.5382C223.9 85.728 221.205 91.4351 216.04 93.285C210.875 95.1348 205.197 92.4265 203.356 87.2368C201.515 82.0462 204.21 76.3399 209.375 74.49C214.539 72.6402 220.218 75.3476 222.059 80.5382Z" fill="white" stroke="#263238" stroke-miterlimit="10" stroke-linecap="round" stroke-linejoin="round"/>
<path d="M172.89 88.1215L130.068 103.457L131.822 108.403L174.644 93.0679L172.89 88.1215Z" fill="white" stroke="#263238" stroke-miterlimit="10" stroke-linecap="round" stroke-linejoin="round"/>
<path d="M177.099 99.9926L134.277 115.328L136.031 120.275L178.853 104.939L177.099 99.9926Z" fill="white" stroke="#263238" stroke-miterlimit="10" stroke-linecap="round" stroke-linejoin="round"/>
<path d="M180.607 109.885L137.785 125.221L138.662 127.694L181.484 112.358L180.607 109.885Z" fill="#263238"/>
<path d="M182.712 115.821L139.891 131.156L140.768 133.629L183.589 118.294L182.712 115.821Z" fill="#263238"/>
<path d="M193.413 145.993L150.592 161.328L151.469 163.801L194.29 148.465L193.413 145.993Z" fill="#263238"/>
<path d="M195.341 151.434L152.52 166.77L153.396 169.242L196.218 153.907L195.341 151.434Z" fill="#263238"/>
<path d="M197.271 156.874L154.449 172.21L155.326 174.683L198.148 159.347L197.271 156.874Z" fill="#263238"/>
<path d="M251.492 125.193L208.67 140.528L209.547 143.001L252.368 127.666L251.492 125.193Z" fill="#263238"/>
<path d="M253.421 130.632L210.6 145.968L211.477 148.441L254.298 133.105L253.421 130.632Z" fill="#263238"/>
<path d="M255.351 136.074L212.529 151.409L213.406 153.882L256.228 138.547L255.351 136.074Z" fill="#263238"/>
<path d="M147.848 156.728L251.206 119.712" stroke="#263238" stroke-miterlimit="10" stroke-linecap="round" stroke-linejoin="round"/>
<path d="M203.411 174.186L160.59 189.521L161.467 191.994L204.288 176.659L203.411 174.186Z" fill="#263238"/>
<path d="M205.341 179.627L162.52 194.963L163.396 197.436L206.218 182.1L205.341 179.627Z" fill="#263238"/>
<path d="M207.271 185.068L164.449 200.403L165.326 202.876L208.148 187.541L207.271 185.068Z" fill="#263238"/>
<path d="M261.49 153.386L218.668 168.722L219.545 171.195L262.367 155.859L261.49 153.386Z" fill="#263238"/>
<path d="M263.419 158.827L220.598 174.162L221.475 176.635L264.296 161.299L263.419 158.827Z" fill="#263238"/>
<path d="M265.351 164.268L222.529 179.604L223.406 182.076L266.228 166.741L265.351 164.268Z" fill="#263238"/>
<path d="M157.846 184.921L261.204 147.904" stroke="#263238" stroke-miterlimit="10" stroke-linecap="round" stroke-linejoin="round"/>
<path d="M269.21 175.15L167.816 211.462L176.587 236.193L277.98 199.882L269.21 175.15Z" fill="#263238" stroke="#263238" stroke-miterlimit="10" stroke-linecap="round" stroke-linejoin="round"/>
<path d="M217.972 52.0914L98.5938 103.519L167.137 264.2L286.515 212.773L217.972 52.0914Z" fill="white" stroke="#263238" stroke-miterlimit="10" stroke-linecap="round" stroke-linejoin="round"/>
<path d="M217.972 52.0895L98.5938 103.517L123.847 162.717L243.225 111.29L217.972 52.0895Z" fill="white" stroke="#263238" stroke-miterlimit="10" stroke-linecap="round" stroke-linejoin="round"/>
<path d="M217.465 109.47C223.241 100.274 220.506 88.1135 211.355 82.3084C202.204 76.5033 190.103 79.2521 184.327 88.448C178.55 97.6439 181.285 109.805 190.436 115.61C199.587 121.415 211.688 118.666 217.465 109.47Z" fill="#263238" stroke="#263238" stroke-miterlimit="10" stroke-linecap="round" stroke-linejoin="round"/>
<path d="M208.617 117.051C214.197 114.647 218.094 109.948 219.689 104.521C215.823 97.098 207.27 93.6365 199.97 96.7814C192.67 99.9263 189.268 108.538 191.952 116.471C196.964 119.052 203.038 119.455 208.617 117.051Z" fill="white" stroke="#263238" stroke-miterlimit="10" stroke-linecap="round" stroke-linejoin="round"/>
<path d="M208.477 91.4033C210.637 96.4674 208.303 102.333 203.264 104.504C198.225 106.676 192.389 104.33 190.228 99.2654C188.067 94.2013 190.401 88.3359 195.44 86.1654C200.48 83.994 206.317 86.3392 208.477 91.4033Z" fill="white" stroke="#263238" stroke-miterlimit="10" stroke-linecap="round" stroke-linejoin="round"/>
<path d="M159.865 102.07L118.084 120.068L120.143 124.895L161.923 106.896L159.865 102.07Z" fill="white" stroke="#263238" stroke-miterlimit="10" stroke-linecap="round" stroke-linejoin="round"/>
<path d="M164.804 113.652L123.023 131.65L125.082 136.477L166.863 118.478L164.804 113.652Z" fill="white" stroke="#263238" stroke-miterlimit="10" stroke-linecap="round" stroke-linejoin="round"/>
<path d="M168.923 123.304L127.143 141.303L128.172 143.715L169.952 125.717L168.923 123.304Z" fill="#263238"/>
<path d="M171.392 129.096L129.611 147.095L130.641 149.507L172.421 131.509L171.392 129.096Z" fill="#263238"/>
<path d="M183.951 158.535L142.17 176.534L143.199 178.947L184.98 160.948L183.951 158.535Z" fill="#263238"/>
<path d="M186.216 163.843L144.436 181.842L145.465 184.255L187.245 166.256L186.216 163.843Z" fill="#263238"/>
<path d="M188.48 169.153L146.699 187.151L147.728 189.564L189.509 171.565L188.48 169.153Z" fill="#263238"/>
<path d="M240.62 134.121L198.84 152.12L199.869 154.533L241.65 136.534L240.62 134.121Z" fill="#263238"/>
<path d="M242.884 139.431L201.104 157.43L202.133 159.842L243.913 141.844L242.884 139.431Z" fill="#263238"/>
<path d="M245.15 144.739L203.369 162.737L204.398 165.15L246.179 147.151L245.15 144.739Z" fill="#263238"/>
<path d="M139.158 172.114L240.008 128.665" stroke="#263238" stroke-miterlimit="10" stroke-linecap="round" stroke-linejoin="round"/>
<path d="M195.687 186.043L153.906 204.042L154.935 206.455L196.716 188.456L195.687 186.043Z" fill="#263238"/>
<path d="M197.951 191.352L156.17 209.351L157.199 211.763L198.98 193.765L197.951 191.352Z" fill="#263238"/>
<path d="M200.214 196.661L158.434 214.66L159.463 217.073L201.243 199.074L200.214 196.661Z" fill="#263238"/>
<path d="M252.355 161.631L210.574 179.63L211.603 182.043L253.384 164.044L252.355 161.631Z" fill="#263238"/>
<path d="M254.619 166.94L212.838 184.938L213.867 187.351L255.648 169.352L254.619 166.94Z" fill="#263238"/>
<path d="M256.884 172.248L215.104 190.247L216.133 192.66L257.913 174.661L256.884 172.248Z" fill="#263238"/>
<path d="M150.895 199.623L251.743 156.174" stroke="#263238" stroke-miterlimit="10" stroke-linecap="round" stroke-linejoin="round"/>
<path d="M261.413 182.866L162.484 225.483L172.778 249.613L271.706 206.996L261.413 182.866Z" fill="#263238" stroke="#263238" stroke-miterlimit="10" stroke-linecap="round" stroke-linejoin="round"/>
<path d="M190.676 50.9547L81.7402 122.039L176.483 268.665L285.418 197.58L190.676 50.9547Z" fill="white" stroke="#263238" stroke-miterlimit="10" stroke-linecap="round" stroke-linejoin="round"/>
<path d="M190.677 50.9567L81.7422 122.041L116.648 176.062L225.584 104.978L190.677 50.9567Z" fill="white" stroke="#263238" stroke-miterlimit="10" stroke-linecap="round" stroke-linejoin="round"/>
<path d="M184.917 119.504C195.598 117.759 202.848 107.643 201.111 96.9091C199.374 86.1754 189.308 78.8891 178.627 80.6345C167.946 82.38 160.695 92.4962 162.432 103.23C164.169 113.963 174.236 121.25 184.917 119.504Z" fill="#263238" stroke="#263238" stroke-miterlimit="10" stroke-linecap="round" stroke-linejoin="round"/>
<path d="M192.447 116.595C197.538 113.273 200.584 107.977 201.238 102.357C196.172 95.7024 187.158 93.7521 180.496 98.099C173.835 102.446 171.939 111.513 175.926 118.872C181.302 120.558 187.355 119.918 192.447 116.595Z" fill="#FF6B6B" stroke="#263238" stroke-miterlimit="10" stroke-linecap="round" stroke-linejoin="round"/>
<path d="M187.97 91.3449C190.955 95.9659 189.648 102.145 185.05 105.145C180.451 108.146 174.303 106.832 171.317 102.21C168.331 97.589 169.639 91.4102 174.237 88.4098C178.835 85.4093 184.984 86.7239 187.97 91.3449Z" fill="white" stroke="#263238" stroke-miterlimit="10" stroke-linecap="round" stroke-linejoin="round"/>
<path d="M141.876 110.14L103.75 135.019L106.596 139.423L144.721 114.544L141.876 110.14Z" fill="white" stroke="#263238" stroke-miterlimit="10" stroke-linecap="round" stroke-linejoin="round"/>
<path d="M148.706 120.709L110.58 145.588L113.426 149.992L151.552 125.113L148.706 120.709Z" fill="white" stroke="#263238" stroke-miterlimit="10" stroke-linecap="round" stroke-linejoin="round"/>
<path d="M154.395 129.517L116.27 154.396L117.692 156.597L155.818 131.719L154.395 129.517Z" fill="#263238"/>
<path d="M157.811 134.801L119.686 159.68L121.108 161.881L159.234 137.003L157.811 134.801Z" fill="#263238"/>
<path d="M175.169 161.664L137.043 186.543L138.466 188.745L176.591 163.866L175.169 161.664Z" fill="#263238"/>
<path d="M178.298 166.507L140.172 191.386L141.594 193.587L179.72 168.709L178.298 166.507Z" fill="#263238"/>
<path d="M181.427 171.353L143.301 196.231L144.723 198.433L182.849 173.555L181.427 171.353Z" fill="#263238"/>
<path d="M226.878 127.921L188.752 152.8L190.175 155.001L228.3 130.123L226.878 127.921Z" fill="#263238"/>
<path d="M230.009 132.766L191.883 157.645L193.305 159.846L231.431 134.968L230.009 132.766Z" fill="#263238"/>
<path d="M233.138 137.61L195.012 162.488L196.434 164.69L234.56 139.811L233.138 137.61Z" fill="#263238"/>
<path d="M133.314 182.724L225.345 122.677" stroke="#263238" stroke-miterlimit="10" stroke-linecap="round" stroke-linejoin="round"/>
<path d="M191.388 186.765L153.262 211.644L154.684 213.845L192.81 188.967L191.388 186.765Z" fill="#263238"/>
<path d="M194.516 191.61L156.391 216.488L157.813 218.69L195.939 193.811L194.516 191.61Z" fill="#263238"/>
<path d="M197.647 196.454L159.521 221.332L160.944 223.534L199.07 198.655L197.647 196.454Z" fill="#263238"/>
<path d="M243.096 153.023L204.971 177.901L206.393 180.103L244.519 155.225L243.096 153.023Z" fill="#263238"/>
<path d="M246.227 157.868L208.102 182.746L209.524 184.948L247.65 160.069L246.227 157.868Z" fill="#263238"/>
<path d="M249.356 162.711L211.23 187.59L212.653 189.791L250.779 164.913L249.356 162.711Z" fill="#263238"/>
<path d="M149.533 207.826L241.564 147.779" stroke="#263238" stroke-miterlimit="10" stroke-linecap="round" stroke-linejoin="round"/>
<path d="M255.616 172.399L165.342 231.307L179.57 253.326L269.844 194.418L255.616 172.399Z" fill="#E8E8E8" stroke="#263238" stroke-miterlimit="10" stroke-linecap="round" stroke-linejoin="round"/>
<path d="M67.3123 111.918L9.56445 66.9912L43.925 131.773C44.7565 133.34 42.5796 133.632 40.3855 132.248C38.1753 130.854 35.9918 131.163 36.8598 132.749L54.684 165.303C54.8984 165.694 55.2825 166.108 55.7794 166.485L64.4784 173.078C64.9908 173.466 65.383 173.895 65.5925 174.295L101.656 243.126L164.025 289.345L67.3123 111.918Z" fill="#E18920" stroke="#263238" stroke-miterlimit="10" stroke-linecap="round" stroke-linejoin="round"/>
</svg>
