<svg width="361" height="361" viewBox="0 0 361 361" fill="none" xmlns="http://www.w3.org/2000/svg">
<path d="M352.302 216.244C356.616 151.324 323.915 89.1754 267.238 57.5056C257.187 51.8892 246.065 47.0352 233.779 43.3198C143.059 15.8838 109.219 38.9878 85.4594 67.8678C61.6994 96.7478 84.0194 145.844 56.6594 166.06C29.2994 186.276 -3.82063 215.156 9.85937 257.754C23.5394 300.352 57.3794 328.51 89.0594 325.622C120.739 322.734 153.859 285.19 176.179 309.738C198.499 334.286 269.779 358.112 316.579 316.958C341.59 294.964 349.944 251.732 352.302 216.244Z" fill="#F1F1F1"/>
<path d="M174.181 356.507C256.493 356.507 323.221 353.921 323.221 350.731C323.221 347.541 256.493 344.955 174.181 344.955C91.8681 344.955 25.1406 347.541 25.1406 350.731C25.1406 353.921 91.8681 356.507 174.181 356.507Z" fill="#263238" fill-opacity="0.2"/>
<path d="M283.085 201.197C287.339 201.993 291.983 199.26 294.637 194.864C296.627 191.563 297.33 188.301 298.143 184.571C299.028 180.481 330.647 33.0785 330.966 31.6172H170.826L138.224 183.533L136.897 189.664C136.625 190.93 136.136 192.143 135.466 193.252L134.497 194.864C132.377 198.373 128.818 200.088 125.273 200.088C121.273 200.088 117.285 197.91 115.399 193.682C112.563 187.336 106.436 183.644 100.054 183.533C99.9571 183.526 99.8527 183.526 99.7483 183.526C99.6511 183.526 99.5532 183.526 99.4553 183.533C96.437 183.578 93.3734 184.439 90.6021 186.2C86.8488 188.588 84.1689 192.344 83.1278 196.676L69.8906 251.728H230.031L242.182 201.196" fill="white"/>
<path d="M283.085 201.197C287.339 201.993 291.983 199.26 294.637 194.864C296.627 191.563 297.33 188.301 298.143 184.571C299.028 180.481 330.647 33.0785 330.966 31.6172H170.826L138.224 183.533L136.897 189.664C136.625 190.93 136.136 192.143 135.466 193.252L134.497 194.864C132.377 198.373 128.818 200.088 125.273 200.088C121.273 200.088 117.285 197.91 115.399 193.682C112.563 187.336 106.436 183.644 100.054 183.532C99.9571 183.526 99.8527 183.526 99.7483 183.526C99.6511 183.526 99.5532 183.526 99.4553 183.532C96.437 183.578 93.3734 184.439 90.6021 186.2C86.8488 188.588 84.1689 192.345 83.1278 196.676L69.8906 251.728H230.031L242.182 201.196" stroke="#263238" stroke-miterlimit="10" stroke-linecap="round" stroke-linejoin="round"/>
<path d="M174.953 65.5977H316.208" stroke="#263238" stroke-miterlimit="10"/>
<path d="M278.633 81.2979H311.685" stroke="#263238" stroke-miterlimit="10"/>
<path d="M226.797 81.2979H275.157" stroke="#263238" stroke-miterlimit="10"/>
<path d="M194.438 81.2979H224.011" stroke="#263238" stroke-miterlimit="10"/>
<path d="M170.43 81.2979H191.653" stroke="#263238" stroke-miterlimit="10"/>
<path d="M274.461 89.3223H309.949" stroke="#263238" stroke-miterlimit="10"/>
<path d="M194.094 89.3223H270.983" stroke="#263238" stroke-miterlimit="10"/>
<path d="M168.695 89.3223H190.962" stroke="#263238" stroke-miterlimit="10"/>
<path d="M267.156 97.3467H308.211" stroke="#263238" stroke-miterlimit="10"/>
<path d="M205.57 97.3467H264.368" stroke="#263238" stroke-miterlimit="10"/>
<path d="M166.953 97.3467H202.789" stroke="#263238" stroke-miterlimit="10"/>
<path d="M280.719 105.371H306.465" stroke="#263238" stroke-miterlimit="10"/>
<path d="M241.406 105.371H277.241" stroke="#263238" stroke-miterlimit="10"/>
<path d="M203.484 105.371H237.928" stroke="#263238" stroke-miterlimit="10"/>
<path d="M174.953 105.371H200.351" stroke="#263238" stroke-miterlimit="10"/>
<path d="M165.211 105.371H171.821" stroke="#263238" stroke-miterlimit="10"/>
<path d="M298.812 113.396H304.727" stroke="#263238" stroke-miterlimit="10"/>
<path d="M240.016 113.396H294.291" stroke="#263238" stroke-miterlimit="10"/>
<path d="M198.617 113.396H236.54" stroke="#263238" stroke-miterlimit="10"/>
<path d="M163.477 113.396H194.789" stroke="#263238" stroke-miterlimit="10"/>
<path d="M291.156 121.419H302.985" stroke="#263238" stroke-miterlimit="10"/>
<path d="M256.719 121.419H288.032" stroke="#263238" stroke-miterlimit="10"/>
<path d="M246.281 121.419H253.239" stroke="#263238" stroke-miterlimit="10"/>
<path d="M196.18 121.419H244.541" stroke="#263238" stroke-miterlimit="10"/>
<path d="M161.734 121.419H193.395" stroke="#263238" stroke-miterlimit="10"/>
<path d="M159.992 129.443H301.246" stroke="#263238" stroke-miterlimit="10"/>
<path d="M292.203 137.468H299.509" stroke="#263238" stroke-miterlimit="10"/>
<path d="M260.195 137.468H287.681" stroke="#263238" stroke-miterlimit="10"/>
<path d="M214.273 137.468H255.328" stroke="#263238" stroke-miterlimit="10"/>
<path d="M204.18 137.468H211.138" stroke="#263238" stroke-miterlimit="10"/>
<path d="M172.172 137.468H200.353" stroke="#263238" stroke-miterlimit="10"/>
<path d="M158.258 137.468H167.999" stroke="#263238" stroke-miterlimit="10"/>
<path d="M262.281 145.492H297.769" stroke="#263238" stroke-miterlimit="10"/>
<path d="M224.711 145.492H257.763" stroke="#263238" stroke-miterlimit="10"/>
<path d="M195.828 145.492H221.226" stroke="#263238" stroke-miterlimit="10"/>
<path d="M156.516 145.492H192.351" stroke="#263238" stroke-miterlimit="10"/>
<path d="M284.898 153.517H296.032" stroke="#263238" stroke-miterlimit="10"/>
<path d="M248.016 153.517H281.068" stroke="#263238" stroke-miterlimit="10"/>
<path d="M224.359 153.517H245.582" stroke="#263238" stroke-miterlimit="10"/>
<path d="M205.227 153.517H220.883" stroke="#263238" stroke-miterlimit="10"/>
<path d="M187.133 153.517H202.441" stroke="#263238" stroke-miterlimit="10"/>
<path d="M164.172 153.517H183.307" stroke="#263238" stroke-miterlimit="10"/>
<path d="M154.773 153.517H161.036" stroke="#263238" stroke-miterlimit="10"/>
<path d="M275.5 161.541H294.288" stroke="#263238" stroke-miterlimit="10"/>
<path d="M242.453 161.541H271.331" stroke="#263238" stroke-miterlimit="10"/>
<path d="M211.484 161.541H238.274" stroke="#263238" stroke-miterlimit="10"/>
<path d="M175.305 161.541H207.313" stroke="#263238" stroke-miterlimit="10"/>
<path d="M153.039 161.541H171.827" stroke="#263238" stroke-miterlimit="10"/>
<path d="M274.461 169.565H292.553" stroke="#263238" stroke-miterlimit="10"/>
<path d="M243.148 169.565H270.981" stroke="#263238" stroke-miterlimit="10"/>
<path d="M210.789 169.565H238.274" stroke="#263238" stroke-miterlimit="10"/>
<path d="M188.523 169.565H207.659" stroke="#263238" stroke-miterlimit="10"/>
<path d="M165.562 169.565H185.046" stroke="#263238" stroke-miterlimit="10"/>
<path d="M151.297 169.565H163.474" stroke="#263238" stroke-miterlimit="10"/>
<path d="M280.375 177.59H290.813" stroke="#263238" stroke-miterlimit="10"/>
<path d="M244.883 177.59H276.891" stroke="#263238" stroke-miterlimit="10"/>
<path d="M216.703 177.59H240.709" stroke="#263238" stroke-miterlimit="10"/>
<path d="M198.266 177.59H212.878" stroke="#263238" stroke-miterlimit="10"/>
<path d="M168.688 177.59H193.042" stroke="#263238" stroke-miterlimit="10"/>
<path d="M149.555 177.59H166.255" stroke="#263238" stroke-miterlimit="10"/>
<path d="M258.482 183.533V183.585C255.828 183.807 253.175 184.655 250.742 186.201C248.862 187.394 247.255 188.934 245.987 190.708C244.718 192.489 243.788 194.511 243.268 196.676L230.031 251.729H69.8906L83.1278 196.676C84.1689 192.345 86.8488 188.588 90.6021 186.201C93.3734 184.44 96.437 183.579 99.4553 183.533H258.482Z" fill="white" stroke="#263238" stroke-miterlimit="10" stroke-linecap="round" stroke-linejoin="round"/>
<path d="M283.081 201.197H242.18L243.266 196.676C243.787 194.511 244.717 192.489 245.985 190.708C247.254 188.934 248.86 187.395 250.74 186.201C253.173 184.655 255.827 183.806 258.48 183.585C258.948 183.546 259.417 183.526 259.885 183.526C266.377 183.526 273.024 187.081 275.536 193.682C277.312 198.346 280.096 200.636 283.081 201.197Z" fill="#263238" stroke="#263238" stroke-miterlimit="10" stroke-linecap="round" stroke-linejoin="round"/>
<path d="M232.998 196.496C232.998 197.024 231.699 197.426 231.603 197.932C231.506 198.446 232.567 199.293 232.379 199.78C232.192 200.263 230.835 200.177 230.565 200.628C230.3 201.069 231.02 202.224 230.683 202.63C230.355 203.024 229.088 202.526 228.697 202.881C228.318 203.225 228.693 204.536 228.26 204.839C227.84 205.133 226.738 204.331 226.273 204.581C225.821 204.825 225.885 206.188 225.396 206.386C224.921 206.579 224.017 205.558 223.51 205.706C223.018 205.85 222.803 207.199 222.285 207.296C221.781 207.391 221.092 206.213 220.567 206.261C220.056 206.308 219.593 207.593 219.066 207.593C218.539 207.593 218.076 206.308 217.565 206.261C217.04 206.213 216.351 207.391 215.846 207.296C215.329 207.199 215.114 205.85 214.622 205.706C214.116 205.559 213.211 206.58 212.736 206.386C212.247 206.188 212.31 204.824 211.859 204.581C211.394 204.331 210.292 205.132 209.872 204.838C209.438 204.535 209.814 203.224 209.434 202.88C209.043 202.524 207.775 203.022 207.447 202.628C207.109 202.222 207.831 201.068 207.566 200.626C207.296 200.176 205.938 200.262 205.751 199.779C205.563 199.293 206.625 198.445 206.527 197.932C206.432 197.425 205.133 197.023 205.133 196.496C205.133 195.967 206.431 195.566 206.527 195.059C206.625 194.545 205.563 193.698 205.751 193.211C205.938 192.728 207.296 192.814 207.566 192.364C207.831 191.922 207.11 190.767 207.448 190.361C207.776 189.967 209.043 190.465 209.434 190.11C209.814 189.766 209.438 188.455 209.871 188.152C210.291 187.858 211.393 188.66 211.858 188.41C212.31 188.167 212.246 186.803 212.735 186.605C213.21 186.412 214.114 187.433 214.621 187.285C215.113 187.141 215.328 185.793 215.846 185.695C216.35 185.601 217.039 186.778 217.564 186.73C218.076 186.683 218.539 185.398 219.066 185.398C219.593 185.398 220.056 186.683 220.566 186.73C221.091 186.778 221.78 185.601 222.285 185.695C222.803 185.793 223.017 187.141 223.509 187.285C224.016 187.432 224.92 186.411 225.395 186.605C225.884 186.803 225.821 188.167 226.272 188.41C226.737 188.66 227.839 187.859 228.259 188.153C228.693 188.456 228.318 189.767 228.697 190.112C229.088 190.467 230.356 189.969 230.684 190.364C231.022 190.769 230.3 191.923 230.565 192.365C230.835 192.816 232.193 192.73 232.38 193.213C232.568 193.699 231.506 194.546 231.604 195.06C231.699 195.566 232.998 195.967 232.998 196.496Z" fill="#727782"/>
<path d="M219.067 204.815C224.907 204.815 229.641 201.09 229.641 196.495C229.641 191.9 224.907 188.175 219.067 188.175C213.227 188.175 208.492 191.9 208.492 196.495C208.492 201.09 213.227 204.815 219.067 204.815Z" fill="white"/>
<path d="M219.068 203.23C223.795 203.23 227.628 200.215 227.628 196.496C227.628 192.776 223.795 189.761 219.068 189.761C214.34 189.761 210.508 192.776 210.508 196.496C210.508 200.215 214.34 203.23 219.068 203.23Z" fill="#727782"/>
<path d="M225.097 237.025H155.562" stroke="#263238" stroke-miterlimit="10" stroke-linecap="round" stroke-linejoin="round"/>
<path d="M133.446 237.025H83.6172" stroke="#263238" stroke-miterlimit="10" stroke-linecap="round" stroke-linejoin="round"/>
<path d="M170.648 235.549C170.648 235.549 183.775 220.976 187.514 206.68C191.251 192.385 182.054 200.132 178.375 215.996C174.696 231.86 174.696 235.918 178.375 232.967C181.239 230.669 184.103 227.03 185.926 224.138C186.445 223.315 186.879 222.553 187.205 221.899C188.677 218.948 183.894 220.792 182.79 226.696C181.686 232.599 188.309 224.113 190.148 221.161C191.988 218.21 195.667 216.734 192.724 224.482C189.78 232.23 185.365 230.754 189.412 225.589C193.459 220.424 197.875 209.725 198.242 215.627C198.61 221.53 197.139 228.171 194.195 230.015C191.252 231.859 199.714 221.53 202.29 222.268C204.865 223.005 205.969 225.957 203.393 228.171C200.818 230.384 200.818 223.005 220.317 223.743" stroke="#263238" stroke-miterlimit="10" stroke-linecap="round" stroke-linejoin="round"/>
<path d="M217.11 215.192L227.897 223.882C228.461 224.336 228.008 225.24 227.308 225.058L213.641 221.498L217.11 215.192Z" fill="#263238" stroke="#263238" stroke-miterlimit="10" stroke-linecap="round" stroke-linejoin="round"/>
<path d="M215.361 211.817L152.259 174.353L145.203 186.381L210.537 221.872C210.701 221.979 210.872 222.077 211.056 222.154C213.225 223.062 215.947 221.485 217.136 218.63C218.325 215.776 217.53 212.725 215.361 211.817Z" fill="#FF6B6B" stroke="#263238" stroke-miterlimit="10" stroke-linecap="round" stroke-linejoin="round"/>
<path d="M153.923 182.03C152.082 186.459 147.861 188.905 144.498 187.497C144.172 187.359 143.867 187.183 143.58 186.988L78.9035 150.845L73.6281 147.896L72.9844 147.537L73.1471 147.146L80.5624 129.339L80.8813 128.582L81.7338 129.098L89.1232 133.611L151.172 171.463C154.534 172.872 155.771 177.602 153.923 182.03Z" fill="white" stroke="#263238" stroke-miterlimit="10" stroke-linecap="round" stroke-linejoin="round"/>
<path d="M150.554 171.087L89.1232 133.611L81.7338 129.098L80.8813 128.582L80.5624 129.339L73.1471 147.146L72.9844 147.537L73.6281 147.896L78.9035 150.845L142.098 186.159C145.461 187.161 149.468 184.679 151.267 180.351C152.706 176.9 152.325 173.275 150.554 171.087Z" fill="#FF6B6B" stroke="#263238" stroke-miterlimit="10" stroke-linecap="round" stroke-linejoin="round"/>
<path d="M78.9071 150.845C82.7382 151.008 86.8429 148.014 88.8265 143.252C90.2442 139.848 90.2644 136.312 89.1261 133.612L81.7367 129.098C81.3465 129.15 80.9562 129.228 80.566 129.339C77.5218 130.2 74.6145 132.861 73.0398 136.637C71.4659 140.421 71.6222 144.367 73.1507 147.145C73.3005 147.406 73.4567 147.661 73.6324 147.896" fill="white"/>
<path d="M78.9071 150.845C82.7382 151.008 86.8429 148.014 88.8265 143.252C90.2442 139.848 90.2644 136.312 89.1261 133.612L81.7367 129.098C81.3465 129.15 80.9562 129.228 80.566 129.339C77.5218 130.2 74.6145 132.861 73.0398 136.637C71.4659 140.421 71.6222 144.367 73.1507 147.145C73.3005 147.406 73.4567 147.661 73.6324 147.896" stroke="#263238" stroke-miterlimit="10" stroke-linecap="round" stroke-linejoin="round"/>
<path d="M84.6561 139.937L132.637 171.25C133.249 171.65 133.458 172.45 133.12 173.1C132.744 173.822 131.841 174.081 131.141 173.666L81.7891 144.408L84.6561 139.937Z" fill="white" stroke="#263238" stroke-miterlimit="10" stroke-linecap="round" stroke-linejoin="round"/>
<path d="M84.1367 141.076C81.9565 146.312 76.964 149.205 72.986 147.539C69.008 145.874 67.5507 140.279 69.7316 135.043C71.9118 129.807 76.9043 126.913 80.8823 128.58C84.8603 130.246 86.3175 135.841 84.1367 141.076Z" fill="#8C8C8C" stroke="#263238" stroke-miterlimit="10" stroke-linecap="round" stroke-linejoin="round"/>
<path d="M82.5848 140.426C80.8748 144.532 76.9587 146.802 73.8383 145.496C70.7178 144.189 59.997 133.883 61.707 129.776C63.417 125.669 76.9112 129.318 80.0317 130.624C83.1522 131.931 84.2956 136.319 82.5848 140.426Z" fill="#FF6B6B" stroke="#263238" stroke-miterlimit="10" stroke-linecap="round" stroke-linejoin="round"/>
<path d="M183.617 208.5L187.507 206.68C187.507 206.68 188.804 206.55 189.971 207.461C191.138 208.371 193.342 209.801 193.342 209.801C193.342 209.801 197.751 210.061 197.88 210.712C198.01 211.362 195.287 212.142 194.898 212.142C194.509 212.142 192.045 212.142 192.045 212.142C192.045 212.142 196.065 214.223 196.454 214.483C196.843 214.743 202.419 216.433 201.641 216.954C200.863 217.474 195.676 217.343 194.509 217.603C193.342 217.863 191.008 217.863 191.008 217.863L186.599 213.832L183.487 210.452C183.487 210.452 182.45 209.281 183.617 208.5Z" fill="#F4D9C3" stroke="#263238" stroke-miterlimit="10" stroke-linecap="round" stroke-linejoin="round"/>
<path d="M85.845 161.82C85.845 161.82 85.5858 158.309 85.5858 156.619C85.5858 154.929 84.6778 151.678 84.289 151.418C83.9002 151.158 79.8805 149.597 78.7134 148.557C77.5462 147.517 76.1199 148.947 76.6383 149.857C77.1567 150.768 80.1397 152.458 80.1397 152.458L79.3621 153.628L76.5094 151.158C76.5094 151.158 73.5272 146.476 72.7489 146.867C71.9706 147.257 72.2305 147.907 72.7489 148.818C73.2673 149.728 73.0081 155.579 74.4344 156.75C75.8607 157.92 80.1397 159.35 80.1397 159.35L80.5285 162.601C80.5285 162.601 84.5482 162.861 85.0666 162.991C85.5858 163.12 85.845 161.82 85.845 161.82Z" fill="#F4D9C3" stroke="#263238" stroke-miterlimit="10" stroke-linecap="round" stroke-linejoin="round"/>
<path d="M77.2891 166.761L77.8075 163.25C77.8075 163.25 77.6779 162.079 80.6601 161.56C83.6423 161.04 85.847 161.819 85.847 161.819C85.847 161.819 86.3654 161.949 86.4957 162.73C86.6253 163.51 86.1069 166.501 86.1069 166.501C86.1069 166.501 81.4384 164.681 77.2891 166.761Z" fill="white" stroke="#263238" stroke-miterlimit="10" stroke-linecap="round" stroke-linejoin="round"/>
<path d="M129.305 339.343V348.692C129.305 348.692 131.473 349.779 137.761 349.779C144.049 349.779 151.204 347.823 154.24 346.518C157.275 345.213 158.36 342.387 157.275 341.952C156.191 341.517 150.771 341.3 149.686 340.43C148.602 339.56 144.049 336.733 144.049 336.733C144.049 336.733 133.208 339.995 129.305 339.343Z" fill="#263238" stroke="#263238" stroke-miterlimit="10" stroke-linecap="round" stroke-linejoin="round"/>
<path d="M157.673 342.812C154.816 344.171 149.719 346.194 143.287 347.027C135.797 347.996 131.184 347.166 129.305 346.674V348.692C129.305 348.692 131.473 349.78 137.761 349.78C144.049 349.78 151.204 347.823 154.24 346.519C156.414 345.583 157.581 343.87 157.673 342.812Z" fill="white" stroke="#263238" stroke-miterlimit="10" stroke-linecap="round" stroke-linejoin="round"/>
<path d="M132.558 249.546L133.642 252.59C133.642 252.59 138.195 261.287 141.448 267.593C144.7 273.898 148.169 287.378 149.253 288.683C150.338 289.988 150.121 291.727 149.47 293.684C148.819 295.64 143.616 329.776 143.616 330.646C143.616 331.516 143.182 331.516 143.832 332.603C144.482 333.69 144.7 337.169 144.7 337.169C144.7 337.169 142.965 339.126 139.496 339.778C136.028 340.431 129.306 340.431 129.306 340.431C129.306 340.431 128.438 336.3 128.655 335.648C128.871 334.995 129.522 330.864 129.522 330.864C129.522 330.864 131.691 320.211 131.257 314.775C130.823 309.339 131.907 297.163 132.341 295.858C132.775 294.554 132.775 291.51 132.775 291.51L131.474 289.118V287.378C131.474 287.378 121.066 276.725 116.946 272.593C112.826 268.462 108.707 263.461 108.707 263.461C108.707 263.461 103.937 284.769 102.636 289.335C101.335 293.901 100.685 295.858 99.8173 297.162C98.9497 298.467 90.0598 310.208 86.8076 314.991C83.5554 319.775 78.5686 328.254 78.5686 328.254C78.5686 328.254 78.5686 331.081 78.7854 331.951C79.0021 332.821 76.6174 336.082 76.6174 336.082L75.7498 336.952C75.7498 336.952 70.5457 331.734 68.5945 331.299C66.6433 330.864 62.5234 331.516 62.5234 331.516C62.5234 331.516 65.1255 324.341 65.7757 322.819C66.4266 321.297 72.4976 305.86 74.2321 302.816C75.9666 299.772 77.2676 293.684 80.3031 291.292C83.3386 288.9 86.8076 286.074 86.8076 286.074L86.3742 261.723L85.9407 254.982C85.9407 254.982 85.2906 252.59 85.2906 249.764C85.2906 246.937 85.2906 245.415 85.2906 245.415C85.2906 245.415 105.021 249.981 114.779 249.546C124.536 249.112 130.391 246.502 130.391 246.502L132.558 249.546Z" fill="#1C74D0" stroke="black" stroke-miterlimit="10" stroke-linecap="round" stroke-linejoin="round"/>
<path d="M137.975 181.584C137.975 181.584 126.695 176.643 120.729 176.643C114.765 176.643 111.523 176.773 105.169 177.033C98.8154 177.293 95.0548 179.244 95.0548 179.244L85.7186 182.364L86.4969 165.33C86.4969 165.33 83.3851 164.419 80.662 164.94C77.939 165.46 76.3831 167.281 76.3831 167.281C76.3831 167.281 72.8817 190.426 73.0113 192.507C73.1409 194.588 75.864 194.977 75.864 194.977L97.0003 194.588L95.4444 218.253L79.6245 245.819C79.6245 245.819 79.7541 250.11 92.7213 254.401C105.689 258.692 121.637 257.261 126.565 255.961C131.493 254.661 139.377 248.815 140.025 247.904C140.673 246.994 140.051 242.308 140.051 240.358C140.051 238.408 136.809 219.943 137.327 219.033C137.846 218.123 140.699 205.9 140.699 205.9C140.699 205.9 167.022 223.064 168.578 222.804C170.134 222.544 185.954 214.742 186.343 214.482C186.732 214.222 187.769 212.792 186.213 210.451C184.657 208.111 181.934 207.721 181.156 207.721C180.378 207.721 169.745 208.631 169.745 208.631C169.745 208.631 156.389 196.798 156.001 196.148C155.612 195.498 153.537 190.037 152.63 188.606C151.72 187.175 137.975 181.584 137.975 181.584Z" fill="#EEBD34" stroke="#263238" stroke-miterlimit="10" stroke-linecap="round" stroke-linejoin="round"/>
<path d="M169.742 208.631C169.742 208.631 174 211.065 174.849 212.555L169.742 208.631Z" fill="#92E3A9"/>
<path d="M169.742 208.631C169.742 208.631 174 211.065 174.849 212.555" stroke="#263238" stroke-miterlimit="10" stroke-linecap="round" stroke-linejoin="round"/>
<path d="M152.63 188.605C152.63 188.605 148.737 188.921 144.703 193.179L152.63 188.605Z" fill="#92E3A9"/>
<path d="M152.63 188.605C152.63 188.605 148.737 188.921 144.703 193.179" stroke="#263238" stroke-miterlimit="10" stroke-linecap="round" stroke-linejoin="round"/>
<path d="M143.85 190.412C143.85 190.412 140.24 192.115 139.391 196.8L143.85 190.412Z" fill="#92E3A9"/>
<path d="M143.85 190.412C143.85 190.412 140.24 192.115 139.391 196.8" stroke="#263238" stroke-miterlimit="10" stroke-linecap="round" stroke-linejoin="round"/>
<path d="M96.9989 194.588L96.6094 184.836L96.9989 194.588Z" stroke="#263238" stroke-miterlimit="10" stroke-linecap="round" stroke-linejoin="round"/>
<path d="M134.554 210.082L140.695 205.9L130.711 209.022" stroke="#263238" stroke-miterlimit="10" stroke-linecap="round" stroke-linejoin="round"/>
<path d="M130.195 213.052L132.315 211.608" stroke="#263238" stroke-miterlimit="10" stroke-linecap="round" stroke-linejoin="round"/>
<path d="M129.584 183.062C127.547 183.812 125.179 185.01 123.062 186.916C118.004 191.467 115.281 191.077 115.281 191.077" stroke="#263238" stroke-miterlimit="10" stroke-linecap="round" stroke-linejoin="round"/>
<path d="M134.606 181.845C134.606 181.845 133.708 181.917 132.32 182.242" stroke="#263238" stroke-miterlimit="10" stroke-linecap="round" stroke-linejoin="round"/>
<path d="M122.284 185.096C122.284 185.096 118.135 188.997 113.727 190.817" stroke="#263238" stroke-miterlimit="10" stroke-linecap="round" stroke-linejoin="round"/>
<path d="M76.6203 184.718C76.135 185.387 75.8225 186.038 75.8629 186.525" stroke="#263238" stroke-miterlimit="10" stroke-linecap="round" stroke-linejoin="round"/>
<path d="M85.7198 182.365L83.9047 182.495C83.9047 182.495 81.5704 181.455 80.4033 181.584C79.9367 181.636 79.0972 182.187 78.2656 182.93" stroke="#263238" stroke-miterlimit="10" stroke-linecap="round" stroke-linejoin="round"/>
<path d="M77.809 181.845C77.809 181.845 75.4747 182.755 75.0859 184.835" stroke="#263238" stroke-miterlimit="10" stroke-linecap="round" stroke-linejoin="round"/>
<path d="M137.33 219.033C137.33 219.033 135.497 231.521 134.672 235.376C133.849 239.23 132.75 248.731 132.75 248.731C132.75 248.731 134.809 247.905 137.006 247.629C139.203 247.354 140.026 247.904 140.026 247.904C140.026 247.904 141.674 243.911 140.026 237.028C138.38 230.144 137.33 219.033 137.33 219.033Z" fill="#EEBD34" stroke="#263238" stroke-miterlimit="10" stroke-linecap="round" stroke-linejoin="round"/>
<path d="M75.7459 336.951C75.7459 336.951 76.6135 341.082 77.4804 341.517C78.348 341.951 82.4671 342.821 82.9013 343.909C83.3347 344.996 78.9982 346.953 76.1794 347.387C73.3606 347.822 68.3738 346.735 67.723 346.3C67.0728 345.865 65.5551 343.691 63.6031 343.039C61.6519 342.387 59.2666 341.517 59.7 338.907C60.1335 336.298 62.5188 331.515 62.5188 331.515C62.5188 331.515 66.6387 329.993 71.4087 331.732C76.1801 333.472 75.7459 336.951 75.7459 336.951Z" fill="#263238" stroke="#263238" stroke-miterlimit="10" stroke-linecap="round" stroke-linejoin="round"/>
<path d="M76.1787 347.387C78.9975 346.953 83.334 344.995 82.9006 343.909C82.8646 343.819 82.7962 343.732 82.7148 343.645C80.6045 344.366 78.0111 344.763 75.6322 343.439C72.7047 341.808 71.7291 338.22 67.8259 336.915C65.5543 336.156 62.5188 336.281 60.3718 336.518C60.0658 337.38 59.8145 338.22 59.7 338.907C59.2666 341.517 61.6512 342.386 63.6031 343.039C65.5543 343.691 67.0721 345.865 67.723 346.3C68.3724 346.735 73.3599 347.822 76.1787 347.387Z" fill="white" stroke="#263238" stroke-miterlimit="10" stroke-linecap="round" stroke-linejoin="round"/>
<path d="M74.8795 345.865C72.4949 344.778 70.3263 341.951 66.8573 339.777C63.6843 337.789 60.3391 339.978 59.7891 340.367C60.2851 341.879 62.0751 342.527 63.6043 343.039C65.5555 343.692 67.0733 345.866 67.7242 346.301C68.3751 346.735 73.3618 347.822 76.1806 347.388C76.7076 347.306 77.2879 347.172 77.8805 346.999C76.7839 346.649 75.7126 346.245 74.8795 345.865Z" fill="#263238" stroke="#263238" stroke-miterlimit="10" stroke-linecap="round" stroke-linejoin="round"/>
<path d="M140.179 178.074L136.288 180.805C136.288 180.805 131.231 177.424 127.731 176.774C124.229 176.124 122.414 175.993 122.414 175.993L125.137 171.182C125.137 171.182 128.379 168.972 129.546 165.461C130.713 161.95 131.88 160.52 134.473 161.82C137.067 163.121 138.104 168.322 138.104 171.572C138.104 174.823 140.179 178.074 140.179 178.074Z" fill="#F4D9C3" stroke="#263238" stroke-miterlimit="10" stroke-linecap="round" stroke-linejoin="round"/>
<path d="M142.38 154.148C142.38 154.148 144.584 157.399 144.844 158.569C145.103 159.739 143.936 162.08 143.936 162.08C143.936 162.08 146.529 165.851 146.659 166.761C146.788 167.672 145.103 169.362 145.103 169.362C145.103 169.362 145.492 173.133 146.011 174.043C146.529 174.953 147.048 176.254 146.399 177.424C145.751 178.594 144.844 179.374 142.121 179.765C139.398 180.155 137.193 178.854 136.674 176.124C136.156 173.393 136.156 167.542 135.767 166.761C135.378 165.981 133.562 164.161 132.655 165.591C131.747 167.021 132.395 168.452 133.043 169.752C133.691 171.052 134.859 171.572 134.859 171.572C134.859 171.572 133.303 172.353 132.006 173.002C130.709 173.652 128.375 173.913 126.56 173.262C124.745 172.613 123.837 170.922 123.707 170.532C123.578 170.142 122.281 166.891 121.892 166.241C121.503 165.591 118.78 161.69 118.651 157.139C118.521 152.588 123.967 147.387 130.969 145.956C137.971 144.526 141.213 147.647 142.769 147.777C144.325 147.906 142.769 146.476 144.066 147.387C145.362 148.297 145.621 153.368 142.38 154.148Z" fill="#F4D9C3" stroke="#263238" stroke-miterlimit="10" stroke-linecap="round" stroke-linejoin="round"/>
<path d="M145.104 169.361C145.104 169.361 145.247 169.217 145.444 168.995C144.919 169.063 143.343 169.278 142.38 169.492C141.213 169.752 140.695 173.263 139.657 172.353C138.62 171.442 138.102 163.771 137.842 163.38C137.583 162.99 138.75 161.69 138.75 161.69C138.75 161.69 140.565 159.219 140.565 158.179C140.565 157.139 138.75 155.968 139.398 155.708C140.047 155.448 142.38 154.148 142.38 154.148C145.622 153.368 145.363 148.297 144.066 147.387C142.769 146.476 144.325 147.906 142.769 147.777C141.213 147.647 137.972 144.526 130.969 145.956C123.967 147.387 118.521 152.588 118.651 157.139C118.78 161.689 121.503 165.59 121.892 166.241C122.281 166.891 123.578 170.142 123.707 170.532C123.837 170.922 124.745 172.613 126.56 173.262C128.375 173.912 130.709 173.652 132.006 173.002C133.303 172.353 134.859 171.572 134.859 171.572C134.859 171.572 133.691 171.052 133.043 169.752C132.395 168.452 131.747 167.021 132.655 165.591C133.563 164.161 135.378 165.981 135.767 166.761C136.155 167.542 136.155 173.393 136.674 176.124C137.193 178.854 139.398 180.155 142.121 179.765C144.844 179.375 145.751 178.594 146.399 177.424C147.048 176.254 146.529 174.953 146.011 174.043C145.493 173.132 145.104 169.361 145.104 169.361Z" fill="#263238" stroke="#263238" stroke-miterlimit="10" stroke-linecap="round" stroke-linejoin="round"/>
<path d="M144.459 159.739C144.459 159.739 143.162 159.739 142.773 160.78" stroke="#263238" stroke-miterlimit="10" stroke-linecap="round" stroke-linejoin="round"/>
<path d="M143.417 164.16C143.703 164.16 143.935 163.52 143.935 162.73C143.935 161.94 143.703 161.3 143.417 161.3C143.131 161.3 142.898 161.94 142.898 162.73C142.898 163.52 143.131 164.16 143.417 164.16Z" fill="#263238"/>
<path d="M145.362 172.613C145.362 172.613 143.157 173.393 142.25 171.832" stroke="white" stroke-miterlimit="10" stroke-linecap="round" stroke-linejoin="round"/>
<path d="M120.724 176.643C126.689 176.643 137.97 181.584 137.97 181.584C137.97 181.584 138.129 181.649 138.402 181.761C138.266 181.254 137.989 180.34 137.711 180.154C137.322 179.894 135.247 176.904 131.357 175.343C127.467 173.782 124.355 173.652 123.318 173.652C122.405 173.652 119.788 176.066 119.172 176.646C119.672 176.645 120.184 176.643 120.724 176.643Z" fill="#EEBD34" stroke="#263238" stroke-miterlimit="10" stroke-linecap="round" stroke-linejoin="round"/>
</svg>
